  0
SECTION
  2
HEADER
  9
$ANGBASE
  50
0.0
  9
$ANGDIR
  70
  1
  9
$MEASUREMENT
  70
0
  0
ENDSEC
  0
SECTION
  2
TABLES
  0
TABLE
  2
LTYPE
  70
1
  0
LTYPE
  2
CONTINUOUS
  70
0
  3
Solid line
  72
65
  73
0
  40
0.0
  0
ENDTAB
  0
TABLE
  2
STYLE
  70
4
  0
STYLE
  2
KICAD
  70
0
  40
0
  41
1
  42
1
  50
0
  71
0
  3
isocp.shx
  0
STYLE
  2
KICADB
  70
0
  40
0
  41
1
  42
1
  50
0
  71
0
  3
isocp.shx
  0
STYLE
  2
KICADI
  70
0
  40
0
  41
1
  42
1
  50
15
  71
0
  3
isocp.shx
  0
STYLE
  2
KICADBI
  70
0
  40
0
  41
1
  42
1
  50
15
  71
0
  3
isocp.shx
  0
ENDTAB
  0
TABLE
  2
LAYER
  70
30
  0
LAYER
  2
BLACK
  70
0
  62
7
  6
CONTINUOUS
  0
LAYER
  2
GRAY1
  70
0
  62
251
  6
CONTINUOUS
  0
LAYER
  2
GRAY2
  70
0
  62
8
  6
CONTINUOUS
  0
LAYER
  2
GRAY3
  70
0
  62
9
  6
CONTINUOUS
  0
LAYER
  2
WHITE
  70
0
  62
7
  6
CONTINUOUS
  0
LAYER
  2
LYELLOW
  70
0
  62
51
  6
CONTINUOUS
  0
LAYER
  2
BLUE1
  70
0
  62
178
  6
CONTINUOUS
  0
LAYER
  2
GREEN1
  70
0
  62
98
  6
CONTINUOUS
  0
LAYER
  2
CYAN1
  70
0
  62
138
  6
CONTINUOUS
  0
LAYER
  2
RED1
  70
0
  62
18
  6
CONTINUOUS
  0
LAYER
  2
MAGENTA1
  70
0
  62
228
  6
CONTINUOUS
  0
LAYER
  2
BROWN1
  70
0
  62
58
  6
CONTINUOUS
  0
LAYER
  2
BLUE2
  70
0
  62
5
  6
CONTINUOUS
  0
LAYER
  2
GREEN2
  70
0
  62
3
  6
CONTINUOUS
  0
LAYER
  2
CYAN2
  70
0
  62
4
  6
CONTINUOUS
  0
LAYER
  2
RED2
  70
0
  62
1
  6
CONTINUOUS
  0
LAYER
  2
MAGENTA2
  70
0
  62
6
  6
CONTINUOUS
  0
LAYER
  2
BROWN2
  70
0
  62
54
  6
CONTINUOUS
  0
LAYER
  2
BLUE3
  70
0
  62
171
  6
CONTINUOUS
  0
LAYER
  2
GREEN3
  70
0
  62
91
  6
CONTINUOUS
  0
LAYER
  2
CYAN3
  70
0
  62
131
  6
CONTINUOUS
  0
LAYER
  2
RED3
  70
0
  62
11
  6
CONTINUOUS
  0
LAYER
  2
MAGENTA3
  70
0
  62
221
  6
CONTINUOUS
  0
LAYER
  2
YELLOW3
  70
0
  62
2
  6
CONTINUOUS
  0
LAYER
  2
BLUE4
  70
0
  62
5
  6
CONTINUOUS
  0
LAYER
  2
GREEN4
  70
0
  62
3
  6
CONTINUOUS
  0
LAYER
  2
CYAN4
  70
0
  62
4
  6
CONTINUOUS
  0
LAYER
  2
RED4
  70
0
  62
1
  6
CONTINUOUS
  0
LAYER
  2
MAGENTA4
  70
0
  62
6
  6
CONTINUOUS
  0
LAYER
  2
YELLOW4
  70
0
  62
2
  6
CONTINUOUS
  0
ENDTAB
  0
ENDSEC
  0
SECTION
  2
ENTITIES
0
LINE
8
Black
10
157.364
20
-114.302
11
157.375
21
-114.302
0
LINE
8
Black
10
157.375
20
-114.302
11
157.385
21
-114.306
0
LINE
8
Black
10
157.385
20
-114.306
11
157.396
21
-114.308
0
LINE
8
Black
10
157.396
20
-114.308
11
157.406
21
-114.313
0
LINE
8
Black
10
157.406
20
-114.313
11
157.416
21
-114.317
0
LINE
8
Black
10
157.416
20
-114.317
11
157.425
21
-114.324
0
LINE
8
Black
10
157.425
20
-114.324
11
157.435
21
-114.33
0
LINE
8
Black
10
157.435
20
-114.33
11
157.442
21
-114.338
0
LINE
8
Black
10
157.442
20
-114.338
11
157.45
21
-114.345
0
LINE
8
Black
10
157.45
20
-114.345
11
157.456
21
-114.355
0
LINE
8
Black
10
157.456
20
-114.355
11
157.463
21
-114.363
0
LINE
8
Black
10
157.463
20
-114.363
11
157.467
21
-114.374
0
LINE
8
Black
10
157.467
20
-114.374
11
157.472
21
-114.384
0
LINE
8
Black
10
157.472
20
-114.384
11
157.474
21
-114.395
0
LINE
8
Black
10
157.474
20
-114.395
11
157.478
21
-114.405
0
LINE
8
Black
10
157.478
20
-114.405
11
157.478
21
-114.416
0
LINE
8
Black
10
157.478
20
-114.416
11
157.48
21
-114.427
0
LINE
8
Black
10
157.48
20
-114.427
11
157.48
21
-125.857
0
LINE
8
Black
10
157.48
20
-125.857
11
157.478
21
-125.868
0
LINE
8
Black
10
157.478
20
-125.868
11
157.478
21
-125.879
0
LINE
8
Black
10
157.478
20
-125.879
11
157.474
21
-125.889
0
LINE
8
Black
10
157.474
20
-125.889
11
157.472
21
-125.9
0
LINE
8
Black
10
157.472
20
-125.9
11
157.467
21
-125.91
0
LINE
8
Black
10
157.467
20
-125.91
11
157.463
21
-125.92
0
LINE
8
Black
10
157.463
20
-125.92
11
157.456
21
-125.929
0
LINE
8
Black
10
157.456
20
-125.929
11
157.45
21
-125.939
0
LINE
8
Black
10
157.45
20
-125.939
11
157.442
21
-125.946
0
LINE
8
Black
10
157.442
20
-125.946
11
157.435
21
-125.954
0
LINE
8
Black
10
157.435
20
-125.954
11
157.425
21
-125.96
0
LINE
8
Black
10
157.425
20
-125.96
11
157.416
21
-125.967
0
LINE
8
Black
10
157.416
20
-125.967
11
157.406
21
-125.971
0
LINE
8
Black
10
157.406
20
-125.971
11
157.396
21
-125.976
0
LINE
8
Black
10
157.396
20
-125.976
11
157.385
21
-125.978
0
LINE
8
Black
10
157.385
20
-125.978
11
157.375
21
-125.982
0
LINE
8
Black
10
157.375
20
-125.982
11
157.364
21
-125.982
0
LINE
8
Black
10
157.364
20
-125.982
11
157.353
21
-125.984
0
LINE
8
Black
10
157.353
20
-125.984
11
142.367
21
-125.984
0
LINE
8
Black
10
142.367
20
-125.984
11
142.356
21
-125.982
0
LINE
8
Black
10
142.356
20
-125.982
11
142.345
21
-125.982
0
LINE
8
Black
10
142.345
20
-125.982
11
142.335
21
-125.978
0
LINE
8
Black
10
142.335
20
-125.978
11
142.324
21
-125.976
0
LINE
8
Black
10
142.324
20
-125.976
11
142.314
21
-125.971
0
LINE
8
Black
10
142.314
20
-125.971
11
142.303
21
-125.967
0
LINE
8
Black
10
142.303
20
-125.967
11
142.295
21
-125.96
0
LINE
8
Black
10
142.295
20
-125.96
11
142.285
21
-125.954
0
LINE
8
Black
10
142.285
20
-125.954
11
142.278
21
-125.946
0
LINE
8
Black
10
142.278
20
-125.946
11
142.27
21
-125.939
0
LINE
8
Black
10
142.27
20
-125.939
11
142.264
21
-125.929
0
LINE
8
Black
10
142.264
20
-125.929
11
142.257
21
-125.92
0
LINE
8
Black
10
142.257
20
-125.92
11
142.253
21
-125.91
0
LINE
8
Black
10
142.253
20
-125.91
11
142.248
21
-125.9
0
LINE
8
Black
10
142.248
20
-125.9
11
142.246
21
-125.889
0
LINE
8
Black
10
142.246
20
-125.889
11
142.242
21
-125.879
0
LINE
8
Black
10
142.242
20
-125.879
11
142.242
21
-125.868
0
LINE
8
Black
10
142.242
20
-125.868
11
142.24
21
-125.857
0
LINE
8
Black
10
142.24
20
-125.857
11
142.24
21
-118.885
0
LINE
8
Black
10
142.24
20
-118.885
11
142.238
21
-118.874
0
LINE
8
Black
10
142.238
20
-118.874
11
142.228
21
-118.872
0
LINE
8
Black
10
142.228
20
-118.872
11
133.731
21
-118.872
0
LINE
8
Black
10
133.731
20
-118.872
11
133.72
21
-118.87
0
LINE
8
Black
10
133.72
20
-118.87
11
133.709
21
-118.87
0
LINE
8
Black
10
133.709
20
-118.87
11
133.699
21
-118.866
0
LINE
8
Black
10
133.699
20
-118.866
11
133.688
21
-118.864
0
LINE
8
Black
10
133.688
20
-118.864
11
133.678
21
-118.859
0
LINE
8
Black
10
133.678
20
-118.859
11
133.667
21
-118.855
0
LINE
8
Black
10
133.667
20
-118.855
11
133.659
21
-118.848
0
LINE
8
Black
10
133.659
20
-118.848
11
133.649
21
-118.842
0
LINE
8
Black
10
133.649
20
-118.842
11
133.642
21
-118.834
0
LINE
8
Black
10
133.642
20
-118.834
11
133.634
21
-118.827
0
LINE
8
Black
10
133.634
20
-118.827
11
133.628
21
-118.817
0
LINE
8
Black
10
133.628
20
-118.817
11
133.621
21
-118.808
0
LINE
8
Black
10
133.621
20
-118.808
11
133.617
21
-118.798
0
LINE
8
Black
10
133.617
20
-118.798
11
133.612
21
-118.788
0
LINE
8
Black
10
133.612
20
-118.788
11
133.61
21
-118.777
0
LINE
8
Black
10
133.61
20
-118.777
11
133.606
21
-118.767
0
LINE
8
Black
10
133.606
20
-118.767
11
133.606
21
-118.756
0
LINE
8
Black
10
133.606
20
-118.756
11
133.604
21
-118.745
0
LINE
8
Black
10
133.604
20
-118.745
11
133.604
21
-114.427
0
LINE
8
Black
10
133.604
20
-114.427
11
133.606
21
-114.416
0
LINE
8
Black
10
133.606
20
-114.416
11
133.606
21
-114.405
0
LINE
8
Black
10
133.606
20
-114.405
11
133.61
21
-114.395
0
LINE
8
Black
10
133.61
20
-114.395
11
133.612
21
-114.384
0
LINE
8
Black
10
133.612
20
-114.384
11
133.617
21
-114.374
0
LINE
8
Black
10
133.617
20
-114.374
11
133.621
21
-114.363
0
LINE
8
Black
10
133.621
20
-114.363
11
133.628
21
-114.355
0
LINE
8
Black
10
133.628
20
-114.355
11
133.634
21
-114.345
0
LINE
8
Black
10
133.634
20
-114.345
11
133.642
21
-114.338
0
LINE
8
Black
10
133.642
20
-114.338
11
133.649
21
-114.33
0
LINE
8
Black
10
133.649
20
-114.33
11
133.659
21
-114.324
0
LINE
8
Black
10
133.659
20
-114.324
11
133.667
21
-114.317
0
LINE
8
Black
10
133.667
20
-114.317
11
133.678
21
-114.313
0
LINE
8
Black
10
133.678
20
-114.313
11
133.688
21
-114.308
0
LINE
8
Black
10
133.688
20
-114.308
11
133.699
21
-114.306
0
LINE
8
Black
10
133.699
20
-114.306
11
133.709
21
-114.302
0
LINE
8
Black
10
133.709
20
-114.302
11
133.72
21
-114.302
0
LINE
8
Black
10
133.72
20
-114.302
11
133.731
21
-114.3
0
LINE
8
Black
10
133.731
20
-114.3
11
157.353
21
-114.3
0
LINE
8
Black
10
157.353
20
-114.3
11
157.364
21
-114.302
0
LINE
8
Black
10
173.112
20
-31.4979
11
173.123
21
-31.4979
0
LINE
8
Black
10
173.123
20
-31.4979
11
173.133
21
-31.5017
0
LINE
8
Black
10
173.133
20
-31.5017
11
173.144
21
-31.5037
0
LINE
8
Black
10
173.144
20
-31.5037
11
173.154
21
-31.5092
0
LINE
8
Black
10
173.154
20
-31.5092
11
173.165
21
-31.513
0
LINE
8
Black
10
173.165
20
-31.513
11
173.173
21
-31.5202
0
LINE
8
Black
10
173.173
20
-31.5202
11
173.183
21
-31.5257
0
LINE
8
Black
10
173.183
20
-31.5257
11
173.19
21
-31.5342
0
LINE
8
Black
10
173.19
20
-31.5342
11
173.198
21
-31.5414
0
LINE
8
Black
10
173.198
20
-31.5414
11
173.204
21
-31.551
0
LINE
8
Black
10
173.204
20
-31.551
11
173.211
21
-31.5595
0
LINE
8
Black
10
173.211
20
-31.5595
11
173.215
21
-31.5699
0
LINE
8
Black
10
173.215
20
-31.5699
11
173.22
21
-31.5796
0
LINE
8
Black
10
173.22
20
-31.5796
11
173.222
21
-31.5905
0
LINE
8
Black
10
173.222
20
-31.5905
11
173.226
21
-31.6009
0
LINE
8
Black
10
173.226
20
-31.6009
11
173.226
21
-31.6121
0
LINE
8
Black
10
173.226
20
-31.6121
11
173.228
21
-31.623
0
LINE
8
Black
10
173.228
20
-31.623
11
173.228
21
-120.777
0
LINE
8
Black
10
173.228
20
-120.777
11
173.226
21
-120.788
0
LINE
8
Black
10
173.226
20
-120.788
11
173.226
21
-120.799
0
LINE
8
Black
10
173.226
20
-120.799
11
173.222
21
-120.809
0
LINE
8
Black
10
173.222
20
-120.809
11
173.22
21
-120.82
0
LINE
8
Black
10
173.22
20
-120.82
11
173.215
21
-120.83
0
LINE
8
Black
10
173.215
20
-120.83
11
173.211
21
-120.84
0
LINE
8
Black
10
173.211
20
-120.84
11
173.204
21
-120.849
0
LINE
8
Black
10
173.204
20
-120.849
11
173.198
21
-120.859
0
LINE
8
Black
10
173.198
20
-120.859
11
173.19
21
-120.866
0
LINE
8
Black
10
173.19
20
-120.866
11
173.183
21
-120.874
0
LINE
8
Black
10
173.183
20
-120.874
11
173.173
21
-120.88
0
LINE
8
Black
10
173.173
20
-120.88
11
173.165
21
-120.887
0
LINE
8
Black
10
173.165
20
-120.887
11
173.154
21
-120.891
0
LINE
8
Black
10
173.154
20
-120.891
11
173.144
21
-120.896
0
LINE
8
Black
10
173.144
20
-120.896
11
173.133
21
-120.898
0
LINE
8
Black
10
173.133
20
-120.898
11
173.123
21
-120.902
0
LINE
8
Black
10
173.123
20
-120.902
11
173.112
21
-120.902
0
LINE
8
Black
10
173.112
20
-120.902
11
173.101
21
-120.904
0
LINE
8
Black
10
173.101
20
-120.904
11
159.639
21
-120.904
0
LINE
8
Black
10
159.639
20
-120.904
11
159.628
21
-120.902
0
LINE
8
Black
10
159.628
20
-120.902
11
159.617
21
-120.902
0
LINE
8
Black
10
159.617
20
-120.902
11
159.607
21
-120.898
0
LINE
8
Black
10
159.607
20
-120.898
11
159.596
21
-120.896
0
LINE
8
Black
10
159.596
20
-120.896
11
159.586
21
-120.891
0
LINE
8
Black
10
159.586
20
-120.891
11
159.576
21
-120.887
0
LINE
8
Black
10
159.576
20
-120.887
11
159.567
21
-120.88
0
LINE
8
Black
10
159.567
20
-120.88
11
159.557
21
-120.874
0
LINE
8
Black
10
159.557
20
-120.874
11
159.55
21
-120.866
0
LINE
8
Black
10
159.55
20
-120.866
11
159.542
21
-120.859
0
LINE
8
Black
10
159.542
20
-120.859
11
159.536
21
-120.849
0
LINE
8
Black
10
159.536
20
-120.849
11
159.529
21
-120.84
0
LINE
8
Black
10
159.529
20
-120.84
11
159.525
21
-120.83
0
LINE
8
Black
10
159.525
20
-120.83
11
159.52
21
-120.82
0
LINE
8
Black
10
159.52
20
-120.82
11
159.518
21
-120.809
0
LINE
8
Black
10
159.518
20
-120.809
11
159.514
21
-120.799
0
LINE
8
Black
10
159.514
20
-120.799
11
159.514
21
-120.788
0
LINE
8
Black
10
159.514
20
-120.788
11
159.512
21
-120.777
0
LINE
8
Black
10
159.512
20
-120.777
11
159.512
21
-31.623
0
LINE
8
Black
10
159.512
20
-31.623
11
159.514
21
-31.6121
0
LINE
8
Black
10
159.514
20
-31.6121
11
159.514
21
-31.6009
0
LINE
8
Black
10
159.514
20
-31.6009
11
159.518
21
-31.5905
0
LINE
8
Black
10
159.518
20
-31.5905
11
159.52
21
-31.5796
0
LINE
8
Black
10
159.52
20
-31.5796
11
159.525
21
-31.5699
0
LINE
8
Black
10
159.525
20
-31.5699
11
159.529
21
-31.5595
0
LINE
8
Black
10
159.529
20
-31.5595
11
159.536
21
-31.551
0
LINE
8
Black
10
159.536
20
-31.551
11
159.542
21
-31.5414
0
LINE
8
Black
10
159.542
20
-31.5414
11
159.55
21
-31.5342
0
LINE
8
Black
10
159.55
20
-31.5342
11
159.557
21
-31.5257
0
LINE
8
Black
10
159.557
20
-31.5257
11
159.567
21
-31.5202
0
LINE
8
Black
10
159.567
20
-31.5202
11
159.576
21
-31.513
0
LINE
8
Black
10
159.576
20
-31.513
11
159.586
21
-31.5092
0
LINE
8
Black
10
159.586
20
-31.5092
11
159.596
21
-31.5037
0
LINE
8
Black
10
159.596
20
-31.5037
11
159.607
21
-31.5017
0
LINE
8
Black
10
159.607
20
-31.5017
11
159.617
21
-31.4979
0
LINE
8
Black
10
159.617
20
-31.4979
11
159.628
21
-31.4979
0
LINE
8
Black
10
159.628
20
-31.4979
11
159.639
21
-31.496
0
LINE
8
Black
10
159.639
20
-31.496
11
173.101
21
-31.496
0
LINE
8
Black
10
173.101
20
-31.496
11
173.112
21
-31.4979
0
LINE
8
Black
10
128.916
20
-31.4979
11
128.927
21
-31.4979
0
LINE
8
Black
10
128.927
20
-31.4979
11
128.937
21
-31.5017
0
LINE
8
Black
10
128.937
20
-31.5017
11
128.948
21
-31.5037
0
LINE
8
Black
10
128.948
20
-31.5037
11
128.958
21
-31.5092
0
LINE
8
Black
10
128.958
20
-31.5092
11
128.969
21
-31.513
0
LINE
8
Black
10
128.969
20
-31.513
11
128.977
21
-31.5202
0
LINE
8
Black
10
128.977
20
-31.5202
11
128.987
21
-31.5257
0
LINE
8
Black
10
128.987
20
-31.5257
11
128.994
21
-31.5342
0
LINE
8
Black
10
128.994
20
-31.5342
11
129.002
21
-31.5414
0
LINE
8
Black
10
129.002
20
-31.5414
11
129.008
21
-31.551
0
LINE
8
Black
10
129.008
20
-31.551
11
129.015
21
-31.5595
0
LINE
8
Black
10
129.015
20
-31.5595
11
129.019
21
-31.5699
0
LINE
8
Black
10
129.019
20
-31.5699
11
129.024
21
-31.5796
0
LINE
8
Black
10
129.024
20
-31.5796
11
129.026
21
-31.5905
0
LINE
8
Black
10
129.026
20
-31.5905
11
129.03
21
-31.6009
0
LINE
8
Black
10
129.03
20
-31.6009
11
129.03
21
-31.6121
0
LINE
8
Black
10
129.03
20
-31.6121
11
129.032
21
-31.623
0
LINE
8
Black
10
129.032
20
-31.623
11
129.032
21
-79.2353
0
LINE
8
Black
10
129.032
20
-79.2353
11
129.034
21
-79.2462
0
LINE
8
Black
10
129.034
20
-79.2462
11
129.044
21
-79.248
0
LINE
8
Black
10
129.044
20
-79.248
11
156.845
21
-79.248
0
LINE
8
Black
10
156.845
20
-79.248
11
156.856
21
-79.2499
0
LINE
8
Black
10
156.856
20
-79.2499
11
156.867
21
-79.2499
0
LINE
8
Black
10
156.867
20
-79.2499
11
156.877
21
-79.2537
0
LINE
8
Black
10
156.877
20
-79.2537
11
156.888
21
-79.2557
0
LINE
8
Black
10
156.888
20
-79.2557
11
156.898
21
-79.2612
0
LINE
8
Black
10
156.898
20
-79.2612
11
156.909
21
-79.265
0
LINE
8
Black
10
156.909
20
-79.265
11
156.917
21
-79.2722
0
LINE
8
Black
10
156.917
20
-79.2722
11
156.927
21
-79.2777
0
LINE
8
Black
10
156.927
20
-79.2777
11
156.934
21
-79.2862
0
LINE
8
Black
10
156.934
20
-79.2862
11
156.942
21
-79.2934
0
LINE
8
Black
10
156.942
20
-79.2934
11
156.948
21
-79.303
0
LINE
8
Black
10
156.948
20
-79.303
11
156.955
21
-79.3115
0
LINE
8
Black
10
156.955
20
-79.3115
11
156.959
21
-79.3219
0
LINE
8
Black
10
156.959
20
-79.3219
11
156.964
21
-79.3316
0
LINE
8
Black
10
156.964
20
-79.3316
11
156.966
21
-79.3425
0
LINE
8
Black
10
156.966
20
-79.3425
11
156.97
21
-79.3529
0
LINE
8
Black
10
156.97
20
-79.3529
11
156.97
21
-79.3641
0
LINE
8
Black
10
156.97
20
-79.3641
11
156.972
21
-79.375
0
LINE
8
Black
10
156.972
20
-79.375
11
156.972
21
-110.109
0
LINE
8
Black
10
156.972
20
-110.109
11
156.97
21
-110.12
0
LINE
8
Black
10
156.97
20
-110.12
11
156.97
21
-110.131
0
LINE
8
Black
10
156.97
20
-110.131
11
156.966
21
-110.141
0
LINE
8
Black
10
156.966
20
-110.141
11
156.964
21
-110.152
0
LINE
8
Black
10
156.964
20
-110.152
11
156.959
21
-110.162
0
LINE
8
Black
10
156.959
20
-110.162
11
156.955
21
-110.172
0
LINE
8
Black
10
156.955
20
-110.172
11
156.948
21
-110.181
0
LINE
8
Black
10
156.948
20
-110.181
11
156.942
21
-110.191
0
LINE
8
Black
10
156.942
20
-110.191
11
156.934
21
-110.198
0
LINE
8
Black
10
156.934
20
-110.198
11
156.927
21
-110.206
0
LINE
8
Black
10
156.927
20
-110.206
11
156.917
21
-110.212
0
LINE
8
Black
10
156.917
20
-110.212
11
156.909
21
-110.219
0
LINE
8
Black
10
156.909
20
-110.219
11
156.898
21
-110.223
0
LINE
8
Black
10
156.898
20
-110.223
11
156.888
21
-110.228
0
LINE
8
Black
10
156.888
20
-110.228
11
156.877
21
-110.23
0
LINE
8
Black
10
156.877
20
-110.23
11
156.867
21
-110.234
0
LINE
8
Black
10
156.867
20
-110.234
11
156.856
21
-110.234
0
LINE
8
Black
10
156.856
20
-110.234
11
156.845
21
-110.236
0
LINE
8
Black
10
156.845
20
-110.236
11
129.045
21
-110.236
0
LINE
8
Black
10
129.045
20
-110.236
11
129.034
21
-110.238
0
LINE
8
Black
10
129.034
20
-110.238
11
129.032
21
-110.248
0
LINE
8
Black
10
129.032
20
-110.248
11
129.032
21
-120.777
0
LINE
8
Black
10
129.032
20
-120.777
11
129.03
21
-120.788
0
LINE
8
Black
10
129.03
20
-120.788
11
129.03
21
-120.799
0
LINE
8
Black
10
129.03
20
-120.799
11
129.026
21
-120.809
0
LINE
8
Black
10
129.026
20
-120.809
11
129.024
21
-120.82
0
LINE
8
Black
10
129.024
20
-120.82
11
129.019
21
-120.83
0
LINE
8
Black
10
129.019
20
-120.83
11
129.015
21
-120.84
0
LINE
8
Black
10
129.015
20
-120.84
11
129.008
21
-120.849
0
LINE
8
Black
10
129.008
20
-120.849
11
129.002
21
-120.859
0
LINE
8
Black
10
129.002
20
-120.859
11
128.994
21
-120.866
0
LINE
8
Black
10
128.994
20
-120.866
11
128.987
21
-120.874
0
LINE
8
Black
10
128.987
20
-120.874
11
128.977
21
-120.88
0
LINE
8
Black
10
128.977
20
-120.88
11
128.969
21
-120.887
0
LINE
8
Black
10
128.969
20
-120.887
11
128.958
21
-120.891
0
LINE
8
Black
10
128.958
20
-120.891
11
128.948
21
-120.896
0
LINE
8
Black
10
128.948
20
-120.896
11
128.937
21
-120.898
0
LINE
8
Black
10
128.937
20
-120.898
11
128.927
21
-120.902
0
LINE
8
Black
10
128.927
20
-120.902
11
128.916
21
-120.902
0
LINE
8
Black
10
128.916
20
-120.902
11
128.905
21
-120.904
0
LINE
8
Black
10
128.905
20
-120.904
11
99.695
21
-120.904
0
LINE
8
Black
10
99.695
20
-120.904
11
99.6841
21
-120.902
0
LINE
8
Black
10
99.6841
20
-120.902
11
99.6729
21
-120.902
0
LINE
8
Black
10
99.6729
20
-120.902
11
99.6625
21
-120.898
0
LINE
8
Black
10
99.6625
20
-120.898
11
99.6516
21
-120.896
0
LINE
8
Black
10
99.6516
20
-120.896
11
99.6419
21
-120.891
0
LINE
8
Black
10
99.6419
20
-120.891
11
99.6315
21
-120.887
0
LINE
8
Black
10
99.6315
20
-120.887
11
99.623
21
-120.88
0
LINE
8
Black
10
99.623
20
-120.88
11
99.6134
21
-120.874
0
LINE
8
Black
10
99.6134
20
-120.874
11
99.6062
21
-120.866
0
LINE
8
Black
10
99.6062
20
-120.866
11
99.5977
21
-120.859
0
LINE
8
Black
10
99.5977
20
-120.859
11
99.5922
21
-120.849
0
LINE
8
Black
10
99.5922
20
-120.849
11
99.585
21
-120.84
0
LINE
8
Black
10
99.585
20
-120.84
11
99.5812
21
-120.83
0
LINE
8
Black
10
99.5812
20
-120.83
11
99.5757
21
-120.82
0
LINE
8
Black
10
99.5757
20
-120.82
11
99.5737
21
-120.809
0
LINE
8
Black
10
99.5737
20
-120.809
11
99.5699
21
-120.799
0
LINE
8
Black
10
99.5699
20
-120.799
11
99.5699
21
-120.788
0
LINE
8
Black
10
99.5699
20
-120.788
11
99.568
21
-120.777
0
LINE
8
Black
10
99.568
20
-120.777
11
99.568
21
-31.623
0
LINE
8
Black
10
99.568
20
-31.623
11
99.5699
21
-31.6121
0
LINE
8
Black
10
99.5699
20
-31.6121
11
99.5699
21
-31.6009
0
LINE
8
Black
10
99.5699
20
-31.6009
11
99.5737
21
-31.5905
0
LINE
8
Black
10
99.5737
20
-31.5905
11
99.5757
21
-31.5796
0
LINE
8
Black
10
99.5757
20
-31.5796
11
99.5812
21
-31.5699
0
LINE
8
Black
10
99.5812
20
-31.5699
11
99.585
21
-31.5595
0
LINE
8
Black
10
99.585
20
-31.5595
11
99.5922
21
-31.551
0
LINE
8
Black
10
99.5922
20
-31.551
11
99.5977
21
-31.5414
0
LINE
8
Black
10
99.5977
20
-31.5414
11
99.6062
21
-31.5342
0
LINE
8
Black
10
99.6062
20
-31.5342
11
99.6134
21
-31.5257
0
LINE
8
Black
10
99.6134
20
-31.5257
11
99.623
21
-31.5202
0
LINE
8
Black
10
99.623
20
-31.5202
11
99.6315
21
-31.513
0
LINE
8
Black
10
99.6315
20
-31.513
11
99.6419
21
-31.5092
0
LINE
8
Black
10
99.6419
20
-31.5092
11
99.6516
21
-31.5037
0
LINE
8
Black
10
99.6516
20
-31.5037
11
99.6625
21
-31.5017
0
LINE
8
Black
10
99.6625
20
-31.5017
11
99.6729
21
-31.4979
0
LINE
8
Black
10
99.6729
20
-31.4979
11
99.6841
21
-31.4979
0
LINE
8
Black
10
99.6841
20
-31.4979
11
99.695
21
-31.496
0
LINE
8
Black
10
99.695
20
-31.496
11
128.905
21
-31.496
0
LINE
8
Black
10
128.905
20
-31.496
11
128.916
21
-31.4979
0
LINE
8
Black
10
156.348
20
-69.0899
11
156.359
21
-69.0899
0
LINE
8
Black
10
156.359
20
-69.0899
11
156.369
21
-69.0937
0
LINE
8
Black
10
156.369
20
-69.0937
11
156.38
21
-69.0957
0
LINE
8
Black
10
156.38
20
-69.0957
11
156.39
21
-69.1012
0
LINE
8
Black
10
156.39
20
-69.1012
11
156.4
21
-69.105
0
LINE
8
Black
10
156.4
20
-69.105
11
156.409
21
-69.1122
0
LINE
8
Black
10
156.409
20
-69.1122
11
156.419
21
-69.1177
0
LINE
8
Black
10
156.419
20
-69.1177
11
156.426
21
-69.1262
0
LINE
8
Black
10
156.426
20
-69.1262
11
156.434
21
-69.1334
0
LINE
8
Black
10
156.434
20
-69.1334
11
156.44
21
-69.143
0
LINE
8
Black
10
156.44
20
-69.143
11
156.447
21
-69.1515
0
LINE
8
Black
10
156.447
20
-69.1515
11
156.451
21
-69.1619
0
LINE
8
Black
10
156.451
20
-69.1619
11
156.456
21
-69.1716
0
LINE
8
Black
10
156.456
20
-69.1716
11
156.458
21
-69.1825
0
LINE
8
Black
10
156.458
20
-69.1825
11
156.462
21
-69.1929
0
LINE
8
Black
10
156.462
20
-69.1929
11
156.462
21
-69.2041
0
LINE
8
Black
10
156.462
20
-69.2041
11
156.464
21
-69.215
0
LINE
8
Black
10
156.464
20
-69.215
11
156.464
21
-75.565
0
LINE
8
Black
10
156.464
20
-75.565
11
156.462
21
-75.5759
0
LINE
8
Black
10
156.462
20
-75.5759
11
156.462
21
-75.5871
0
LINE
8
Black
10
156.462
20
-75.5871
11
156.458
21
-75.5975
0
LINE
8
Black
10
156.458
20
-75.5975
11
156.456
21
-75.6084
0
LINE
8
Black
10
156.456
20
-75.6084
11
156.451
21
-75.6181
0
LINE
8
Black
10
156.451
20
-75.6181
11
156.447
21
-75.6285
0
LINE
8
Black
10
156.447
20
-75.6285
11
156.44
21
-75.637
0
LINE
8
Black
10
156.44
20
-75.637
11
156.434
21
-75.6466
0
LINE
8
Black
10
156.434
20
-75.6466
11
156.426
21
-75.6538
0
LINE
8
Black
10
156.426
20
-75.6538
11
156.419
21
-75.6623
0
LINE
8
Black
10
156.419
20
-75.6623
11
156.409
21
-75.6678
0
LINE
8
Black
10
156.409
20
-75.6678
11
156.4
21
-75.675
0
LINE
8
Black
10
156.4
20
-75.675
11
156.39
21
-75.6788
0
LINE
8
Black
10
156.39
20
-75.6788
11
156.38
21
-75.6843
0
LINE
8
Black
10
156.38
20
-75.6843
11
156.369
21
-75.6863
0
LINE
8
Black
10
156.369
20
-75.6863
11
156.359
21
-75.6901
0
LINE
8
Black
10
156.359
20
-75.6901
11
156.348
21
-75.6901
0
LINE
8
Black
10
156.348
20
-75.6901
11
156.337
21
-75.692
0
LINE
8
Black
10
156.337
20
-75.692
11
149.987
21
-75.692
0
LINE
8
Black
10
149.987
20
-75.692
11
149.976
21
-75.6901
0
LINE
8
Black
10
149.976
20
-75.6901
11
149.965
21
-75.6901
0
LINE
8
Black
10
149.965
20
-75.6901
11
149.955
21
-75.6863
0
LINE
8
Black
10
149.955
20
-75.6863
11
149.944
21
-75.6843
0
LINE
8
Black
10
149.944
20
-75.6843
11
149.934
21
-75.6788
0
LINE
8
Black
10
149.934
20
-75.6788
11
149.923
21
-75.675
0
LINE
8
Black
10
149.923
20
-75.675
11
149.915
21
-75.6678
0
LINE
8
Black
10
149.915
20
-75.6678
11
149.905
21
-75.6623
0
LINE
8
Black
10
149.905
20
-75.6623
11
149.898
21
-75.6538
0
LINE
8
Black
10
149.898
20
-75.6538
11
149.89
21
-75.6466
0
LINE
8
Black
10
149.89
20
-75.6466
11
149.884
21
-75.637
0
LINE
8
Black
10
149.884
20
-75.637
11
149.877
21
-75.6285
0
LINE
8
Black
10
149.877
20
-75.6285
11
149.873
21
-75.6181
0
LINE
8
Black
10
149.873
20
-75.6181
11
149.868
21
-75.6084
0
LINE
8
Black
10
149.868
20
-75.6084
11
149.866
21
-75.5975
0
LINE
8
Black
10
149.866
20
-75.5975
11
149.862
21
-75.5871
0
LINE
8
Black
10
149.862
20
-75.5871
11
149.862
21
-75.5759
0
LINE
8
Black
10
149.862
20
-75.5759
11
149.86
21
-75.565
0
LINE
8
Black
10
149.86
20
-75.565
11
149.86
21
-69.215
0
LINE
8
Black
10
149.86
20
-69.215
11
149.862
21
-69.2041
0
LINE
8
Black
10
149.862
20
-69.2041
11
149.862
21
-69.1929
0
LINE
8
Black
10
149.862
20
-69.1929
11
149.866
21
-69.1825
0
LINE
8
Black
10
149.866
20
-69.1825
11
149.868
21
-69.1716
0
LINE
8
Black
10
149.868
20
-69.1716
11
149.873
21
-69.1619
0
LINE
8
Black
10
149.873
20
-69.1619
11
149.877
21
-69.1515
0
LINE
8
Black
10
149.877
20
-69.1515
11
149.884
21
-69.143
0
LINE
8
Black
10
149.884
20
-69.143
11
149.89
21
-69.1334
0
LINE
8
Black
10
149.89
20
-69.1334
11
149.898
21
-69.1262
0
LINE
8
Black
10
149.898
20
-69.1262
11
149.905
21
-69.1177
0
LINE
8
Black
10
149.905
20
-69.1177
11
149.915
21
-69.1122
0
LINE
8
Black
10
149.915
20
-69.1122
11
149.923
21
-69.105
0
LINE
8
Black
10
149.923
20
-69.105
11
149.934
21
-69.1012
0
LINE
8
Black
10
149.934
20
-69.1012
11
149.944
21
-69.0957
0
LINE
8
Black
10
149.944
20
-69.0957
11
149.955
21
-69.0937
0
LINE
8
Black
10
149.955
20
-69.0937
11
149.965
21
-69.0899
0
LINE
8
Black
10
149.965
20
-69.0899
11
149.976
21
-69.0899
0
LINE
8
Black
10
149.976
20
-69.0899
11
149.987
21
-69.088
0
LINE
8
Black
10
149.987
20
-69.088
11
156.337
21
-69.088
0
LINE
8
Black
10
156.337
20
-69.088
11
156.348
21
-69.0899
  0
ENDSEC
  0
EOF
