  0
SECTION
  2
HEADER
  9
$ANGBASE
  50
0.0
  9
$ANGDIR
  70
  1
  9
$MEASUREMENT
  70
0
  0
ENDSEC
  0
SECTION
  2
TABLES
  0
TABLE
  2
LTYPE
  70
1
  0
LTYPE
  2
CONTINUOUS
  70
0
  3
Solid line
  72
65
  73
0
  40
0.0
  0
ENDTAB
  0
TABLE
  2
STYLE
  70
4
  0
STYLE
  2
KICAD
  70
0
  40
0
  41
1
  42
1
  50
0
  71
0
  3
isocp.shx
  0
STYLE
  2
KICADB
  70
0
  40
0
  41
1
  42
1
  50
0
  71
0
  3
isocp.shx
  0
STYLE
  2
KICADI
  70
0
  40
0
  41
1
  42
1
  50
15
  71
0
  3
isocp.shx
  0
STYLE
  2
KICADBI
  70
0
  40
0
  41
1
  42
1
  50
15
  71
0
  3
isocp.shx
  0
ENDTAB
  0
TABLE
  2
LAYER
  70
30
  0
LAYER
  2
BLACK
  70
0
  62
7
  6
CONTINUOUS
  0
LAYER
  2
GRAY1
  70
0
  62
251
  6
CONTINUOUS
  0
LAYER
  2
GRAY2
  70
0
  62
8
  6
CONTINUOUS
  0
LAYER
  2
GRAY3
  70
0
  62
9
  6
CONTINUOUS
  0
LAYER
  2
WHITE
  70
0
  62
7
  6
CONTINUOUS
  0
LAYER
  2
LYELLOW
  70
0
  62
51
  6
CONTINUOUS
  0
LAYER
  2
BLUE1
  70
0
  62
178
  6
CONTINUOUS
  0
LAYER
  2
GREEN1
  70
0
  62
98
  6
CONTINUOUS
  0
LAYER
  2
CYAN1
  70
0
  62
138
  6
CONTINUOUS
  0
LAYER
  2
RED1
  70
0
  62
18
  6
CONTINUOUS
  0
LAYER
  2
MAGENTA1
  70
0
  62
228
  6
CONTINUOUS
  0
LAYER
  2
BROWN1
  70
0
  62
58
  6
CONTINUOUS
  0
LAYER
  2
BLUE2
  70
0
  62
5
  6
CONTINUOUS
  0
LAYER
  2
GREEN2
  70
0
  62
3
  6
CONTINUOUS
  0
LAYER
  2
CYAN2
  70
0
  62
4
  6
CONTINUOUS
  0
LAYER
  2
RED2
  70
0
  62
1
  6
CONTINUOUS
  0
LAYER
  2
MAGENTA2
  70
0
  62
6
  6
CONTINUOUS
  0
LAYER
  2
BROWN2
  70
0
  62
54
  6
CONTINUOUS
  0
LAYER
  2
BLUE3
  70
0
  62
171
  6
CONTINUOUS
  0
LAYER
  2
GREEN3
  70
0
  62
91
  6
CONTINUOUS
  0
LAYER
  2
CYAN3
  70
0
  62
131
  6
CONTINUOUS
  0
LAYER
  2
RED3
  70
0
  62
11
  6
CONTINUOUS
  0
LAYER
  2
MAGENTA3
  70
0
  62
221
  6
CONTINUOUS
  0
LAYER
  2
YELLOW3
  70
0
  62
2
  6
CONTINUOUS
  0
LAYER
  2
BLUE4
  70
0
  62
5
  6
CONTINUOUS
  0
LAYER
  2
GREEN4
  70
0
  62
3
  6
CONTINUOUS
  0
LAYER
  2
CYAN4
  70
0
  62
4
  6
CONTINUOUS
  0
LAYER
  2
RED4
  70
0
  62
1
  6
CONTINUOUS
  0
LAYER
  2
MAGENTA4
  70
0
  62
6
  6
CONTINUOUS
  0
LAYER
  2
YELLOW4
  70
0
  62
2
  6
CONTINUOUS
  0
ENDTAB
  0
ENDSEC
  0
SECTION
  2
ENTITIES
0
LINE
8
Black
10
141.616
20
-28.4499
11
141.627
21
-28.4499
0
LINE
8
Black
10
141.627
20
-28.4499
11
141.637
21
-28.4537
0
LINE
8
Black
10
141.637
20
-28.4537
11
141.648
21
-28.4557
0
LINE
8
Black
10
141.648
20
-28.4557
11
141.658
21
-28.4612
0
LINE
8
Black
10
141.658
20
-28.4612
11
141.668
21
-28.465
0
LINE
8
Black
10
141.668
20
-28.465
11
141.677
21
-28.4722
0
LINE
8
Black
10
141.677
20
-28.4722
11
141.687
21
-28.4777
0
LINE
8
Black
10
141.687
20
-28.4777
11
141.694
21
-28.4862
0
LINE
8
Black
10
141.694
20
-28.4862
11
141.702
21
-28.4934
0
LINE
8
Black
10
141.702
20
-28.4934
11
141.708
21
-28.503
0
LINE
8
Black
10
141.708
20
-28.503
11
141.715
21
-28.5115
0
LINE
8
Black
10
141.715
20
-28.5115
11
141.719
21
-28.5219
0
LINE
8
Black
10
141.719
20
-28.5219
11
141.724
21
-28.5316
0
LINE
8
Black
10
141.724
20
-28.5316
11
141.726
21
-28.5425
0
LINE
8
Black
10
141.726
20
-28.5425
11
141.73
21
-28.5529
0
LINE
8
Black
10
141.73
20
-28.5529
11
141.73
21
-28.5641
0
LINE
8
Black
10
141.73
20
-28.5641
11
141.732
21
-28.575
0
LINE
8
Black
10
141.732
20
-28.575
11
141.732
21
-69.5833
0
LINE
8
Black
10
141.732
20
-69.5833
11
141.734
21
-69.5942
0
LINE
8
Black
10
141.734
20
-69.5942
11
141.744
21
-69.596
0
LINE
8
Black
10
141.744
20
-69.596
11
147.815
21
-69.596
0
LINE
8
Black
10
147.815
20
-69.596
11
147.826
21
-69.5938
0
LINE
8
Black
10
147.826
20
-69.5938
11
147.828
21
-69.5842
0
LINE
8
Black
10
147.828
20
-69.5842
11
147.828
21
-28.575
0
LINE
8
Black
10
147.828
20
-28.575
11
147.83
21
-28.5641
0
LINE
8
Black
10
147.83
20
-28.5641
11
147.83
21
-28.5529
0
LINE
8
Black
10
147.83
20
-28.5529
11
147.834
21
-28.5425
0
LINE
8
Black
10
147.834
20
-28.5425
11
147.836
21
-28.5316
0
LINE
8
Black
10
147.836
20
-28.5316
11
147.841
21
-28.5219
0
LINE
8
Black
10
147.841
20
-28.5219
11
147.845
21
-28.5115
0
LINE
8
Black
10
147.845
20
-28.5115
11
147.852
21
-28.503
0
LINE
8
Black
10
147.852
20
-28.503
11
147.858
21
-28.4934
0
LINE
8
Black
10
147.858
20
-28.4934
11
147.866
21
-28.4862
0
LINE
8
Black
10
147.866
20
-28.4862
11
147.873
21
-28.4777
0
LINE
8
Black
10
147.873
20
-28.4777
11
147.883
21
-28.4722
0
LINE
8
Black
10
147.883
20
-28.4722
11
147.891
21
-28.465
0
LINE
8
Black
10
147.891
20
-28.465
11
147.902
21
-28.4612
0
LINE
8
Black
10
147.902
20
-28.4612
11
147.912
21
-28.4557
0
LINE
8
Black
10
147.912
20
-28.4557
11
147.923
21
-28.4537
0
LINE
8
Black
10
147.923
20
-28.4537
11
147.933
21
-28.4499
0
LINE
8
Black
10
147.933
20
-28.4499
11
147.944
21
-28.4499
0
LINE
8
Black
10
147.944
20
-28.4499
11
147.955
21
-28.448
0
LINE
8
Black
10
147.955
20
-28.448
11
153.797
21
-28.448
0
LINE
8
Black
10
153.797
20
-28.448
11
153.808
21
-28.4499
0
LINE
8
Black
10
153.808
20
-28.4499
11
153.819
21
-28.4499
0
LINE
8
Black
10
153.819
20
-28.4499
11
153.829
21
-28.4537
0
LINE
8
Black
10
153.829
20
-28.4537
11
153.84
21
-28.4557
0
LINE
8
Black
10
153.84
20
-28.4557
11
153.85
21
-28.4612
0
LINE
8
Black
10
153.85
20
-28.4612
11
153.861
21
-28.465
0
LINE
8
Black
10
153.861
20
-28.465
11
153.869
21
-28.4722
0
LINE
8
Black
10
153.869
20
-28.4722
11
153.879
21
-28.4777
0
LINE
8
Black
10
153.879
20
-28.4777
11
153.886
21
-28.4862
0
LINE
8
Black
10
153.886
20
-28.4862
11
153.894
21
-28.4934
0
LINE
8
Black
10
153.894
20
-28.4934
11
153.9
21
-28.503
0
LINE
8
Black
10
153.9
20
-28.503
11
153.907
21
-28.5115
0
LINE
8
Black
10
153.907
20
-28.5115
11
153.911
21
-28.5219
0
LINE
8
Black
10
153.911
20
-28.5219
11
153.916
21
-28.5316
0
LINE
8
Black
10
153.916
20
-28.5316
11
153.918
21
-28.5425
0
LINE
8
Black
10
153.918
20
-28.5425
11
153.922
21
-28.5529
0
LINE
8
Black
10
153.922
20
-28.5529
11
153.922
21
-28.5641
0
LINE
8
Black
10
153.922
20
-28.5641
11
153.924
21
-28.575
0
LINE
8
Black
10
153.924
20
-28.575
11
153.924
21
-31.4833
0
LINE
8
Black
10
153.924
20
-31.4833
11
153.926
21
-31.4942
0
LINE
8
Black
10
153.926
20
-31.4942
11
153.936
21
-31.496
0
LINE
8
Black
10
153.936
20
-31.496
11
173.101
21
-31.496
0
LINE
8
Black
10
173.101
20
-31.496
11
173.112
21
-31.4979
0
LINE
8
Black
10
173.112
20
-31.4979
11
173.123
21
-31.4979
0
LINE
8
Black
10
173.123
20
-31.4979
11
173.133
21
-31.5017
0
LINE
8
Black
10
173.133
20
-31.5017
11
173.144
21
-31.5037
0
LINE
8
Black
10
173.144
20
-31.5037
11
173.154
21
-31.5092
0
LINE
8
Black
10
173.154
20
-31.5092
11
173.165
21
-31.513
0
LINE
8
Black
10
173.165
20
-31.513
11
173.173
21
-31.5202
0
LINE
8
Black
10
173.173
20
-31.5202
11
173.183
21
-31.5257
0
LINE
8
Black
10
173.183
20
-31.5257
11
173.19
21
-31.5342
0
LINE
8
Black
10
173.19
20
-31.5342
11
173.198
21
-31.5414
0
LINE
8
Black
10
173.198
20
-31.5414
11
173.204
21
-31.551
0
LINE
8
Black
10
173.204
20
-31.551
11
173.211
21
-31.5595
0
LINE
8
Black
10
173.211
20
-31.5595
11
173.215
21
-31.5699
0
LINE
8
Black
10
173.215
20
-31.5699
11
173.22
21
-31.5796
0
LINE
8
Black
10
173.22
20
-31.5796
11
173.222
21
-31.5905
0
LINE
8
Black
10
173.222
20
-31.5905
11
173.226
21
-31.6009
0
LINE
8
Black
10
173.226
20
-31.6009
11
173.226
21
-31.6121
0
LINE
8
Black
10
173.226
20
-31.6121
11
173.228
21
-31.623
0
LINE
8
Black
10
173.228
20
-31.623
11
173.228
21
-120.777
0
LINE
8
Black
10
173.228
20
-120.777
11
173.226
21
-120.788
0
LINE
8
Black
10
173.226
20
-120.788
11
173.226
21
-120.799
0
LINE
8
Black
10
173.226
20
-120.799
11
173.222
21
-120.809
0
LINE
8
Black
10
173.222
20
-120.809
11
173.22
21
-120.82
0
LINE
8
Black
10
173.22
20
-120.82
11
173.215
21
-120.83
0
LINE
8
Black
10
173.215
20
-120.83
11
173.211
21
-120.84
0
LINE
8
Black
10
173.211
20
-120.84
11
173.204
21
-120.849
0
LINE
8
Black
10
173.204
20
-120.849
11
173.198
21
-120.859
0
LINE
8
Black
10
173.198
20
-120.859
11
173.19
21
-120.866
0
LINE
8
Black
10
173.19
20
-120.866
11
173.183
21
-120.874
0
LINE
8
Black
10
173.183
20
-120.874
11
173.173
21
-120.88
0
LINE
8
Black
10
173.173
20
-120.88
11
173.165
21
-120.887
0
LINE
8
Black
10
173.165
20
-120.887
11
173.154
21
-120.891
0
LINE
8
Black
10
173.154
20
-120.891
11
173.144
21
-120.896
0
LINE
8
Black
10
173.144
20
-120.896
11
173.133
21
-120.898
0
LINE
8
Black
10
173.133
20
-120.898
11
173.123
21
-120.902
0
LINE
8
Black
10
173.123
20
-120.902
11
173.112
21
-120.902
0
LINE
8
Black
10
173.112
20
-120.902
11
173.101
21
-120.904
0
LINE
8
Black
10
173.101
20
-120.904
11
157.493
21
-120.904
0
LINE
8
Black
10
157.493
20
-120.904
11
157.482
21
-120.906
0
LINE
8
Black
10
157.482
20
-120.906
11
157.48
21
-120.916
0
LINE
8
Black
10
157.48
20
-120.916
11
157.48
21
-125.857
0
LINE
8
Black
10
157.48
20
-125.857
11
157.478
21
-125.868
0
LINE
8
Black
10
157.478
20
-125.868
11
157.478
21
-125.879
0
LINE
8
Black
10
157.478
20
-125.879
11
157.474
21
-125.889
0
LINE
8
Black
10
157.474
20
-125.889
11
157.472
21
-125.9
0
LINE
8
Black
10
157.472
20
-125.9
11
157.467
21
-125.91
0
LINE
8
Black
10
157.467
20
-125.91
11
157.463
21
-125.92
0
LINE
8
Black
10
157.463
20
-125.92
11
157.456
21
-125.929
0
LINE
8
Black
10
157.456
20
-125.929
11
157.45
21
-125.939
0
LINE
8
Black
10
157.45
20
-125.939
11
157.442
21
-125.946
0
LINE
8
Black
10
157.442
20
-125.946
11
157.435
21
-125.954
0
LINE
8
Black
10
157.435
20
-125.954
11
157.425
21
-125.96
0
LINE
8
Black
10
157.425
20
-125.96
11
157.416
21
-125.967
0
LINE
8
Black
10
157.416
20
-125.967
11
157.406
21
-125.971
0
LINE
8
Black
10
157.406
20
-125.971
11
157.396
21
-125.976
0
LINE
8
Black
10
157.396
20
-125.976
11
157.385
21
-125.978
0
LINE
8
Black
10
157.385
20
-125.978
11
157.375
21
-125.982
0
LINE
8
Black
10
157.375
20
-125.982
11
157.364
21
-125.982
0
LINE
8
Black
10
157.364
20
-125.982
11
157.353
21
-125.984
0
LINE
8
Black
10
157.353
20
-125.984
11
142.367
21
-125.984
0
LINE
8
Black
10
142.367
20
-125.984
11
142.356
21
-125.982
0
LINE
8
Black
10
142.356
20
-125.982
11
142.345
21
-125.982
0
LINE
8
Black
10
142.345
20
-125.982
11
142.335
21
-125.978
0
LINE
8
Black
10
142.335
20
-125.978
11
142.324
21
-125.976
0
LINE
8
Black
10
142.324
20
-125.976
11
142.314
21
-125.971
0
LINE
8
Black
10
142.314
20
-125.971
11
142.303
21
-125.967
0
LINE
8
Black
10
142.303
20
-125.967
11
142.295
21
-125.96
0
LINE
8
Black
10
142.295
20
-125.96
11
142.285
21
-125.954
0
LINE
8
Black
10
142.285
20
-125.954
11
142.278
21
-125.946
0
LINE
8
Black
10
142.278
20
-125.946
11
142.27
21
-125.939
0
LINE
8
Black
10
142.27
20
-125.939
11
142.264
21
-125.929
0
LINE
8
Black
10
142.264
20
-125.929
11
142.257
21
-125.92
0
LINE
8
Black
10
142.257
20
-125.92
11
142.253
21
-125.91
0
LINE
8
Black
10
142.253
20
-125.91
11
142.248
21
-125.9
0
LINE
8
Black
10
142.248
20
-125.9
11
142.246
21
-125.889
0
LINE
8
Black
10
142.246
20
-125.889
11
142.242
21
-125.879
0
LINE
8
Black
10
142.242
20
-125.879
11
142.242
21
-125.868
0
LINE
8
Black
10
142.242
20
-125.868
11
142.24
21
-125.857
0
LINE
8
Black
10
142.24
20
-125.857
11
142.24
21
-120.917
0
LINE
8
Black
10
142.24
20
-120.917
11
142.238
21
-120.906
0
LINE
8
Black
10
142.238
20
-120.906
11
142.228
21
-120.904
0
LINE
8
Black
10
142.228
20
-120.904
11
99.695
21
-120.904
0
LINE
8
Black
10
99.695
20
-120.904
11
99.6841
21
-120.902
0
LINE
8
Black
10
99.6841
20
-120.902
11
99.6729
21
-120.902
0
LINE
8
Black
10
99.6729
20
-120.902
11
99.6625
21
-120.898
0
LINE
8
Black
10
99.6625
20
-120.898
11
99.6516
21
-120.896
0
LINE
8
Black
10
99.6516
20
-120.896
11
99.6419
21
-120.891
0
LINE
8
Black
10
99.6419
20
-120.891
11
99.6315
21
-120.887
0
LINE
8
Black
10
99.6315
20
-120.887
11
99.623
21
-120.88
0
LINE
8
Black
10
99.623
20
-120.88
11
99.6134
21
-120.874
0
LINE
8
Black
10
99.6134
20
-120.874
11
99.6062
21
-120.866
0
LINE
8
Black
10
99.6062
20
-120.866
11
99.5977
21
-120.859
0
LINE
8
Black
10
99.5977
20
-120.859
11
99.5922
21
-120.849
0
LINE
8
Black
10
99.5922
20
-120.849
11
99.585
21
-120.84
0
LINE
8
Black
10
99.585
20
-120.84
11
99.5812
21
-120.83
0
LINE
8
Black
10
99.5812
20
-120.83
11
99.5757
21
-120.82
0
LINE
8
Black
10
99.5757
20
-120.82
11
99.5737
21
-120.809
0
LINE
8
Black
10
99.5737
20
-120.809
11
99.5699
21
-120.799
0
LINE
8
Black
10
99.5699
20
-120.799
11
99.5699
21
-120.788
0
LINE
8
Black
10
99.5699
20
-120.788
11
99.568
21
-120.777
0
LINE
8
Black
10
99.568
20
-120.777
11
99.568
21
-31.623
0
LINE
8
Black
10
99.568
20
-31.623
11
99.5699
21
-31.6121
0
LINE
8
Black
10
99.5699
20
-31.6121
11
99.5699
21
-31.6009
0
LINE
8
Black
10
99.5699
20
-31.6009
11
99.5737
21
-31.5905
0
LINE
8
Black
10
99.5737
20
-31.5905
11
99.5757
21
-31.5796
0
LINE
8
Black
10
99.5757
20
-31.5796
11
99.5812
21
-31.5699
0
LINE
8
Black
10
99.5812
20
-31.5699
11
99.585
21
-31.5595
0
LINE
8
Black
10
99.585
20
-31.5595
11
99.5922
21
-31.551
0
LINE
8
Black
10
99.5922
20
-31.551
11
99.5977
21
-31.5414
0
LINE
8
Black
10
99.5977
20
-31.5414
11
99.6062
21
-31.5342
0
LINE
8
Black
10
99.6062
20
-31.5342
11
99.6134
21
-31.5257
0
LINE
8
Black
10
99.6134
20
-31.5257
11
99.623
21
-31.5202
0
LINE
8
Black
10
99.623
20
-31.5202
11
99.6315
21
-31.513
0
LINE
8
Black
10
99.6315
20
-31.513
11
99.6419
21
-31.5092
0
LINE
8
Black
10
99.6419
20
-31.5092
11
99.6516
21
-31.5037
0
LINE
8
Black
10
99.6516
20
-31.5037
11
99.6625
21
-31.5017
0
LINE
8
Black
10
99.6625
20
-31.5017
11
99.6729
21
-31.4979
0
LINE
8
Black
10
99.6729
20
-31.4979
11
99.6841
21
-31.4979
0
LINE
8
Black
10
99.6841
20
-31.4979
11
99.695
21
-31.496
0
LINE
8
Black
10
99.695
20
-31.496
11
135.623
21
-31.496
0
LINE
8
Black
10
135.623
20
-31.496
11
135.634
21
-31.4938
0
LINE
8
Black
10
135.634
20
-31.4938
11
135.636
21
-31.4842
0
LINE
8
Black
10
135.636
20
-31.4842
11
135.636
21
-28.575
0
LINE
8
Black
10
135.636
20
-28.575
11
135.638
21
-28.5641
0
LINE
8
Black
10
135.638
20
-28.5641
11
135.638
21
-28.5529
0
LINE
8
Black
10
135.638
20
-28.5529
11
135.642
21
-28.5425
0
LINE
8
Black
10
135.642
20
-28.5425
11
135.644
21
-28.5316
0
LINE
8
Black
10
135.644
20
-28.5316
11
135.649
21
-28.5219
0
LINE
8
Black
10
135.649
20
-28.5219
11
135.653
21
-28.5115
0
LINE
8
Black
10
135.653
20
-28.5115
11
135.66
21
-28.503
0
LINE
8
Black
10
135.66
20
-28.503
11
135.666
21
-28.4934
0
LINE
8
Black
10
135.666
20
-28.4934
11
135.674
21
-28.4862
0
LINE
8
Black
10
135.674
20
-28.4862
11
135.681
21
-28.4777
0
LINE
8
Black
10
135.681
20
-28.4777
11
135.691
21
-28.4722
0
LINE
8
Black
10
135.691
20
-28.4722
11
135.7
21
-28.465
0
LINE
8
Black
10
135.7
20
-28.465
11
135.71
21
-28.4612
0
LINE
8
Black
10
135.71
20
-28.4612
11
135.72
21
-28.4557
0
LINE
8
Black
10
135.72
20
-28.4557
11
135.731
21
-28.4537
0
LINE
8
Black
10
135.731
20
-28.4537
11
135.741
21
-28.4499
0
LINE
8
Black
10
135.741
20
-28.4499
11
135.752
21
-28.4499
0
LINE
8
Black
10
135.752
20
-28.4499
11
135.763
21
-28.448
0
LINE
8
Black
10
135.763
20
-28.448
11
141.605
21
-28.448
0
LINE
8
Black
10
141.605
20
-28.448
11
141.616
21
-28.4499
0
LINE
8
Black
10
176.793
20
-25.3015
11
176.801
21
-25.3015
0
LINE
8
Black
10
176.801
20
-25.3015
11
176.81
21
-25.3045
0
LINE
8
Black
10
176.81
20
-25.3045
11
176.818
21
-25.306
0
LINE
8
Black
10
176.818
20
-25.306
11
176.826
21
-25.3104
0
LINE
8
Black
10
176.826
20
-25.3104
11
176.834
21
-25.3134
0
LINE
8
Black
10
176.834
20
-25.3134
11
176.841
21
-25.319
0
LINE
8
Black
10
176.841
20
-25.319
11
176.848
21
-25.3234
0
LINE
8
Black
10
176.848
20
-25.3234
11
176.854
21
-25.3301
0
LINE
8
Black
10
176.854
20
-25.3301
11
176.861
21
-25.3357
0
LINE
8
Black
10
176.861
20
-25.3357
11
176.865
21
-25.3433
0
LINE
8
Black
10
176.865
20
-25.3433
11
176.871
21
-25.35
0
LINE
8
Black
10
176.871
20
-25.35
11
176.874
21
-25.3582
0
LINE
8
Black
10
176.874
20
-25.3582
11
176.878
21
-25.3658
0
LINE
8
Black
10
176.878
20
-25.3658
11
176.879
21
-25.3744
0
LINE
8
Black
10
176.879
20
-25.3744
11
176.882
21
-25.3826
0
LINE
8
Black
10
176.882
20
-25.3826
11
176.882
21
-25.3914
0
LINE
8
Black
10
176.882
20
-25.3914
11
176.884
21
-25.4
0
LINE
8
Black
10
176.884
20
-25.4
11
176.884
21
-27.94
0
LINE
8
Black
10
176.884
20
-27.94
11
176.882
21
-27.9486
0
LINE
8
Black
10
176.882
20
-27.9486
11
176.882
21
-27.9574
0
LINE
8
Black
10
176.882
20
-27.9574
11
176.879
21
-27.9656
0
LINE
8
Black
10
176.879
20
-27.9656
11
176.878
21
-27.9742
0
LINE
8
Black
10
176.878
20
-27.9742
11
176.874
21
-27.9818
0
LINE
8
Black
10
176.874
20
-27.9818
11
176.871
21
-27.99
0
LINE
8
Black
10
176.871
20
-27.99
11
176.865
21
-27.9967
0
LINE
8
Black
10
176.865
20
-27.9967
11
176.861
21
-28.0043
0
LINE
8
Black
10
176.861
20
-28.0043
11
176.854
21
-28.0099
0
LINE
8
Black
10
176.854
20
-28.0099
11
176.848
21
-28.0166
0
LINE
8
Black
10
176.848
20
-28.0166
11
176.841
21
-28.021
0
LINE
8
Black
10
176.841
20
-28.021
11
176.834
21
-28.0266
0
LINE
8
Black
10
176.834
20
-28.0266
11
176.826
21
-28.0296
0
LINE
8
Black
10
176.826
20
-28.0296
11
176.818
21
-28.034
0
LINE
8
Black
10
176.818
20
-28.034
11
176.81
21
-28.0355
0
LINE
8
Black
10
176.81
20
-28.0355
11
176.801
21
-28.0385
0
LINE
8
Black
10
176.801
20
-28.0385
11
176.793
21
-28.0385
0
LINE
8
Black
10
176.793
20
-28.0385
11
176.784
21
-28.04
0
LINE
8
Black
10
176.784
20
-28.04
11
155.956
21
-28.04
0
LINE
8
Black
10
155.956
20
-28.04
11
155.947
21
-28.0385
0
LINE
8
Black
10
155.947
20
-28.0385
11
155.939
21
-28.0385
0
LINE
8
Black
10
155.939
20
-28.0385
11
155.93
21
-28.0355
0
LINE
8
Black
10
155.93
20
-28.0355
11
155.922
21
-28.034
0
LINE
8
Black
10
155.922
20
-28.034
11
155.914
21
-28.0296
0
LINE
8
Black
10
155.914
20
-28.0296
11
155.906
21
-28.0266
0
LINE
8
Black
10
155.906
20
-28.0266
11
155.899
21
-28.021
0
LINE
8
Black
10
155.899
20
-28.021
11
155.892
21
-28.0166
0
LINE
8
Black
10
155.892
20
-28.0166
11
155.886
21
-28.0099
0
LINE
8
Black
10
155.886
20
-28.0099
11
155.879
21
-28.0043
0
LINE
8
Black
10
155.879
20
-28.0043
11
155.875
21
-27.9967
0
LINE
8
Black
10
155.875
20
-27.9967
11
155.869
21
-27.99
0
LINE
8
Black
10
155.869
20
-27.99
11
155.866
21
-27.9818
0
LINE
8
Black
10
155.866
20
-27.9818
11
155.862
21
-27.9742
0
LINE
8
Black
10
155.862
20
-27.9742
11
155.861
21
-27.9656
0
LINE
8
Black
10
155.861
20
-27.9656
11
155.858
21
-27.9574
0
LINE
8
Black
10
155.858
20
-27.9574
11
155.858
21
-27.9486
0
LINE
8
Black
10
155.858
20
-27.9486
11
155.856
21
-27.94
0
LINE
8
Black
10
155.856
20
-27.94
11
155.856
21
-25.4
0
LINE
8
Black
10
155.856
20
-25.4
11
155.858
21
-25.3914
0
LINE
8
Black
10
155.858
20
-25.3914
11
155.858
21
-25.3826
0
LINE
8
Black
10
155.858
20
-25.3826
11
155.861
21
-25.3744
0
LINE
8
Black
10
155.861
20
-25.3744
11
155.862
21
-25.3658
0
LINE
8
Black
10
155.862
20
-25.3658
11
155.866
21
-25.3582
0
LINE
8
Black
10
155.866
20
-25.3582
11
155.869
21
-25.35
0
LINE
8
Black
10
155.869
20
-25.35
11
155.875
21
-25.3433
0
LINE
8
Black
10
155.875
20
-25.3433
11
155.879
21
-25.3357
0
LINE
8
Black
10
155.879
20
-25.3357
11
155.886
21
-25.3301
0
LINE
8
Black
10
155.886
20
-25.3301
11
155.892
21
-25.3234
0
LINE
8
Black
10
155.892
20
-25.3234
11
155.899
21
-25.319
0
LINE
8
Black
10
155.899
20
-25.319
11
155.906
21
-25.3134
0
LINE
8
Black
10
155.906
20
-25.3134
11
155.914
21
-25.3104
0
LINE
8
Black
10
155.914
20
-25.3104
11
155.922
21
-25.306
0
LINE
8
Black
10
155.922
20
-25.306
11
155.93
21
-25.3045
0
LINE
8
Black
10
155.93
20
-25.3045
11
155.939
21
-25.3015
0
LINE
8
Black
10
155.939
20
-25.3015
11
155.947
21
-25.3015
0
LINE
8
Black
10
155.947
20
-25.3015
11
155.956
21
-25.3
0
LINE
8
Black
10
155.956
20
-25.3
11
176.784
21
-25.3
0
LINE
8
Black
10
176.784
20
-25.3
11
176.793
21
-25.3015
  0
ENDSEC
  0
EOF
