  0
SECTION
  2
HEADER
  9
$ANGBASE
  50
0.0
  9
$ANGDIR
  70
  1
  9
$MEASUREMENT
  70
0
  0
ENDSEC
  0
SECTION
  2
TABLES
  0
TABLE
  2
LTYPE
  70
4
  0
LTYPE
  5
40F
  2
CONTINUOUS
  70
0
  3
Solid line
  72
65
  73
0
  40
0.0
  0
LTYPE
  5
410
  2
DASHDOT
 70
0
  3
Dash Dot ____ _ ____ _
 72
65
 73
4
 40
2.0
 49
1.25
 49
-0.25
 49
0.25
 49
-0.25
  0
LTYPE
  5
411
  2
DASHED
 70
0
  3
Dashed __ __ __ __ __
 72
65
 73
2
 40
0.75
 49
0.5
 49
-0.25
  0
LTYPE
  5
43B
  2
DOTTED
 70
0
  3
Dotted .  .  .  .
 72
65
 73
2
 40
0.2
 49
0.0
 49
-0.2
  0
ENDTAB
  0
TABLE
  2
STYLE
  70
4
  0
STYLE
  2
KICAD
  70
0
  40
0
  41
1
  42
1
  50
0
  71
0
  3
isocp.shx
  0
STYLE
  2
KICADB
  70
0
  40
0
  41
1
  42
1
  50
0
  71
0
  3
isocp.shx
  0
STYLE
  2
KICADI
  70
0
  40
0
  41
1
  42
1
  50
15
  71
0
  3
isocp.shx
  0
STYLE
  2
KICADBI
  70
0
  40
0
  41
1
  42
1
  50
15
  71
0
  3
isocp.shx
  0
ENDTAB
  0
TABLE
  2
LAYER
  70
30
  0
LAYER
  2
BLACK
  70
0
  62
7
  6
CONTINUOUS
  0
LAYER
  2
GRAY1
  70
0
  62
251
  6
CONTINUOUS
  0
LAYER
  2
GRAY2
  70
0
  62
8
  6
CONTINUOUS
  0
LAYER
  2
GRAY3
  70
0
  62
9
  6
CONTINUOUS
  0
LAYER
  2
WHITE
  70
0
  62
7
  6
CONTINUOUS
  0
LAYER
  2
LYELLOW
  70
0
  62
51
  6
CONTINUOUS
  0
LAYER
  2
BLUE1
  70
0
  62
178
  6
CONTINUOUS
  0
LAYER
  2
GREEN1
  70
0
  62
98
  6
CONTINUOUS
  0
LAYER
  2
CYAN1
  70
0
  62
138
  6
CONTINUOUS
  0
LAYER
  2
RED1
  70
0
  62
18
  6
CONTINUOUS
  0
LAYER
  2
MAGENTA1
  70
0
  62
228
  6
CONTINUOUS
  0
LAYER
  2
BROWN1
  70
0
  62
58
  6
CONTINUOUS
  0
LAYER
  2
BLUE2
  70
0
  62
5
  6
CONTINUOUS
  0
LAYER
  2
GREEN2
  70
0
  62
3
  6
CONTINUOUS
  0
LAYER
  2
CYAN2
  70
0
  62
4
  6
CONTINUOUS
  0
LAYER
  2
RED2
  70
0
  62
1
  6
CONTINUOUS
  0
LAYER
  2
MAGENTA2
  70
0
  62
6
  6
CONTINUOUS
  0
LAYER
  2
BROWN2
  70
0
  62
54
  6
CONTINUOUS
  0
LAYER
  2
BLUE3
  70
0
  62
171
  6
CONTINUOUS
  0
LAYER
  2
GREEN3
  70
0
  62
91
  6
CONTINUOUS
  0
LAYER
  2
CYAN3
  70
0
  62
131
  6
CONTINUOUS
  0
LAYER
  2
RED3
  70
0
  62
11
  6
CONTINUOUS
  0
LAYER
  2
MAGENTA3
  70
0
  62
221
  6
CONTINUOUS
  0
LAYER
  2
YELLOW3
  70
0
  62
2
  6
CONTINUOUS
  0
LAYER
  2
BLUE4
  70
0
  62
5
  6
CONTINUOUS
  0
LAYER
  2
GREEN4
  70
0
  62
3
  6
CONTINUOUS
  0
LAYER
  2
CYAN4
  70
0
  62
4
  6
CONTINUOUS
  0
LAYER
  2
RED4
  70
0
  62
1
  6
CONTINUOUS
  0
LAYER
  2
MAGENTA4
  70
0
  62
6
  6
CONTINUOUS
  0
LAYER
  2
YELLOW4
  70
0
  62
2
  6
CONTINUOUS
  0
ENDTAB
  0
ENDSEC
  0
SECTION
  2
ENTITIES
0
LINE
8
BLACK
6
CONTINUOUS
10
141.606
20
-28.448
11
141.606
21
-28.448
0
LINE
8
BLACK
6
CONTINUOUS
10
141.606
20
-28.448
11
141.606
21
-28.448
0
LINE
8
BLACK
6
CONTINUOUS
10
141.606
20
-28.448
11
141.607
21
-28.448
0
LINE
8
BLACK
6
CONTINUOUS
10
141.607
20
-28.448
11
141.619
21
-28.4493
0
LINE
8
BLACK
6
CONTINUOUS
10
141.619
20
-28.4493
11
141.631
21
-28.4506
0
LINE
8
BLACK
6
CONTINUOUS
10
141.631
20
-28.4506
11
141.631
21
-28.4507
0
LINE
8
BLACK
6
CONTINUOUS
10
141.631
20
-28.4507
11
141.631
21
-28.4508
0
LINE
8
BLACK
6
CONTINUOUS
10
141.631
20
-28.4508
11
141.643
21
-28.4544
0
LINE
8
BLACK
6
CONTINUOUS
10
141.643
20
-28.4544
11
141.654
21
-28.4579
0
LINE
8
BLACK
6
CONTINUOUS
10
141.654
20
-28.4579
11
141.655
21
-28.4581
0
LINE
8
BLACK
6
CONTINUOUS
10
141.655
20
-28.4581
11
141.655
21
-28.4583
0
LINE
8
BLACK
6
CONTINUOUS
10
141.655
20
-28.4583
11
141.665
21
-28.464
0
LINE
8
BLACK
6
CONTINUOUS
10
141.665
20
-28.464
11
141.676
21
-28.4697
0
LINE
8
BLACK
6
CONTINUOUS
10
141.676
20
-28.4697
11
141.676
21
-28.47
0
LINE
8
BLACK
6
CONTINUOUS
10
141.676
20
-28.47
11
141.677
21
-28.4702
0
LINE
8
BLACK
6
CONTINUOUS
10
141.677
20
-28.4702
11
141.686
21
-28.4779
0
LINE
8
BLACK
6
CONTINUOUS
10
141.686
20
-28.4779
11
141.695
21
-28.4855
0
LINE
8
BLACK
6
CONTINUOUS
10
141.695
20
-28.4855
11
141.695
21
-28.4859
0
LINE
8
BLACK
6
CONTINUOUS
10
141.695
20
-28.4859
11
141.696
21
-28.4861
0
LINE
8
BLACK
6
CONTINUOUS
10
141.696
20
-28.4861
11
141.703
21
-28.4955
0
LINE
8
BLACK
6
CONTINUOUS
10
141.703
20
-28.4955
11
141.711
21
-28.5047
0
LINE
8
BLACK
6
CONTINUOUS
10
141.711
20
-28.5047
11
141.711
21
-28.5051
0
LINE
8
BLACK
6
CONTINUOUS
10
141.711
20
-28.5051
11
141.711
21
-28.5055
0
LINE
8
BLACK
6
CONTINUOUS
10
141.711
20
-28.5055
11
141.717
21
-28.5161
0
LINE
8
BLACK
6
CONTINUOUS
10
141.717
20
-28.5161
11
141.722
21
-28.5266
0
LINE
8
BLACK
6
CONTINUOUS
10
141.722
20
-28.5266
11
141.723
21
-28.527
0
LINE
8
BLACK
6
CONTINUOUS
10
141.723
20
-28.527
11
141.723
21
-28.5274
0
LINE
8
BLACK
6
CONTINUOUS
10
141.723
20
-28.5274
11
141.726
21
-28.5389
0
LINE
8
BLACK
6
CONTINUOUS
10
141.726
20
-28.5389
11
141.73
21
-28.5503
0
LINE
8
BLACK
6
CONTINUOUS
10
141.73
20
-28.5503
11
141.73
21
-28.5508
0
LINE
8
BLACK
6
CONTINUOUS
10
141.73
20
-28.5508
11
141.73
21
-28.5512
0
LINE
8
BLACK
6
CONTINUOUS
10
141.73
20
-28.5512
11
141.731
21
-28.5631
0
LINE
8
BLACK
6
CONTINUOUS
10
141.731
20
-28.5631
11
141.732
21
-28.575
0
LINE
8
BLACK
6
CONTINUOUS
10
141.732
20
-28.575
11
141.732
21
-68.3198
0
LINE
8
BLACK
6
CONTINUOUS
10
141.732
20
-68.3198
11
141.733
21
-68.3254
0
LINE
8
BLACK
6
CONTINUOUS
10
141.733
20
-68.3254
11
141.738
21
-68.326
0
LINE
8
BLACK
6
CONTINUOUS
10
141.738
20
-68.326
11
147.822
21
-68.326
0
LINE
8
BLACK
6
CONTINUOUS
10
147.822
20
-68.326
11
147.827
21
-68.3254
0
LINE
8
BLACK
6
CONTINUOUS
10
147.827
20
-68.3254
11
147.828
21
-68.3198
0
LINE
8
BLACK
6
CONTINUOUS
10
147.828
20
-68.3198
11
147.828
21
-28.575
0
LINE
8
BLACK
6
CONTINUOUS
10
147.828
20
-28.575
11
147.828
21
-28.5741
0
LINE
8
BLACK
6
CONTINUOUS
10
147.828
20
-28.5741
11
147.828
21
-28.5741
0
LINE
8
BLACK
6
CONTINUOUS
10
147.828
20
-28.5741
11
147.828
21
-28.5741
0
LINE
8
BLACK
6
CONTINUOUS
10
147.828
20
-28.5741
11
147.828
21
-28.5732
0
LINE
8
BLACK
6
CONTINUOUS
10
147.828
20
-28.5732
11
147.829
21
-28.5613
0
LINE
8
BLACK
6
CONTINUOUS
10
147.829
20
-28.5613
11
147.831
21
-28.5495
0
LINE
8
BLACK
6
CONTINUOUS
10
147.831
20
-28.5495
11
147.831
21
-28.549
0
LINE
8
BLACK
6
CONTINUOUS
10
147.831
20
-28.549
11
147.831
21
-28.5486
0
LINE
8
BLACK
6
CONTINUOUS
10
147.831
20
-28.5486
11
147.834
21
-28.5372
0
LINE
8
BLACK
6
CONTINUOUS
10
147.834
20
-28.5372
11
147.838
21
-28.5258
0
LINE
8
BLACK
6
CONTINUOUS
10
147.838
20
-28.5258
11
147.838
21
-28.5254
0
LINE
8
BLACK
6
CONTINUOUS
10
147.838
20
-28.5254
11
147.838
21
-28.525
0
LINE
8
BLACK
6
CONTINUOUS
10
147.838
20
-28.525
11
147.844
21
-28.5145
0
LINE
8
BLACK
6
CONTINUOUS
10
147.844
20
-28.5145
11
147.85
21
-28.504
0
LINE
8
BLACK
6
CONTINUOUS
10
147.85
20
-28.504
11
147.85
21
-28.5036
0
LINE
8
BLACK
6
CONTINUOUS
10
147.85
20
-28.5036
11
147.85
21
-28.5032
0
LINE
8
BLACK
6
CONTINUOUS
10
147.85
20
-28.5032
11
147.858
21
-28.4941
0
LINE
8
BLACK
6
CONTINUOUS
10
147.858
20
-28.4941
11
147.866
21
-28.4849
0
LINE
8
BLACK
6
CONTINUOUS
10
147.866
20
-28.4849
11
147.866
21
-28.4846
0
LINE
8
BLACK
6
CONTINUOUS
10
147.866
20
-28.4846
11
147.866
21
-28.4843
0
LINE
8
BLACK
6
CONTINUOUS
10
147.866
20
-28.4843
11
147.875
21
-28.4768
0
LINE
8
BLACK
6
CONTINUOUS
10
147.875
20
-28.4768
11
147.885
21
-28.4692
0
LINE
8
BLACK
6
CONTINUOUS
10
147.885
20
-28.4692
11
147.885
21
-28.469
0
LINE
8
BLACK
6
CONTINUOUS
10
147.885
20
-28.469
11
147.885
21
-28.4687
0
LINE
8
BLACK
6
CONTINUOUS
10
147.885
20
-28.4687
11
147.896
21
-28.4632
0
LINE
8
BLACK
6
CONTINUOUS
10
147.896
20
-28.4632
11
147.907
21
-28.4576
0
LINE
8
BLACK
6
CONTINUOUS
10
147.907
20
-28.4576
11
147.907
21
-28.4575
0
LINE
8
BLACK
6
CONTINUOUS
10
147.907
20
-28.4575
11
147.907
21
-28.4572
0
LINE
8
BLACK
6
CONTINUOUS
10
147.907
20
-28.4572
11
147.919
21
-28.4539
0
LINE
8
BLACK
6
CONTINUOUS
10
147.919
20
-28.4539
11
147.93
21
-28.4504
0
LINE
8
BLACK
6
CONTINUOUS
10
147.93
20
-28.4504
11
147.931
21
-28.4504
0
LINE
8
BLACK
6
CONTINUOUS
10
147.931
20
-28.4504
11
147.931
21
-28.4503
0
LINE
8
BLACK
6
CONTINUOUS
10
147.931
20
-28.4503
11
147.943
21
-28.4492
0
LINE
8
BLACK
6
CONTINUOUS
10
147.943
20
-28.4492
11
147.955
21
-28.448
0
LINE
8
BLACK
6
CONTINUOUS
10
147.955
20
-28.448
11
156.337
21
-28.448
0
LINE
8
BLACK
6
CONTINUOUS
10
156.337
20
-28.448
11
156.338
21
-28.448
0
LINE
8
BLACK
6
CONTINUOUS
10
156.338
20
-28.448
11
156.338
21
-28.448
0
LINE
8
BLACK
6
CONTINUOUS
10
156.338
20
-28.448
11
156.338
21
-28.448
0
LINE
8
BLACK
6
CONTINUOUS
10
156.338
20
-28.448
11
156.339
21
-28.448
0
LINE
8
BLACK
6
CONTINUOUS
10
156.339
20
-28.448
11
156.351
21
-28.4493
0
LINE
8
BLACK
6
CONTINUOUS
10
156.351
20
-28.4493
11
156.363
21
-28.4506
0
LINE
8
BLACK
6
CONTINUOUS
10
156.363
20
-28.4506
11
156.363
21
-28.4507
0
LINE
8
BLACK
6
CONTINUOUS
10
156.363
20
-28.4507
11
156.363
21
-28.4508
0
LINE
8
BLACK
6
CONTINUOUS
10
156.363
20
-28.4508
11
156.375
21
-28.4544
0
LINE
8
BLACK
6
CONTINUOUS
10
156.375
20
-28.4544
11
156.386
21
-28.4579
0
LINE
8
BLACK
6
CONTINUOUS
10
156.386
20
-28.4579
11
156.387
21
-28.4581
0
LINE
8
BLACK
6
CONTINUOUS
10
156.387
20
-28.4581
11
156.387
21
-28.4583
0
LINE
8
BLACK
6
CONTINUOUS
10
156.387
20
-28.4583
11
156.397
21
-28.464
0
LINE
8
BLACK
6
CONTINUOUS
10
156.397
20
-28.464
11
156.408
21
-28.4697
0
LINE
8
BLACK
6
CONTINUOUS
10
156.408
20
-28.4697
11
156.408
21
-28.47
0
LINE
8
BLACK
6
CONTINUOUS
10
156.408
20
-28.47
11
156.409
21
-28.4702
0
LINE
8
BLACK
6
CONTINUOUS
10
156.409
20
-28.4702
11
156.418
21
-28.4779
0
LINE
8
BLACK
6
CONTINUOUS
10
156.418
20
-28.4779
11
156.427
21
-28.4855
0
LINE
8
BLACK
6
CONTINUOUS
10
156.427
20
-28.4855
11
156.427
21
-28.4859
0
LINE
8
BLACK
6
CONTINUOUS
10
156.427
20
-28.4859
11
156.428
21
-28.4861
0
LINE
8
BLACK
6
CONTINUOUS
10
156.428
20
-28.4861
11
156.435
21
-28.4955
0
LINE
8
BLACK
6
CONTINUOUS
10
156.435
20
-28.4955
11
156.443
21
-28.5047
0
LINE
8
BLACK
6
CONTINUOUS
10
156.443
20
-28.5047
11
156.443
21
-28.5051
0
LINE
8
BLACK
6
CONTINUOUS
10
156.443
20
-28.5051
11
156.443
21
-28.5055
0
LINE
8
BLACK
6
CONTINUOUS
10
156.443
20
-28.5055
11
156.449
21
-28.5161
0
LINE
8
BLACK
6
CONTINUOUS
10
156.449
20
-28.5161
11
156.454
21
-28.5266
0
LINE
8
BLACK
6
CONTINUOUS
10
156.454
20
-28.5266
11
156.455
21
-28.527
0
LINE
8
BLACK
6
CONTINUOUS
10
156.455
20
-28.527
11
156.455
21
-28.5274
0
LINE
8
BLACK
6
CONTINUOUS
10
156.455
20
-28.5274
11
156.458
21
-28.5389
0
LINE
8
BLACK
6
CONTINUOUS
10
156.458
20
-28.5389
11
156.462
21
-28.5503
0
LINE
8
BLACK
6
CONTINUOUS
10
156.462
20
-28.5503
11
156.462
21
-28.5508
0
LINE
8
BLACK
6
CONTINUOUS
10
156.462
20
-28.5508
11
156.462
21
-28.5512
0
LINE
8
BLACK
6
CONTINUOUS
10
156.462
20
-28.5512
11
156.463
21
-28.5631
0
LINE
8
BLACK
6
CONTINUOUS
10
156.463
20
-28.5631
11
156.464
21
-28.575
0
LINE
8
BLACK
6
CONTINUOUS
10
156.464
20
-28.575
11
156.464
21
-31.4898
0
LINE
8
BLACK
6
CONTINUOUS
10
156.464
20
-31.4898
11
156.465
21
-31.4954
0
LINE
8
BLACK
6
CONTINUOUS
10
156.465
20
-31.4954
11
156.47
21
-31.496
0
LINE
8
BLACK
6
CONTINUOUS
10
156.47
20
-31.496
11
173.101
21
-31.496
0
LINE
8
BLACK
6
CONTINUOUS
10
173.101
20
-31.496
11
173.102
21
-31.496
0
LINE
8
BLACK
6
CONTINUOUS
10
173.102
20
-31.496
11
173.102
21
-31.496
0
LINE
8
BLACK
6
CONTINUOUS
10
173.102
20
-31.496
11
173.102
21
-31.496
0
LINE
8
BLACK
6
CONTINUOUS
10
173.102
20
-31.496
11
173.103
21
-31.496
0
LINE
8
BLACK
6
CONTINUOUS
10
173.103
20
-31.496
11
173.115
21
-31.4973
0
LINE
8
BLACK
6
CONTINUOUS
10
173.115
20
-31.4973
11
173.127
21
-31.4986
0
LINE
8
BLACK
6
CONTINUOUS
10
173.127
20
-31.4986
11
173.127
21
-31.4987
0
LINE
8
BLACK
6
CONTINUOUS
10
173.127
20
-31.4987
11
173.127
21
-31.4988
0
LINE
8
BLACK
6
CONTINUOUS
10
173.127
20
-31.4988
11
173.139
21
-31.5024
0
LINE
8
BLACK
6
CONTINUOUS
10
173.139
20
-31.5024
11
173.15
21
-31.5059
0
LINE
8
BLACK
6
CONTINUOUS
10
173.15
20
-31.5059
11
173.151
21
-31.5061
0
LINE
8
BLACK
6
CONTINUOUS
10
173.151
20
-31.5061
11
173.151
21
-31.5063
0
LINE
8
BLACK
6
CONTINUOUS
10
173.151
20
-31.5063
11
173.161
21
-31.512
0
LINE
8
BLACK
6
CONTINUOUS
10
173.161
20
-31.512
11
173.172
21
-31.5177
0
LINE
8
BLACK
6
CONTINUOUS
10
173.172
20
-31.5177
11
173.172
21
-31.518
0
LINE
8
BLACK
6
CONTINUOUS
10
173.172
20
-31.518
11
173.173
21
-31.5182
0
LINE
8
BLACK
6
CONTINUOUS
10
173.173
20
-31.5182
11
173.182
21
-31.5259
0
LINE
8
BLACK
6
CONTINUOUS
10
173.182
20
-31.5259
11
173.191
21
-31.5335
0
LINE
8
BLACK
6
CONTINUOUS
10
173.191
20
-31.5335
11
173.191
21
-31.5339
0
LINE
8
BLACK
6
CONTINUOUS
10
173.191
20
-31.5339
11
173.192
21
-31.5341
0
LINE
8
BLACK
6
CONTINUOUS
10
173.192
20
-31.5341
11
173.199
21
-31.5435
0
LINE
8
BLACK
6
CONTINUOUS
10
173.199
20
-31.5435
11
173.207
21
-31.5527
0
LINE
8
BLACK
6
CONTINUOUS
10
173.207
20
-31.5527
11
173.207
21
-31.5531
0
LINE
8
BLACK
6
CONTINUOUS
10
173.207
20
-31.5531
11
173.207
21
-31.5535
0
LINE
8
BLACK
6
CONTINUOUS
10
173.207
20
-31.5535
11
173.213
21
-31.5641
0
LINE
8
BLACK
6
CONTINUOUS
10
173.213
20
-31.5641
11
173.218
21
-31.5746
0
LINE
8
BLACK
6
CONTINUOUS
10
173.218
20
-31.5746
11
173.219
21
-31.575
0
LINE
8
BLACK
6
CONTINUOUS
10
173.219
20
-31.575
11
173.219
21
-31.5754
0
LINE
8
BLACK
6
CONTINUOUS
10
173.219
20
-31.5754
11
173.222
21
-31.5867
0
LINE
8
BLACK
6
CONTINUOUS
10
173.222
20
-31.5867
11
173.226
21
-31.5983
0
LINE
8
BLACK
6
CONTINUOUS
10
173.226
20
-31.5983
11
173.226
21
-31.5988
0
LINE
8
BLACK
6
CONTINUOUS
10
173.226
20
-31.5988
11
173.226
21
-31.5992
0
LINE
8
BLACK
6
CONTINUOUS
10
173.226
20
-31.5992
11
173.227
21
-31.6111
0
LINE
8
BLACK
6
CONTINUOUS
10
173.227
20
-31.6111
11
173.228
21
-31.623
0
LINE
8
BLACK
6
CONTINUOUS
10
173.228
20
-31.623
11
173.228
21
-120.777
0
LINE
8
BLACK
6
CONTINUOUS
10
173.228
20
-120.777
11
173.228
21
-120.778
0
LINE
8
BLACK
6
CONTINUOUS
10
173.228
20
-120.778
11
173.228
21
-120.778
0
LINE
8
BLACK
6
CONTINUOUS
10
173.228
20
-120.778
11
173.228
21
-120.778
0
LINE
8
BLACK
6
CONTINUOUS
10
173.228
20
-120.778
11
173.228
21
-120.779
0
LINE
8
BLACK
6
CONTINUOUS
10
173.228
20
-120.779
11
173.227
21
-120.791
0
LINE
8
BLACK
6
CONTINUOUS
10
173.227
20
-120.791
11
173.225
21
-120.803
0
LINE
8
BLACK
6
CONTINUOUS
10
173.225
20
-120.803
11
173.225
21
-120.803
0
LINE
8
BLACK
6
CONTINUOUS
10
173.225
20
-120.803
11
173.225
21
-120.803
0
LINE
8
BLACK
6
CONTINUOUS
10
173.225
20
-120.803
11
173.222
21
-120.815
0
LINE
8
BLACK
6
CONTINUOUS
10
173.222
20
-120.815
11
173.218
21
-120.826
0
LINE
8
BLACK
6
CONTINUOUS
10
173.218
20
-120.826
11
173.218
21
-120.827
0
LINE
8
BLACK
6
CONTINUOUS
10
173.218
20
-120.827
11
173.218
21
-120.827
0
LINE
8
BLACK
6
CONTINUOUS
10
173.218
20
-120.827
11
173.212
21
-120.837
0
LINE
8
BLACK
6
CONTINUOUS
10
173.212
20
-120.837
11
173.206
21
-120.848
0
LINE
8
BLACK
6
CONTINUOUS
10
173.206
20
-120.848
11
173.206
21
-120.848
0
LINE
8
BLACK
6
CONTINUOUS
10
173.206
20
-120.848
11
173.206
21
-120.849
0
LINE
8
BLACK
6
CONTINUOUS
10
173.206
20
-120.849
11
173.198
21
-120.858
0
LINE
8
BLACK
6
CONTINUOUS
10
173.198
20
-120.858
11
173.19
21
-120.867
0
LINE
8
BLACK
6
CONTINUOUS
10
173.19
20
-120.867
11
173.19
21
-120.867
0
LINE
8
BLACK
6
CONTINUOUS
10
173.19
20
-120.867
11
173.19
21
-120.868
0
LINE
8
BLACK
6
CONTINUOUS
10
173.19
20
-120.868
11
173.181
21
-120.875
0
LINE
8
BLACK
6
CONTINUOUS
10
173.181
20
-120.875
11
173.171
21
-120.883
0
LINE
8
BLACK
6
CONTINUOUS
10
173.171
20
-120.883
11
173.171
21
-120.883
0
LINE
8
BLACK
6
CONTINUOUS
10
173.171
20
-120.883
11
173.171
21
-120.883
0
LINE
8
BLACK
6
CONTINUOUS
10
173.171
20
-120.883
11
173.16
21
-120.889
0
LINE
8
BLACK
6
CONTINUOUS
10
173.16
20
-120.889
11
173.149
21
-120.894
0
LINE
8
BLACK
6
CONTINUOUS
10
173.149
20
-120.894
11
173.149
21
-120.895
0
LINE
8
BLACK
6
CONTINUOUS
10
173.149
20
-120.895
11
173.149
21
-120.895
0
LINE
8
BLACK
6
CONTINUOUS
10
173.149
20
-120.895
11
173.137
21
-120.898
0
LINE
8
BLACK
6
CONTINUOUS
10
173.137
20
-120.898
11
173.126
21
-120.902
0
LINE
8
BLACK
6
CONTINUOUS
10
173.126
20
-120.902
11
173.125
21
-120.902
0
LINE
8
BLACK
6
CONTINUOUS
10
173.125
20
-120.902
11
173.125
21
-120.902
0
LINE
8
BLACK
6
CONTINUOUS
10
173.125
20
-120.902
11
173.113
21
-120.903
0
LINE
8
BLACK
6
CONTINUOUS
10
173.113
20
-120.903
11
173.101
21
-120.904
0
LINE
8
BLACK
6
CONTINUOUS
10
173.101
20
-120.904
11
157.486
21
-120.904
0
LINE
8
BLACK
6
CONTINUOUS
10
157.486
20
-120.904
11
157.481
21
-120.905
0
LINE
8
BLACK
6
CONTINUOUS
10
157.481
20
-120.905
11
157.48
21
-120.91
0
LINE
8
BLACK
6
CONTINUOUS
10
157.48
20
-120.91
11
157.48
21
-125
0
LINE
8
BLACK
6
CONTINUOUS
10
157.48
20
-125
11
157.48
21
-125.001
0
LINE
8
BLACK
6
CONTINUOUS
10
157.48
20
-125.001
11
157.48
21
-125.001
0
LINE
8
BLACK
6
CONTINUOUS
10
157.48
20
-125.001
11
157.48
21
-125.001
0
LINE
8
BLACK
6
CONTINUOUS
10
157.48
20
-125.001
11
157.48
21
-125.002
0
LINE
8
BLACK
6
CONTINUOUS
10
157.48
20
-125.002
11
157.479
21
-125.014
0
LINE
8
BLACK
6
CONTINUOUS
10
157.479
20
-125.014
11
157.477
21
-125.026
0
LINE
8
BLACK
6
CONTINUOUS
10
157.477
20
-125.026
11
157.477
21
-125.026
0
LINE
8
BLACK
6
CONTINUOUS
10
157.477
20
-125.026
11
157.477
21
-125.026
0
LINE
8
BLACK
6
CONTINUOUS
10
157.477
20
-125.026
11
157.474
21
-125.038
0
LINE
8
BLACK
6
CONTINUOUS
10
157.474
20
-125.038
11
157.47
21
-125.049
0
LINE
8
BLACK
6
CONTINUOUS
10
157.47
20
-125.049
11
157.47
21
-125.05
0
LINE
8
BLACK
6
CONTINUOUS
10
157.47
20
-125.05
11
157.47
21
-125.05
0
LINE
8
BLACK
6
CONTINUOUS
10
157.47
20
-125.05
11
157.464
21
-125.06
0
LINE
8
BLACK
6
CONTINUOUS
10
157.464
20
-125.06
11
157.458
21
-125.071
0
LINE
8
BLACK
6
CONTINUOUS
10
157.458
20
-125.071
11
157.458
21
-125.071
0
LINE
8
BLACK
6
CONTINUOUS
10
157.458
20
-125.071
11
157.458
21
-125.072
0
LINE
8
BLACK
6
CONTINUOUS
10
157.458
20
-125.072
11
157.45
21
-125.081
0
LINE
8
BLACK
6
CONTINUOUS
10
157.45
20
-125.081
11
157.442
21
-125.09
0
LINE
8
BLACK
6
CONTINUOUS
10
157.442
20
-125.09
11
157.442
21
-125.09
0
LINE
8
BLACK
6
CONTINUOUS
10
157.442
20
-125.09
11
157.442
21
-125.091
0
LINE
8
BLACK
6
CONTINUOUS
10
157.442
20
-125.091
11
157.433
21
-125.098
0
LINE
8
BLACK
6
CONTINUOUS
10
157.433
20
-125.098
11
157.423
21
-125.106
0
LINE
8
BLACK
6
CONTINUOUS
10
157.423
20
-125.106
11
157.423
21
-125.106
0
LINE
8
BLACK
6
CONTINUOUS
10
157.423
20
-125.106
11
157.423
21
-125.106
0
LINE
8
BLACK
6
CONTINUOUS
10
157.423
20
-125.106
11
157.412
21
-125.112
0
LINE
8
BLACK
6
CONTINUOUS
10
157.412
20
-125.112
11
157.401
21
-125.117
0
LINE
8
BLACK
6
CONTINUOUS
10
157.401
20
-125.117
11
157.401
21
-125.118
0
LINE
8
BLACK
6
CONTINUOUS
10
157.401
20
-125.118
11
157.401
21
-125.118
0
LINE
8
BLACK
6
CONTINUOUS
10
157.401
20
-125.118
11
157.389
21
-125.121
0
LINE
8
BLACK
6
CONTINUOUS
10
157.389
20
-125.121
11
157.378
21
-125.125
0
LINE
8
BLACK
6
CONTINUOUS
10
157.378
20
-125.125
11
157.377
21
-125.125
0
LINE
8
BLACK
6
CONTINUOUS
10
157.377
20
-125.125
11
157.377
21
-125.125
0
LINE
8
BLACK
6
CONTINUOUS
10
157.377
20
-125.125
11
157.365
21
-125.126
0
LINE
8
BLACK
6
CONTINUOUS
10
157.365
20
-125.126
11
157.353
21
-125.127
0
LINE
8
BLACK
6
CONTINUOUS
10
157.353
20
-125.127
11
129.921
21
-125.127
0
LINE
8
BLACK
6
CONTINUOUS
10
129.921
20
-125.127
11
129.92
21
-125.127
0
LINE
8
BLACK
6
CONTINUOUS
10
129.92
20
-125.127
11
129.92
21
-125.127
0
LINE
8
BLACK
6
CONTINUOUS
10
129.92
20
-125.127
11
129.92
21
-125.127
0
LINE
8
BLACK
6
CONTINUOUS
10
129.92
20
-125.127
11
129.919
21
-125.127
0
LINE
8
BLACK
6
CONTINUOUS
10
129.919
20
-125.127
11
129.907
21
-125.126
0
LINE
8
BLACK
6
CONTINUOUS
10
129.907
20
-125.126
11
129.895
21
-125.124
0
LINE
8
BLACK
6
CONTINUOUS
10
129.895
20
-125.124
11
129.895
21
-125.124
0
LINE
8
BLACK
6
CONTINUOUS
10
129.895
20
-125.124
11
129.895
21
-125.124
0
LINE
8
BLACK
6
CONTINUOUS
10
129.895
20
-125.124
11
129.883
21
-125.121
0
LINE
8
BLACK
6
CONTINUOUS
10
129.883
20
-125.121
11
129.872
21
-125.117
0
LINE
8
BLACK
6
CONTINUOUS
10
129.872
20
-125.117
11
129.871
21
-125.117
0
LINE
8
BLACK
6
CONTINUOUS
10
129.871
20
-125.117
11
129.871
21
-125.117
0
LINE
8
BLACK
6
CONTINUOUS
10
129.871
20
-125.117
11
129.861
21
-125.111
0
LINE
8
BLACK
6
CONTINUOUS
10
129.861
20
-125.111
11
129.85
21
-125.105
0
LINE
8
BLACK
6
CONTINUOUS
10
129.85
20
-125.105
11
129.85
21
-125.105
0
LINE
8
BLACK
6
CONTINUOUS
10
129.85
20
-125.105
11
129.849
21
-125.105
0
LINE
8
BLACK
6
CONTINUOUS
10
129.849
20
-125.105
11
129.84
21
-125.097
0
LINE
8
BLACK
6
CONTINUOUS
10
129.84
20
-125.097
11
129.831
21
-125.089
0
LINE
8
BLACK
6
CONTINUOUS
10
129.831
20
-125.089
11
129.831
21
-125.089
0
LINE
8
BLACK
6
CONTINUOUS
10
129.831
20
-125.089
11
129.83
21
-125.089
0
LINE
8
BLACK
6
CONTINUOUS
10
129.83
20
-125.089
11
129.823
21
-125.08
0
LINE
8
BLACK
6
CONTINUOUS
10
129.823
20
-125.08
11
129.815
21
-125.07
0
LINE
8
BLACK
6
CONTINUOUS
10
129.815
20
-125.07
11
129.815
21
-125.07
0
LINE
8
BLACK
6
CONTINUOUS
10
129.815
20
-125.07
11
129.815
21
-125.07
0
LINE
8
BLACK
6
CONTINUOUS
10
129.815
20
-125.07
11
129.809
21
-125.059
0
LINE
8
BLACK
6
CONTINUOUS
10
129.809
20
-125.059
11
129.804
21
-125.048
0
LINE
8
BLACK
6
CONTINUOUS
10
129.804
20
-125.048
11
129.803
21
-125.048
0
LINE
8
BLACK
6
CONTINUOUS
10
129.803
20
-125.048
11
129.803
21
-125.048
0
LINE
8
BLACK
6
CONTINUOUS
10
129.803
20
-125.048
11
129.8
21
-125.036
0
LINE
8
BLACK
6
CONTINUOUS
10
129.8
20
-125.036
11
129.796
21
-125.025
0
LINE
8
BLACK
6
CONTINUOUS
10
129.796
20
-125.025
11
129.796
21
-125.024
0
LINE
8
BLACK
6
CONTINUOUS
10
129.796
20
-125.024
11
129.796
21
-125.024
0
LINE
8
BLACK
6
CONTINUOUS
10
129.796
20
-125.024
11
129.795
21
-125.012
0
LINE
8
BLACK
6
CONTINUOUS
10
129.795
20
-125.012
11
129.794
21
-125
0
LINE
8
BLACK
6
CONTINUOUS
10
129.794
20
-125
11
129.794
21
-120.91
0
LINE
8
BLACK
6
CONTINUOUS
10
129.794
20
-120.91
11
129.793
21
-120.905
0
LINE
8
BLACK
6
CONTINUOUS
10
129.793
20
-120.905
11
129.788
21
-120.904
0
LINE
8
BLACK
6
CONTINUOUS
10
129.788
20
-120.904
11
99.695
21
-120.904
0
LINE
8
BLACK
6
CONTINUOUS
10
99.695
20
-120.904
11
99.6941
21
-120.904
0
LINE
8
BLACK
6
CONTINUOUS
10
99.6941
20
-120.904
11
99.6941
21
-120.904
0
LINE
8
BLACK
6
CONTINUOUS
10
99.6941
20
-120.904
11
99.6941
21
-120.904
0
LINE
8
BLACK
6
CONTINUOUS
10
99.6941
20
-120.904
11
99.6932
21
-120.904
0
LINE
8
BLACK
6
CONTINUOUS
10
99.6932
20
-120.904
11
99.6813
21
-120.903
0
LINE
8
BLACK
6
CONTINUOUS
10
99.6813
20
-120.903
11
99.6695
21
-120.901
0
LINE
8
BLACK
6
CONTINUOUS
10
99.6695
20
-120.901
11
99.669
21
-120.901
0
LINE
8
BLACK
6
CONTINUOUS
10
99.669
20
-120.901
11
99.6686
21
-120.901
0
LINE
8
BLACK
6
CONTINUOUS
10
99.6686
20
-120.901
11
99.6572
21
-120.898
0
LINE
8
BLACK
6
CONTINUOUS
10
99.6572
20
-120.898
11
99.6458
21
-120.894
0
LINE
8
BLACK
6
CONTINUOUS
10
99.6458
20
-120.894
11
99.6454
21
-120.894
0
LINE
8
BLACK
6
CONTINUOUS
10
99.6454
20
-120.894
11
99.645
21
-120.894
0
LINE
8
BLACK
6
CONTINUOUS
10
99.645
20
-120.894
11
99.6345
21
-120.888
0
LINE
8
BLACK
6
CONTINUOUS
10
99.6345
20
-120.888
11
99.624
21
-120.882
0
LINE
8
BLACK
6
CONTINUOUS
10
99.624
20
-120.882
11
99.6236
21
-120.882
0
LINE
8
BLACK
6
CONTINUOUS
10
99.6236
20
-120.882
11
99.6232
21
-120.882
0
LINE
8
BLACK
6
CONTINUOUS
10
99.6232
20
-120.882
11
99.6141
21
-120.874
0
LINE
8
BLACK
6
CONTINUOUS
10
99.6141
20
-120.874
11
99.6049
21
-120.866
0
LINE
8
BLACK
6
CONTINUOUS
10
99.6049
20
-120.866
11
99.6046
21
-120.866
0
LINE
8
BLACK
6
CONTINUOUS
10
99.6046
20
-120.866
11
99.6043
21
-120.866
0
LINE
8
BLACK
6
CONTINUOUS
10
99.6043
20
-120.866
11
99.5968
21
-120.857
0
LINE
8
BLACK
6
CONTINUOUS
10
99.5968
20
-120.857
11
99.5892
21
-120.847
0
LINE
8
BLACK
6
CONTINUOUS
10
99.5892
20
-120.847
11
99.589
21
-120.847
0
LINE
8
BLACK
6
CONTINUOUS
10
99.589
20
-120.847
11
99.5887
21
-120.847
0
LINE
8
BLACK
6
CONTINUOUS
10
99.5887
20
-120.847
11
99.5832
21
-120.836
0
LINE
8
BLACK
6
CONTINUOUS
10
99.5832
20
-120.836
11
99.5776
21
-120.825
0
LINE
8
BLACK
6
CONTINUOUS
10
99.5776
20
-120.825
11
99.5775
21
-120.825
0
LINE
8
BLACK
6
CONTINUOUS
10
99.5775
20
-120.825
11
99.5772
21
-120.825
0
LINE
8
BLACK
6
CONTINUOUS
10
99.5772
20
-120.825
11
99.5739
21
-120.813
0
LINE
8
BLACK
6
CONTINUOUS
10
99.5739
20
-120.813
11
99.5704
21
-120.802
0
LINE
8
BLACK
6
CONTINUOUS
10
99.5704
20
-120.802
11
99.5704
21
-120.801
0
LINE
8
BLACK
6
CONTINUOUS
10
99.5704
20
-120.801
11
99.5703
21
-120.801
0
LINE
8
BLACK
6
CONTINUOUS
10
99.5703
20
-120.801
11
99.5692
21
-120.789
0
LINE
8
BLACK
6
CONTINUOUS
10
99.5692
20
-120.789
11
99.568
21
-120.777
0
LINE
8
BLACK
6
CONTINUOUS
10
99.568
20
-120.777
11
99.568
21
-31.623
0
LINE
8
BLACK
6
CONTINUOUS
10
99.568
20
-31.623
11
99.568
21
-31.6221
0
LINE
8
BLACK
6
CONTINUOUS
10
99.568
20
-31.6221
11
99.568
21
-31.6221
0
LINE
8
BLACK
6
CONTINUOUS
10
99.568
20
-31.6221
11
99.568
21
-31.6221
0
LINE
8
BLACK
6
CONTINUOUS
10
99.568
20
-31.6221
11
99.568
21
-31.6212
0
LINE
8
BLACK
6
CONTINUOUS
10
99.568
20
-31.6212
11
99.5693
21
-31.6093
0
LINE
8
BLACK
6
CONTINUOUS
10
99.5693
20
-31.6093
11
99.5706
21
-31.5975
0
LINE
8
BLACK
6
CONTINUOUS
10
99.5706
20
-31.5975
11
99.5707
21
-31.597
0
LINE
8
BLACK
6
CONTINUOUS
10
99.5707
20
-31.597
11
99.5708
21
-31.5966
0
LINE
8
BLACK
6
CONTINUOUS
10
99.5708
20
-31.5966
11
99.5744
21
-31.5852
0
LINE
8
BLACK
6
CONTINUOUS
10
99.5744
20
-31.5852
11
99.5779
21
-31.5738
0
LINE
8
BLACK
6
CONTINUOUS
10
99.5779
20
-31.5738
11
99.5781
21
-31.5734
0
LINE
8
BLACK
6
CONTINUOUS
10
99.5781
20
-31.5734
11
99.5783
21
-31.573
0
LINE
8
BLACK
6
CONTINUOUS
10
99.5783
20
-31.573
11
99.584
21
-31.5625
0
LINE
8
BLACK
6
CONTINUOUS
10
99.584
20
-31.5625
11
99.5897
21
-31.552
0
LINE
8
BLACK
6
CONTINUOUS
10
99.5897
20
-31.552
11
99.59
21
-31.5516
0
LINE
8
BLACK
6
CONTINUOUS
10
99.59
20
-31.5516
11
99.5902
21
-31.5512
0
LINE
8
BLACK
6
CONTINUOUS
10
99.5902
20
-31.5512
11
99.5979
21
-31.5421
0
LINE
8
BLACK
6
CONTINUOUS
10
99.5979
20
-31.5421
11
99.6055
21
-31.5329
0
LINE
8
BLACK
6
CONTINUOUS
10
99.6055
20
-31.5329
11
99.6059
21
-31.5326
0
LINE
8
BLACK
6
CONTINUOUS
10
99.6059
20
-31.5326
11
99.6061
21
-31.5323
0
LINE
8
BLACK
6
CONTINUOUS
10
99.6061
20
-31.5323
11
99.6155
21
-31.5248
0
LINE
8
BLACK
6
CONTINUOUS
10
99.6155
20
-31.5248
11
99.6247
21
-31.5172
0
LINE
8
BLACK
6
CONTINUOUS
10
99.6247
20
-31.5172
11
99.6251
21
-31.517
0
LINE
8
BLACK
6
CONTINUOUS
10
99.6251
20
-31.517
11
99.6255
21
-31.5167
0
LINE
8
BLACK
6
CONTINUOUS
10
99.6255
20
-31.5167
11
99.6361
21
-31.5112
0
LINE
8
BLACK
6
CONTINUOUS
10
99.6361
20
-31.5112
11
99.6466
21
-31.5056
0
LINE
8
BLACK
6
CONTINUOUS
10
99.6466
20
-31.5056
11
99.647
21
-31.5055
0
LINE
8
BLACK
6
CONTINUOUS
10
99.647
20
-31.5055
11
99.6474
21
-31.5052
0
LINE
8
BLACK
6
CONTINUOUS
10
99.6474
20
-31.5052
11
99.6589
21
-31.5019
0
LINE
8
BLACK
6
CONTINUOUS
10
99.6589
20
-31.5019
11
99.6703
21
-31.4984
0
LINE
8
BLACK
6
CONTINUOUS
10
99.6703
20
-31.4984
11
99.6708
21
-31.4984
0
LINE
8
BLACK
6
CONTINUOUS
10
99.6708
20
-31.4984
11
99.6712
21
-31.4982
0
LINE
8
BLACK
6
CONTINUOUS
10
99.6712
20
-31.4982
11
99.6831
21
-31.4972
0
LINE
8
BLACK
6
CONTINUOUS
10
99.6831
20
-31.4972
11
99.695
21
-31.496
0
LINE
8
BLACK
6
CONTINUOUS
10
99.695
20
-31.496
11
132.836
21
-31.496
0
LINE
8
BLACK
6
CONTINUOUS
10
132.836
20
-31.496
11
132.841
21
-31.4954
0
LINE
8
BLACK
6
CONTINUOUS
10
132.841
20
-31.4954
11
132.842
21
-31.4898
0
LINE
8
BLACK
6
CONTINUOUS
10
132.842
20
-31.4898
11
132.842
21
-28.575
0
LINE
8
BLACK
6
CONTINUOUS
10
132.842
20
-28.575
11
132.842
21
-28.5741
0
LINE
8
BLACK
6
CONTINUOUS
10
132.842
20
-28.5741
11
132.842
21
-28.5741
0
LINE
8
BLACK
6
CONTINUOUS
10
132.842
20
-28.5741
11
132.842
21
-28.5741
0
LINE
8
BLACK
6
CONTINUOUS
10
132.842
20
-28.5741
11
132.842
21
-28.5732
0
LINE
8
BLACK
6
CONTINUOUS
10
132.842
20
-28.5732
11
132.843
21
-28.5613
0
LINE
8
BLACK
6
CONTINUOUS
10
132.843
20
-28.5613
11
132.845
21
-28.5495
0
LINE
8
BLACK
6
CONTINUOUS
10
132.845
20
-28.5495
11
132.845
21
-28.549
0
LINE
8
BLACK
6
CONTINUOUS
10
132.845
20
-28.549
11
132.845
21
-28.5486
0
LINE
8
BLACK
6
CONTINUOUS
10
132.845
20
-28.5486
11
132.848
21
-28.5372
0
LINE
8
BLACK
6
CONTINUOUS
10
132.848
20
-28.5372
11
132.852
21
-28.5258
0
LINE
8
BLACK
6
CONTINUOUS
10
132.852
20
-28.5258
11
132.852
21
-28.5254
0
LINE
8
BLACK
6
CONTINUOUS
10
132.852
20
-28.5254
11
132.852
21
-28.525
0
LINE
8
BLACK
6
CONTINUOUS
10
132.852
20
-28.525
11
132.858
21
-28.5145
0
LINE
8
BLACK
6
CONTINUOUS
10
132.858
20
-28.5145
11
132.864
21
-28.504
0
LINE
8
BLACK
6
CONTINUOUS
10
132.864
20
-28.504
11
132.864
21
-28.5036
0
LINE
8
BLACK
6
CONTINUOUS
10
132.864
20
-28.5036
11
132.864
21
-28.5032
0
LINE
8
BLACK
6
CONTINUOUS
10
132.864
20
-28.5032
11
132.872
21
-28.4941
0
LINE
8
BLACK
6
CONTINUOUS
10
132.872
20
-28.4941
11
132.88
21
-28.4849
0
LINE
8
BLACK
6
CONTINUOUS
10
132.88
20
-28.4849
11
132.88
21
-28.4846
0
LINE
8
BLACK
6
CONTINUOUS
10
132.88
20
-28.4846
11
132.88
21
-28.4843
0
LINE
8
BLACK
6
CONTINUOUS
10
132.88
20
-28.4843
11
132.889
21
-28.4768
0
LINE
8
BLACK
6
CONTINUOUS
10
132.889
20
-28.4768
11
132.899
21
-28.4692
0
LINE
8
BLACK
6
CONTINUOUS
10
132.899
20
-28.4692
11
132.899
21
-28.469
0
LINE
8
BLACK
6
CONTINUOUS
10
132.899
20
-28.469
11
132.899
21
-28.4687
0
LINE
8
BLACK
6
CONTINUOUS
10
132.899
20
-28.4687
11
132.91
21
-28.4632
0
LINE
8
BLACK
6
CONTINUOUS
10
132.91
20
-28.4632
11
132.921
21
-28.4576
0
LINE
8
BLACK
6
CONTINUOUS
10
132.921
20
-28.4576
11
132.921
21
-28.4575
0
LINE
8
BLACK
6
CONTINUOUS
10
132.921
20
-28.4575
11
132.921
21
-28.4572
0
LINE
8
BLACK
6
CONTINUOUS
10
132.921
20
-28.4572
11
132.933
21
-28.4539
0
LINE
8
BLACK
6
CONTINUOUS
10
132.933
20
-28.4539
11
132.944
21
-28.4504
0
LINE
8
BLACK
6
CONTINUOUS
10
132.944
20
-28.4504
11
132.945
21
-28.4504
0
LINE
8
BLACK
6
CONTINUOUS
10
132.945
20
-28.4504
11
132.945
21
-28.4503
0
LINE
8
BLACK
6
CONTINUOUS
10
132.945
20
-28.4503
11
132.957
21
-28.4492
0
LINE
8
BLACK
6
CONTINUOUS
10
132.957
20
-28.4492
11
132.969
21
-28.448
0
LINE
8
BLACK
6
CONTINUOUS
10
132.969
20
-28.448
11
141.605
21
-28.448
0
LINE
8
BLACK
6
CONTINUOUS
10
141.605
20
-28.448
11
141.606
21
-28.448
0
LINE
8
BLACK
6
CONTINUOUS
10
176.789
20
-25.3
11
176.804
21
-25.3014
0
LINE
8
BLACK
6
CONTINUOUS
10
176.804
20
-25.3014
11
176.822
21
-25.3072
0
LINE
8
BLACK
6
CONTINUOUS
10
176.822
20
-25.3072
11
176.84
21
-25.3165
0
LINE
8
BLACK
6
CONTINUOUS
10
176.84
20
-25.3165
11
176.855
21
-25.3289
0
LINE
8
BLACK
6
CONTINUOUS
10
176.855
20
-25.3289
11
176.868
21
-25.3442
0
LINE
8
BLACK
6
CONTINUOUS
10
176.868
20
-25.3442
11
176.877
21
-25.3615
0
LINE
8
BLACK
6
CONTINUOUS
10
176.877
20
-25.3615
11
176.883
21
-25.3804
0
LINE
8
BLACK
6
CONTINUOUS
10
176.883
20
-25.3804
11
176.884
21
-25.4
0
LINE
8
BLACK
6
CONTINUOUS
10
176.884
20
-25.4
11
176.884
21
-25.4049
0
LINE
8
BLACK
6
CONTINUOUS
10
176.884
20
-25.4049
11
176.884
21
-27.9351
0
LINE
8
BLACK
6
CONTINUOUS
10
176.884
20
-27.9351
11
176.884
21
-27.94
0
LINE
8
BLACK
6
CONTINUOUS
10
176.884
20
-27.94
11
176.883
21
-27.9596
0
LINE
8
BLACK
6
CONTINUOUS
10
176.883
20
-27.9596
11
176.877
21
-27.9785
0
LINE
8
BLACK
6
CONTINUOUS
10
176.877
20
-27.9785
11
176.868
21
-27.9958
0
LINE
8
BLACK
6
CONTINUOUS
10
176.868
20
-27.9958
11
176.855
21
-28.0111
0
LINE
8
BLACK
6
CONTINUOUS
10
176.855
20
-28.0111
11
176.84
21
-28.0235
0
LINE
8
BLACK
6
CONTINUOUS
10
176.84
20
-28.0235
11
176.822
21
-28.0328
0
LINE
8
BLACK
6
CONTINUOUS
10
176.822
20
-28.0328
11
176.804
21
-28.0386
0
LINE
8
BLACK
6
CONTINUOUS
10
176.804
20
-28.0386
11
176.789
21
-28.04
0
LINE
8
BLACK
6
CONTINUOUS
10
176.789
20
-28.04
11
176.784
21
-28.0405
0
LINE
8
BLACK
6
CONTINUOUS
10
176.784
20
-28.0405
11
176.779
21
-28.04
0
LINE
8
BLACK
6
CONTINUOUS
10
176.779
20
-28.04
11
155.961
21
-28.04
0
LINE
8
BLACK
6
CONTINUOUS
10
155.961
20
-28.04
11
155.956
21
-28.0405
0
LINE
8
BLACK
6
CONTINUOUS
10
155.956
20
-28.0405
11
155.936
21
-28.0386
0
LINE
8
BLACK
6
CONTINUOUS
10
155.936
20
-28.0386
11
155.918
21
-28.0328
0
LINE
8
BLACK
6
CONTINUOUS
10
155.918
20
-28.0328
11
155.9
21
-28.0235
0
LINE
8
BLACK
6
CONTINUOUS
10
155.9
20
-28.0235
11
155.885
21
-28.0111
0
LINE
8
BLACK
6
CONTINUOUS
10
155.885
20
-28.0111
11
155.872
21
-27.9958
0
LINE
8
BLACK
6
CONTINUOUS
10
155.872
20
-27.9958
11
155.863
21
-27.9785
0
LINE
8
BLACK
6
CONTINUOUS
10
155.863
20
-27.9785
11
155.857
21
-27.9596
0
LINE
8
BLACK
6
CONTINUOUS
10
155.857
20
-27.9596
11
155.856
21
-27.94
0
LINE
8
BLACK
6
CONTINUOUS
10
155.856
20
-27.94
11
155.856
21
-27.9351
0
LINE
8
BLACK
6
CONTINUOUS
10
155.856
20
-27.9351
11
155.856
21
-25.4049
0
LINE
8
BLACK
6
CONTINUOUS
10
155.856
20
-25.4049
11
155.856
21
-25.4
0
LINE
8
BLACK
6
CONTINUOUS
10
155.856
20
-25.4
11
155.857
21
-25.3804
0
LINE
8
BLACK
6
CONTINUOUS
10
155.857
20
-25.3804
11
155.863
21
-25.3615
0
LINE
8
BLACK
6
CONTINUOUS
10
155.863
20
-25.3615
11
155.872
21
-25.3442
0
LINE
8
BLACK
6
CONTINUOUS
10
155.872
20
-25.3442
11
155.885
21
-25.3289
0
LINE
8
BLACK
6
CONTINUOUS
10
155.885
20
-25.3289
11
155.9
21
-25.3165
0
LINE
8
BLACK
6
CONTINUOUS
10
155.9
20
-25.3165
11
155.918
21
-25.3072
0
LINE
8
BLACK
6
CONTINUOUS
10
155.918
20
-25.3072
11
155.936
21
-25.3014
0
LINE
8
BLACK
6
CONTINUOUS
10
155.936
20
-25.3014
11
155.951
21
-25.3
0
LINE
8
BLACK
6
CONTINUOUS
10
155.951
20
-25.3
11
155.956
21
-25.2995
0
LINE
8
BLACK
6
CONTINUOUS
10
155.956
20
-25.2995
11
155.961
21
-25.3
0
LINE
8
BLACK
6
CONTINUOUS
10
155.961
20
-25.3
11
176.779
21
-25.3
0
LINE
8
BLACK
6
CONTINUOUS
10
176.779
20
-25.3
11
176.784
21
-25.2995
0
LINE
8
BLACK
6
CONTINUOUS
10
176.784
20
-25.2995
11
176.789
21
-25.3
  0
ENDSEC
  0
EOF
