  0
SECTION
  2
HEADER
  9
$ANGBASE
  50
0.0
  9
$ANGDIR
  70
  1
  9
$MEASUREMENT
  70
0
  0
ENDSEC
  0
SECTION
  2
TABLES
  0
TABLE
  2
LTYPE
  70
4
  0
LTYPE
  5
40F
  2
CONTINUOUS
  70
0
  3
Solid line
  72
65
  73
0
  40
0.0
  0
LTYPE
  5
410
  2
DASHDOT
 70
0
  3
Dash Dot ____ _ ____ _
 72
65
 73
4
 40
2.0
 49
1.25
 49
-0.25
 49
0.25
 49
-0.25
  0
LTYPE
  5
411
  2
DASHED
 70
0
  3
Dashed __ __ __ __ __
 72
65
 73
2
 40
0.75
 49
0.5
 49
-0.25
  0
LTYPE
  5
43B
  2
DOTTED
 70
0
  3
Dotted .  .  .  .
 72
65
 73
2
 40
0.2
 49
0.0
 49
-0.2
  0
ENDTAB
  0
TABLE
  2
STYLE
  70
4
  0
STYLE
  2
KICAD
  70
0
  40
0
  41
1
  42
1
  50
0
  71
0
  3
isocp.shx
  0
STYLE
  2
KICADB
  70
0
  40
0
  41
1
  42
1
  50
0
  71
0
  3
isocp.shx
  0
STYLE
  2
KICADI
  70
0
  40
0
  41
1
  42
1
  50
15
  71
0
  3
isocp.shx
  0
STYLE
  2
KICADBI
  70
0
  40
0
  41
1
  42
1
  50
15
  71
0
  3
isocp.shx
  0
ENDTAB
  0
TABLE
  2
LAYER
  70
30
  0
LAYER
  2
BLACK
  70
0
  62
7
  6
CONTINUOUS
  0
LAYER
  2
GRAY1
  70
0
  62
251
  6
CONTINUOUS
  0
LAYER
  2
GRAY2
  70
0
  62
8
  6
CONTINUOUS
  0
LAYER
  2
GRAY3
  70
0
  62
9
  6
CONTINUOUS
  0
LAYER
  2
WHITE
  70
0
  62
7
  6
CONTINUOUS
  0
LAYER
  2
LYELLOW
  70
0
  62
51
  6
CONTINUOUS
  0
LAYER
  2
BLUE1
  70
0
  62
178
  6
CONTINUOUS
  0
LAYER
  2
GREEN1
  70
0
  62
98
  6
CONTINUOUS
  0
LAYER
  2
CYAN1
  70
0
  62
138
  6
CONTINUOUS
  0
LAYER
  2
RED1
  70
0
  62
18
  6
CONTINUOUS
  0
LAYER
  2
MAGENTA1
  70
0
  62
228
  6
CONTINUOUS
  0
LAYER
  2
BROWN1
  70
0
  62
58
  6
CONTINUOUS
  0
LAYER
  2
BLUE2
  70
0
  62
5
  6
CONTINUOUS
  0
LAYER
  2
GREEN2
  70
0
  62
3
  6
CONTINUOUS
  0
LAYER
  2
CYAN2
  70
0
  62
4
  6
CONTINUOUS
  0
LAYER
  2
RED2
  70
0
  62
1
  6
CONTINUOUS
  0
LAYER
  2
MAGENTA2
  70
0
  62
6
  6
CONTINUOUS
  0
LAYER
  2
BROWN2
  70
0
  62
54
  6
CONTINUOUS
  0
LAYER
  2
BLUE3
  70
0
  62
171
  6
CONTINUOUS
  0
LAYER
  2
GREEN3
  70
0
  62
91
  6
CONTINUOUS
  0
LAYER
  2
CYAN3
  70
0
  62
131
  6
CONTINUOUS
  0
LAYER
  2
RED3
  70
0
  62
11
  6
CONTINUOUS
  0
LAYER
  2
MAGENTA3
  70
0
  62
221
  6
CONTINUOUS
  0
LAYER
  2
YELLOW3
  70
0
  62
2
  6
CONTINUOUS
  0
LAYER
  2
BLUE4
  70
0
  62
5
  6
CONTINUOUS
  0
LAYER
  2
GREEN4
  70
0
  62
3
  6
CONTINUOUS
  0
LAYER
  2
CYAN4
  70
0
  62
4
  6
CONTINUOUS
  0
LAYER
  2
RED4
  70
0
  62
1
  6
CONTINUOUS
  0
LAYER
  2
MAGENTA4
  70
0
  62
6
  6
CONTINUOUS
  0
LAYER
  2
YELLOW4
  70
0
  62
2
  6
CONTINUOUS
  0
ENDTAB
  0
ENDSEC
  0
SECTION
  2
ENTITIES
0
LINE
8
BLACK
6
CONTINUOUS
10
157.354
20
-112.268
11
157.354
21
-112.268
0
LINE
8
BLACK
6
CONTINUOUS
10
157.354
20
-112.268
11
157.354
21
-112.268
0
LINE
8
BLACK
6
CONTINUOUS
10
157.354
20
-112.268
11
157.355
21
-112.268
0
LINE
8
BLACK
6
CONTINUOUS
10
157.355
20
-112.268
11
157.367
21
-112.269
0
LINE
8
BLACK
6
CONTINUOUS
10
157.367
20
-112.269
11
157.379
21
-112.271
0
LINE
8
BLACK
6
CONTINUOUS
10
157.379
20
-112.271
11
157.379
21
-112.271
0
LINE
8
BLACK
6
CONTINUOUS
10
157.379
20
-112.271
11
157.379
21
-112.271
0
LINE
8
BLACK
6
CONTINUOUS
10
157.379
20
-112.271
11
157.391
21
-112.274
0
LINE
8
BLACK
6
CONTINUOUS
10
157.391
20
-112.274
11
157.402
21
-112.278
0
LINE
8
BLACK
6
CONTINUOUS
10
157.402
20
-112.278
11
157.403
21
-112.278
0
LINE
8
BLACK
6
CONTINUOUS
10
157.403
20
-112.278
11
157.403
21
-112.278
0
LINE
8
BLACK
6
CONTINUOUS
10
157.403
20
-112.278
11
157.413
21
-112.284
0
LINE
8
BLACK
6
CONTINUOUS
10
157.413
20
-112.284
11
157.424
21
-112.29
0
LINE
8
BLACK
6
CONTINUOUS
10
157.424
20
-112.29
11
157.424
21
-112.29
0
LINE
8
BLACK
6
CONTINUOUS
10
157.424
20
-112.29
11
157.425
21
-112.29
0
LINE
8
BLACK
6
CONTINUOUS
10
157.425
20
-112.29
11
157.434
21
-112.298
0
LINE
8
BLACK
6
CONTINUOUS
10
157.434
20
-112.298
11
157.443
21
-112.306
0
LINE
8
BLACK
6
CONTINUOUS
10
157.443
20
-112.306
11
157.443
21
-112.306
0
LINE
8
BLACK
6
CONTINUOUS
10
157.443
20
-112.306
11
157.444
21
-112.306
0
LINE
8
BLACK
6
CONTINUOUS
10
157.444
20
-112.306
11
157.451
21
-112.315
0
LINE
8
BLACK
6
CONTINUOUS
10
157.451
20
-112.315
11
157.459
21
-112.325
0
LINE
8
BLACK
6
CONTINUOUS
10
157.459
20
-112.325
11
157.459
21
-112.325
0
LINE
8
BLACK
6
CONTINUOUS
10
157.459
20
-112.325
11
157.459
21
-112.325
0
LINE
8
BLACK
6
CONTINUOUS
10
157.459
20
-112.325
11
157.465
21
-112.336
0
LINE
8
BLACK
6
CONTINUOUS
10
157.465
20
-112.336
11
157.47
21
-112.347
0
LINE
8
BLACK
6
CONTINUOUS
10
157.47
20
-112.347
11
157.471
21
-112.347
0
LINE
8
BLACK
6
CONTINUOUS
10
157.471
20
-112.347
11
157.471
21
-112.347
0
LINE
8
BLACK
6
CONTINUOUS
10
157.471
20
-112.347
11
157.474
21
-112.359
0
LINE
8
BLACK
6
CONTINUOUS
10
157.474
20
-112.359
11
157.478
21
-112.37
0
LINE
8
BLACK
6
CONTINUOUS
10
157.478
20
-112.37
11
157.478
21
-112.371
0
LINE
8
BLACK
6
CONTINUOUS
10
157.478
20
-112.371
11
157.478
21
-112.371
0
LINE
8
BLACK
6
CONTINUOUS
10
157.478
20
-112.371
11
157.479
21
-112.383
0
LINE
8
BLACK
6
CONTINUOUS
10
157.479
20
-112.383
11
157.48
21
-112.395
0
LINE
8
BLACK
6
CONTINUOUS
10
157.48
20
-112.395
11
157.48
21
-125
0
LINE
8
BLACK
6
CONTINUOUS
10
157.48
20
-125
11
157.48
21
-125.001
0
LINE
8
BLACK
6
CONTINUOUS
10
157.48
20
-125.001
11
157.48
21
-125.001
0
LINE
8
BLACK
6
CONTINUOUS
10
157.48
20
-125.001
11
157.48
21
-125.001
0
LINE
8
BLACK
6
CONTINUOUS
10
157.48
20
-125.001
11
157.48
21
-125.002
0
LINE
8
BLACK
6
CONTINUOUS
10
157.48
20
-125.002
11
157.479
21
-125.014
0
LINE
8
BLACK
6
CONTINUOUS
10
157.479
20
-125.014
11
157.477
21
-125.026
0
LINE
8
BLACK
6
CONTINUOUS
10
157.477
20
-125.026
11
157.477
21
-125.026
0
LINE
8
BLACK
6
CONTINUOUS
10
157.477
20
-125.026
11
157.477
21
-125.026
0
LINE
8
BLACK
6
CONTINUOUS
10
157.477
20
-125.026
11
157.474
21
-125.038
0
LINE
8
BLACK
6
CONTINUOUS
10
157.474
20
-125.038
11
157.47
21
-125.049
0
LINE
8
BLACK
6
CONTINUOUS
10
157.47
20
-125.049
11
157.47
21
-125.05
0
LINE
8
BLACK
6
CONTINUOUS
10
157.47
20
-125.05
11
157.47
21
-125.05
0
LINE
8
BLACK
6
CONTINUOUS
10
157.47
20
-125.05
11
157.464
21
-125.06
0
LINE
8
BLACK
6
CONTINUOUS
10
157.464
20
-125.06
11
157.458
21
-125.071
0
LINE
8
BLACK
6
CONTINUOUS
10
157.458
20
-125.071
11
157.458
21
-125.071
0
LINE
8
BLACK
6
CONTINUOUS
10
157.458
20
-125.071
11
157.458
21
-125.072
0
LINE
8
BLACK
6
CONTINUOUS
10
157.458
20
-125.072
11
157.45
21
-125.081
0
LINE
8
BLACK
6
CONTINUOUS
10
157.45
20
-125.081
11
157.442
21
-125.09
0
LINE
8
BLACK
6
CONTINUOUS
10
157.442
20
-125.09
11
157.442
21
-125.09
0
LINE
8
BLACK
6
CONTINUOUS
10
157.442
20
-125.09
11
157.442
21
-125.091
0
LINE
8
BLACK
6
CONTINUOUS
10
157.442
20
-125.091
11
157.433
21
-125.098
0
LINE
8
BLACK
6
CONTINUOUS
10
157.433
20
-125.098
11
157.423
21
-125.106
0
LINE
8
BLACK
6
CONTINUOUS
10
157.423
20
-125.106
11
157.423
21
-125.106
0
LINE
8
BLACK
6
CONTINUOUS
10
157.423
20
-125.106
11
157.423
21
-125.106
0
LINE
8
BLACK
6
CONTINUOUS
10
157.423
20
-125.106
11
157.412
21
-125.112
0
LINE
8
BLACK
6
CONTINUOUS
10
157.412
20
-125.112
11
157.401
21
-125.117
0
LINE
8
BLACK
6
CONTINUOUS
10
157.401
20
-125.117
11
157.401
21
-125.118
0
LINE
8
BLACK
6
CONTINUOUS
10
157.401
20
-125.118
11
157.401
21
-125.118
0
LINE
8
BLACK
6
CONTINUOUS
10
157.401
20
-125.118
11
157.389
21
-125.121
0
LINE
8
BLACK
6
CONTINUOUS
10
157.389
20
-125.121
11
157.378
21
-125.125
0
LINE
8
BLACK
6
CONTINUOUS
10
157.378
20
-125.125
11
157.377
21
-125.125
0
LINE
8
BLACK
6
CONTINUOUS
10
157.377
20
-125.125
11
157.377
21
-125.125
0
LINE
8
BLACK
6
CONTINUOUS
10
157.377
20
-125.125
11
157.365
21
-125.126
0
LINE
8
BLACK
6
CONTINUOUS
10
157.365
20
-125.126
11
157.353
21
-125.127
0
LINE
8
BLACK
6
CONTINUOUS
10
157.353
20
-125.127
11
143.129
21
-125.127
0
LINE
8
BLACK
6
CONTINUOUS
10
143.129
20
-125.127
11
143.128
21
-125.127
0
LINE
8
BLACK
6
CONTINUOUS
10
143.128
20
-125.127
11
143.128
21
-125.127
0
LINE
8
BLACK
6
CONTINUOUS
10
143.128
20
-125.127
11
143.128
21
-125.127
0
LINE
8
BLACK
6
CONTINUOUS
10
143.128
20
-125.127
11
143.127
21
-125.127
0
LINE
8
BLACK
6
CONTINUOUS
10
143.127
20
-125.127
11
143.115
21
-125.126
0
LINE
8
BLACK
6
CONTINUOUS
10
143.115
20
-125.126
11
143.103
21
-125.124
0
LINE
8
BLACK
6
CONTINUOUS
10
143.103
20
-125.124
11
143.103
21
-125.124
0
LINE
8
BLACK
6
CONTINUOUS
10
143.103
20
-125.124
11
143.103
21
-125.124
0
LINE
8
BLACK
6
CONTINUOUS
10
143.103
20
-125.124
11
143.091
21
-125.121
0
LINE
8
BLACK
6
CONTINUOUS
10
143.091
20
-125.121
11
143.08
21
-125.117
0
LINE
8
BLACK
6
CONTINUOUS
10
143.08
20
-125.117
11
143.079
21
-125.117
0
LINE
8
BLACK
6
CONTINUOUS
10
143.079
20
-125.117
11
143.079
21
-125.117
0
LINE
8
BLACK
6
CONTINUOUS
10
143.079
20
-125.117
11
143.069
21
-125.111
0
LINE
8
BLACK
6
CONTINUOUS
10
143.069
20
-125.111
11
143.058
21
-125.105
0
LINE
8
BLACK
6
CONTINUOUS
10
143.058
20
-125.105
11
143.058
21
-125.105
0
LINE
8
BLACK
6
CONTINUOUS
10
143.058
20
-125.105
11
143.057
21
-125.105
0
LINE
8
BLACK
6
CONTINUOUS
10
143.057
20
-125.105
11
143.048
21
-125.097
0
LINE
8
BLACK
6
CONTINUOUS
10
143.048
20
-125.097
11
143.039
21
-125.089
0
LINE
8
BLACK
6
CONTINUOUS
10
143.039
20
-125.089
11
143.039
21
-125.089
0
LINE
8
BLACK
6
CONTINUOUS
10
143.039
20
-125.089
11
143.038
21
-125.089
0
LINE
8
BLACK
6
CONTINUOUS
10
143.038
20
-125.089
11
143.031
21
-125.08
0
LINE
8
BLACK
6
CONTINUOUS
10
143.031
20
-125.08
11
143.023
21
-125.07
0
LINE
8
BLACK
6
CONTINUOUS
10
143.023
20
-125.07
11
143.023
21
-125.07
0
LINE
8
BLACK
6
CONTINUOUS
10
143.023
20
-125.07
11
143.023
21
-125.07
0
LINE
8
BLACK
6
CONTINUOUS
10
143.023
20
-125.07
11
143.017
21
-125.059
0
LINE
8
BLACK
6
CONTINUOUS
10
143.017
20
-125.059
11
143.012
21
-125.048
0
LINE
8
BLACK
6
CONTINUOUS
10
143.012
20
-125.048
11
143.011
21
-125.048
0
LINE
8
BLACK
6
CONTINUOUS
10
143.011
20
-125.048
11
143.011
21
-125.048
0
LINE
8
BLACK
6
CONTINUOUS
10
143.011
20
-125.048
11
143.008
21
-125.036
0
LINE
8
BLACK
6
CONTINUOUS
10
143.008
20
-125.036
11
143.004
21
-125.025
0
LINE
8
BLACK
6
CONTINUOUS
10
143.004
20
-125.025
11
143.004
21
-125.024
0
LINE
8
BLACK
6
CONTINUOUS
10
143.004
20
-125.024
11
143.004
21
-125.024
0
LINE
8
BLACK
6
CONTINUOUS
10
143.004
20
-125.024
11
143.003
21
-125.012
0
LINE
8
BLACK
6
CONTINUOUS
10
143.003
20
-125.012
11
143.002
21
-125
0
LINE
8
BLACK
6
CONTINUOUS
10
143.002
20
-125
11
143.002
21
-112.395
0
LINE
8
BLACK
6
CONTINUOUS
10
143.002
20
-112.395
11
143.002
21
-112.394
0
LINE
8
BLACK
6
CONTINUOUS
10
143.002
20
-112.394
11
143.002
21
-112.394
0
LINE
8
BLACK
6
CONTINUOUS
10
143.002
20
-112.394
11
143.002
21
-112.394
0
LINE
8
BLACK
6
CONTINUOUS
10
143.002
20
-112.394
11
143.002
21
-112.393
0
LINE
8
BLACK
6
CONTINUOUS
10
143.002
20
-112.393
11
143.003
21
-112.381
0
LINE
8
BLACK
6
CONTINUOUS
10
143.003
20
-112.381
11
143.005
21
-112.369
0
LINE
8
BLACK
6
CONTINUOUS
10
143.005
20
-112.369
11
143.005
21
-112.369
0
LINE
8
BLACK
6
CONTINUOUS
10
143.005
20
-112.369
11
143.005
21
-112.369
0
LINE
8
BLACK
6
CONTINUOUS
10
143.005
20
-112.369
11
143.008
21
-112.357
0
LINE
8
BLACK
6
CONTINUOUS
10
143.008
20
-112.357
11
143.012
21
-112.346
0
LINE
8
BLACK
6
CONTINUOUS
10
143.012
20
-112.346
11
143.012
21
-112.345
0
LINE
8
BLACK
6
CONTINUOUS
10
143.012
20
-112.345
11
143.012
21
-112.345
0
LINE
8
BLACK
6
CONTINUOUS
10
143.012
20
-112.345
11
143.018
21
-112.335
0
LINE
8
BLACK
6
CONTINUOUS
10
143.018
20
-112.335
11
143.024
21
-112.324
0
LINE
8
BLACK
6
CONTINUOUS
10
143.024
20
-112.324
11
143.024
21
-112.324
0
LINE
8
BLACK
6
CONTINUOUS
10
143.024
20
-112.324
11
143.024
21
-112.323
0
LINE
8
BLACK
6
CONTINUOUS
10
143.024
20
-112.323
11
143.032
21
-112.314
0
LINE
8
BLACK
6
CONTINUOUS
10
143.032
20
-112.314
11
143.04
21
-112.305
0
LINE
8
BLACK
6
CONTINUOUS
10
143.04
20
-112.305
11
143.04
21
-112.305
0
LINE
8
BLACK
6
CONTINUOUS
10
143.04
20
-112.305
11
143.04
21
-112.304
0
LINE
8
BLACK
6
CONTINUOUS
10
143.04
20
-112.304
11
143.049
21
-112.297
0
LINE
8
BLACK
6
CONTINUOUS
10
143.049
20
-112.297
11
143.059
21
-112.289
0
LINE
8
BLACK
6
CONTINUOUS
10
143.059
20
-112.289
11
143.059
21
-112.289
0
LINE
8
BLACK
6
CONTINUOUS
10
143.059
20
-112.289
11
143.059
21
-112.289
0
LINE
8
BLACK
6
CONTINUOUS
10
143.059
20
-112.289
11
143.07
21
-112.283
0
LINE
8
BLACK
6
CONTINUOUS
10
143.07
20
-112.283
11
143.081
21
-112.278
0
LINE
8
BLACK
6
CONTINUOUS
10
143.081
20
-112.278
11
143.081
21
-112.277
0
LINE
8
BLACK
6
CONTINUOUS
10
143.081
20
-112.277
11
143.081
21
-112.277
0
LINE
8
BLACK
6
CONTINUOUS
10
143.081
20
-112.277
11
143.093
21
-112.274
0
LINE
8
BLACK
6
CONTINUOUS
10
143.093
20
-112.274
11
143.104
21
-112.27
0
LINE
8
BLACK
6
CONTINUOUS
10
143.104
20
-112.27
11
143.105
21
-112.27
0
LINE
8
BLACK
6
CONTINUOUS
10
143.105
20
-112.27
11
143.105
21
-112.27
0
LINE
8
BLACK
6
CONTINUOUS
10
143.105
20
-112.27
11
143.117
21
-112.269
0
LINE
8
BLACK
6
CONTINUOUS
10
143.117
20
-112.269
11
143.129
21
-112.268
0
LINE
8
BLACK
6
CONTINUOUS
10
143.129
20
-112.268
11
157.353
21
-112.268
0
LINE
8
BLACK
6
CONTINUOUS
10
157.353
20
-112.268
11
157.354
21
-112.268
0
LINE
8
BLACK
6
CONTINUOUS
10
128.906
20
-31.496
11
128.906
21
-31.496
0
LINE
8
BLACK
6
CONTINUOUS
10
128.906
20
-31.496
11
128.906
21
-31.496
0
LINE
8
BLACK
6
CONTINUOUS
10
128.906
20
-31.496
11
128.907
21
-31.496
0
LINE
8
BLACK
6
CONTINUOUS
10
128.907
20
-31.496
11
128.919
21
-31.4973
0
LINE
8
BLACK
6
CONTINUOUS
10
128.919
20
-31.4973
11
128.931
21
-31.4986
0
LINE
8
BLACK
6
CONTINUOUS
10
128.931
20
-31.4986
11
128.931
21
-31.4987
0
LINE
8
BLACK
6
CONTINUOUS
10
128.931
20
-31.4987
11
128.931
21
-31.4988
0
LINE
8
BLACK
6
CONTINUOUS
10
128.931
20
-31.4988
11
128.943
21
-31.5024
0
LINE
8
BLACK
6
CONTINUOUS
10
128.943
20
-31.5024
11
128.954
21
-31.5059
0
LINE
8
BLACK
6
CONTINUOUS
10
128.954
20
-31.5059
11
128.955
21
-31.5061
0
LINE
8
BLACK
6
CONTINUOUS
10
128.955
20
-31.5061
11
128.955
21
-31.5063
0
LINE
8
BLACK
6
CONTINUOUS
10
128.955
20
-31.5063
11
128.965
21
-31.512
0
LINE
8
BLACK
6
CONTINUOUS
10
128.965
20
-31.512
11
128.976
21
-31.5177
0
LINE
8
BLACK
6
CONTINUOUS
10
128.976
20
-31.5177
11
128.976
21
-31.518
0
LINE
8
BLACK
6
CONTINUOUS
10
128.976
20
-31.518
11
128.977
21
-31.5182
0
LINE
8
BLACK
6
CONTINUOUS
10
128.977
20
-31.5182
11
128.986
21
-31.5259
0
LINE
8
BLACK
6
CONTINUOUS
10
128.986
20
-31.5259
11
128.995
21
-31.5335
0
LINE
8
BLACK
6
CONTINUOUS
10
128.995
20
-31.5335
11
128.995
21
-31.5339
0
LINE
8
BLACK
6
CONTINUOUS
10
128.995
20
-31.5339
11
128.996
21
-31.5341
0
LINE
8
BLACK
6
CONTINUOUS
10
128.996
20
-31.5341
11
129.003
21
-31.5435
0
LINE
8
BLACK
6
CONTINUOUS
10
129.003
20
-31.5435
11
129.011
21
-31.5527
0
LINE
8
BLACK
6
CONTINUOUS
10
129.011
20
-31.5527
11
129.011
21
-31.5531
0
LINE
8
BLACK
6
CONTINUOUS
10
129.011
20
-31.5531
11
129.011
21
-31.5535
0
LINE
8
BLACK
6
CONTINUOUS
10
129.011
20
-31.5535
11
129.017
21
-31.5641
0
LINE
8
BLACK
6
CONTINUOUS
10
129.017
20
-31.5641
11
129.022
21
-31.5746
0
LINE
8
BLACK
6
CONTINUOUS
10
129.022
20
-31.5746
11
129.023
21
-31.575
0
LINE
8
BLACK
6
CONTINUOUS
10
129.023
20
-31.575
11
129.023
21
-31.5754
0
LINE
8
BLACK
6
CONTINUOUS
10
129.023
20
-31.5754
11
129.026
21
-31.5869
0
LINE
8
BLACK
6
CONTINUOUS
10
129.026
20
-31.5869
11
129.03
21
-31.5983
0
LINE
8
BLACK
6
CONTINUOUS
10
129.03
20
-31.5983
11
129.03
21
-31.5988
0
LINE
8
BLACK
6
CONTINUOUS
10
129.03
20
-31.5988
11
129.03
21
-31.5992
0
LINE
8
BLACK
6
CONTINUOUS
10
129.03
20
-31.5992
11
129.031
21
-31.6111
0
LINE
8
BLACK
6
CONTINUOUS
10
129.031
20
-31.6111
11
129.032
21
-31.623
0
LINE
8
BLACK
6
CONTINUOUS
10
129.032
20
-31.623
11
129.032
21
-120.777
0
LINE
8
BLACK
6
CONTINUOUS
10
129.032
20
-120.777
11
129.032
21
-120.778
0
LINE
8
BLACK
6
CONTINUOUS
10
129.032
20
-120.778
11
129.032
21
-120.778
0
LINE
8
BLACK
6
CONTINUOUS
10
129.032
20
-120.778
11
129.032
21
-120.778
0
LINE
8
BLACK
6
CONTINUOUS
10
129.032
20
-120.778
11
129.032
21
-120.779
0
LINE
8
BLACK
6
CONTINUOUS
10
129.032
20
-120.779
11
129.031
21
-120.791
0
LINE
8
BLACK
6
CONTINUOUS
10
129.031
20
-120.791
11
129.029
21
-120.803
0
LINE
8
BLACK
6
CONTINUOUS
10
129.029
20
-120.803
11
129.029
21
-120.803
0
LINE
8
BLACK
6
CONTINUOUS
10
129.029
20
-120.803
11
129.029
21
-120.803
0
LINE
8
BLACK
6
CONTINUOUS
10
129.029
20
-120.803
11
129.026
21
-120.815
0
LINE
8
BLACK
6
CONTINUOUS
10
129.026
20
-120.815
11
129.022
21
-120.826
0
LINE
8
BLACK
6
CONTINUOUS
10
129.022
20
-120.826
11
129.022
21
-120.827
0
LINE
8
BLACK
6
CONTINUOUS
10
129.022
20
-120.827
11
129.022
21
-120.827
0
LINE
8
BLACK
6
CONTINUOUS
10
129.022
20
-120.827
11
129.016
21
-120.837
0
LINE
8
BLACK
6
CONTINUOUS
10
129.016
20
-120.837
11
129.01
21
-120.848
0
LINE
8
BLACK
6
CONTINUOUS
10
129.01
20
-120.848
11
129.01
21
-120.848
0
LINE
8
BLACK
6
CONTINUOUS
10
129.01
20
-120.848
11
129.01
21
-120.849
0
LINE
8
BLACK
6
CONTINUOUS
10
129.01
20
-120.849
11
129.002
21
-120.858
0
LINE
8
BLACK
6
CONTINUOUS
10
129.002
20
-120.858
11
128.994
21
-120.867
0
LINE
8
BLACK
6
CONTINUOUS
10
128.994
20
-120.867
11
128.994
21
-120.867
0
LINE
8
BLACK
6
CONTINUOUS
10
128.994
20
-120.867
11
128.994
21
-120.868
0
LINE
8
BLACK
6
CONTINUOUS
10
128.994
20
-120.868
11
128.985
21
-120.875
0
LINE
8
BLACK
6
CONTINUOUS
10
128.985
20
-120.875
11
128.975
21
-120.883
0
LINE
8
BLACK
6
CONTINUOUS
10
128.975
20
-120.883
11
128.975
21
-120.883
0
LINE
8
BLACK
6
CONTINUOUS
10
128.975
20
-120.883
11
128.975
21
-120.883
0
LINE
8
BLACK
6
CONTINUOUS
10
128.975
20
-120.883
11
128.964
21
-120.889
0
LINE
8
BLACK
6
CONTINUOUS
10
128.964
20
-120.889
11
128.953
21
-120.894
0
LINE
8
BLACK
6
CONTINUOUS
10
128.953
20
-120.894
11
128.953
21
-120.895
0
LINE
8
BLACK
6
CONTINUOUS
10
128.953
20
-120.895
11
128.953
21
-120.895
0
LINE
8
BLACK
6
CONTINUOUS
10
128.953
20
-120.895
11
128.941
21
-120.898
0
LINE
8
BLACK
6
CONTINUOUS
10
128.941
20
-120.898
11
128.93
21
-120.902
0
LINE
8
BLACK
6
CONTINUOUS
10
128.93
20
-120.902
11
128.929
21
-120.902
0
LINE
8
BLACK
6
CONTINUOUS
10
128.929
20
-120.902
11
128.929
21
-120.902
0
LINE
8
BLACK
6
CONTINUOUS
10
128.929
20
-120.902
11
128.917
21
-120.903
0
LINE
8
BLACK
6
CONTINUOUS
10
128.917
20
-120.903
11
128.905
21
-120.904
0
LINE
8
BLACK
6
CONTINUOUS
10
128.905
20
-120.904
11
99.695
21
-120.904
0
LINE
8
BLACK
6
CONTINUOUS
10
99.695
20
-120.904
11
99.6941
21
-120.904
0
LINE
8
BLACK
6
CONTINUOUS
10
99.6941
20
-120.904
11
99.6941
21
-120.904
0
LINE
8
BLACK
6
CONTINUOUS
10
99.6941
20
-120.904
11
99.6941
21
-120.904
0
LINE
8
BLACK
6
CONTINUOUS
10
99.6941
20
-120.904
11
99.6932
21
-120.904
0
LINE
8
BLACK
6
CONTINUOUS
10
99.6932
20
-120.904
11
99.6813
21
-120.903
0
LINE
8
BLACK
6
CONTINUOUS
10
99.6813
20
-120.903
11
99.6695
21
-120.901
0
LINE
8
BLACK
6
CONTINUOUS
10
99.6695
20
-120.901
11
99.669
21
-120.901
0
LINE
8
BLACK
6
CONTINUOUS
10
99.669
20
-120.901
11
99.6686
21
-120.901
0
LINE
8
BLACK
6
CONTINUOUS
10
99.6686
20
-120.901
11
99.6572
21
-120.898
0
LINE
8
BLACK
6
CONTINUOUS
10
99.6572
20
-120.898
11
99.6458
21
-120.894
0
LINE
8
BLACK
6
CONTINUOUS
10
99.6458
20
-120.894
11
99.6454
21
-120.894
0
LINE
8
BLACK
6
CONTINUOUS
10
99.6454
20
-120.894
11
99.645
21
-120.894
0
LINE
8
BLACK
6
CONTINUOUS
10
99.645
20
-120.894
11
99.6345
21
-120.888
0
LINE
8
BLACK
6
CONTINUOUS
10
99.6345
20
-120.888
11
99.624
21
-120.882
0
LINE
8
BLACK
6
CONTINUOUS
10
99.624
20
-120.882
11
99.6236
21
-120.882
0
LINE
8
BLACK
6
CONTINUOUS
10
99.6236
20
-120.882
11
99.6232
21
-120.882
0
LINE
8
BLACK
6
CONTINUOUS
10
99.6232
20
-120.882
11
99.6141
21
-120.874
0
LINE
8
BLACK
6
CONTINUOUS
10
99.6141
20
-120.874
11
99.6049
21
-120.866
0
LINE
8
BLACK
6
CONTINUOUS
10
99.6049
20
-120.866
11
99.6046
21
-120.866
0
LINE
8
BLACK
6
CONTINUOUS
10
99.6046
20
-120.866
11
99.6043
21
-120.866
0
LINE
8
BLACK
6
CONTINUOUS
10
99.6043
20
-120.866
11
99.5968
21
-120.857
0
LINE
8
BLACK
6
CONTINUOUS
10
99.5968
20
-120.857
11
99.5892
21
-120.847
0
LINE
8
BLACK
6
CONTINUOUS
10
99.5892
20
-120.847
11
99.589
21
-120.847
0
LINE
8
BLACK
6
CONTINUOUS
10
99.589
20
-120.847
11
99.5887
21
-120.847
0
LINE
8
BLACK
6
CONTINUOUS
10
99.5887
20
-120.847
11
99.5832
21
-120.836
0
LINE
8
BLACK
6
CONTINUOUS
10
99.5832
20
-120.836
11
99.5776
21
-120.825
0
LINE
8
BLACK
6
CONTINUOUS
10
99.5776
20
-120.825
11
99.5775
21
-120.825
0
LINE
8
BLACK
6
CONTINUOUS
10
99.5775
20
-120.825
11
99.5772
21
-120.825
0
LINE
8
BLACK
6
CONTINUOUS
10
99.5772
20
-120.825
11
99.5739
21
-120.813
0
LINE
8
BLACK
6
CONTINUOUS
10
99.5739
20
-120.813
11
99.5704
21
-120.802
0
LINE
8
BLACK
6
CONTINUOUS
10
99.5704
20
-120.802
11
99.5704
21
-120.801
0
LINE
8
BLACK
6
CONTINUOUS
10
99.5704
20
-120.801
11
99.5703
21
-120.801
0
LINE
8
BLACK
6
CONTINUOUS
10
99.5703
20
-120.801
11
99.5692
21
-120.789
0
LINE
8
BLACK
6
CONTINUOUS
10
99.5692
20
-120.789
11
99.568
21
-120.777
0
LINE
8
BLACK
6
CONTINUOUS
10
99.568
20
-120.777
11
99.568
21
-31.623
0
LINE
8
BLACK
6
CONTINUOUS
10
99.568
20
-31.623
11
99.568
21
-31.6221
0
LINE
8
BLACK
6
CONTINUOUS
10
99.568
20
-31.6221
11
99.568
21
-31.6221
0
LINE
8
BLACK
6
CONTINUOUS
10
99.568
20
-31.6221
11
99.568
21
-31.6221
0
LINE
8
BLACK
6
CONTINUOUS
10
99.568
20
-31.6221
11
99.568
21
-31.6212
0
LINE
8
BLACK
6
CONTINUOUS
10
99.568
20
-31.6212
11
99.5693
21
-31.6093
0
LINE
8
BLACK
6
CONTINUOUS
10
99.5693
20
-31.6093
11
99.5706
21
-31.5975
0
LINE
8
BLACK
6
CONTINUOUS
10
99.5706
20
-31.5975
11
99.5707
21
-31.597
0
LINE
8
BLACK
6
CONTINUOUS
10
99.5707
20
-31.597
11
99.5708
21
-31.5966
0
LINE
8
BLACK
6
CONTINUOUS
10
99.5708
20
-31.5966
11
99.5744
21
-31.5852
0
LINE
8
BLACK
6
CONTINUOUS
10
99.5744
20
-31.5852
11
99.5779
21
-31.5738
0
LINE
8
BLACK
6
CONTINUOUS
10
99.5779
20
-31.5738
11
99.5781
21
-31.5734
0
LINE
8
BLACK
6
CONTINUOUS
10
99.5781
20
-31.5734
11
99.5783
21
-31.573
0
LINE
8
BLACK
6
CONTINUOUS
10
99.5783
20
-31.573
11
99.584
21
-31.5625
0
LINE
8
BLACK
6
CONTINUOUS
10
99.584
20
-31.5625
11
99.5897
21
-31.552
0
LINE
8
BLACK
6
CONTINUOUS
10
99.5897
20
-31.552
11
99.59
21
-31.5516
0
LINE
8
BLACK
6
CONTINUOUS
10
99.59
20
-31.5516
11
99.5902
21
-31.5512
0
LINE
8
BLACK
6
CONTINUOUS
10
99.5902
20
-31.5512
11
99.5979
21
-31.5421
0
LINE
8
BLACK
6
CONTINUOUS
10
99.5979
20
-31.5421
11
99.6055
21
-31.5329
0
LINE
8
BLACK
6
CONTINUOUS
10
99.6055
20
-31.5329
11
99.6059
21
-31.5326
0
LINE
8
BLACK
6
CONTINUOUS
10
99.6059
20
-31.5326
11
99.6061
21
-31.5323
0
LINE
8
BLACK
6
CONTINUOUS
10
99.6061
20
-31.5323
11
99.6155
21
-31.5248
0
LINE
8
BLACK
6
CONTINUOUS
10
99.6155
20
-31.5248
11
99.6247
21
-31.5172
0
LINE
8
BLACK
6
CONTINUOUS
10
99.6247
20
-31.5172
11
99.6251
21
-31.517
0
LINE
8
BLACK
6
CONTINUOUS
10
99.6251
20
-31.517
11
99.6255
21
-31.5167
0
LINE
8
BLACK
6
CONTINUOUS
10
99.6255
20
-31.5167
11
99.6361
21
-31.5112
0
LINE
8
BLACK
6
CONTINUOUS
10
99.6361
20
-31.5112
11
99.6466
21
-31.5056
0
LINE
8
BLACK
6
CONTINUOUS
10
99.6466
20
-31.5056
11
99.647
21
-31.5055
0
LINE
8
BLACK
6
CONTINUOUS
10
99.647
20
-31.5055
11
99.6474
21
-31.5052
0
LINE
8
BLACK
6
CONTINUOUS
10
99.6474
20
-31.5052
11
99.6589
21
-31.5019
0
LINE
8
BLACK
6
CONTINUOUS
10
99.6589
20
-31.5019
11
99.6703
21
-31.4984
0
LINE
8
BLACK
6
CONTINUOUS
10
99.6703
20
-31.4984
11
99.6708
21
-31.4984
0
LINE
8
BLACK
6
CONTINUOUS
10
99.6708
20
-31.4984
11
99.6712
21
-31.4982
0
LINE
8
BLACK
6
CONTINUOUS
10
99.6712
20
-31.4982
11
99.6831
21
-31.4972
0
LINE
8
BLACK
6
CONTINUOUS
10
99.6831
20
-31.4972
11
99.695
21
-31.496
0
LINE
8
BLACK
6
CONTINUOUS
10
99.695
20
-31.496
11
128.905
21
-31.496
0
LINE
8
BLACK
6
CONTINUOUS
10
128.905
20
-31.496
11
128.906
21
-31.496
0
LINE
8
BLACK
6
CONTINUOUS
10
173.102
20
-31.496
11
173.102
21
-31.496
0
LINE
8
BLACK
6
CONTINUOUS
10
173.102
20
-31.496
11
173.102
21
-31.496
0
LINE
8
BLACK
6
CONTINUOUS
10
173.102
20
-31.496
11
173.103
21
-31.496
0
LINE
8
BLACK
6
CONTINUOUS
10
173.103
20
-31.496
11
173.115
21
-31.4973
0
LINE
8
BLACK
6
CONTINUOUS
10
173.115
20
-31.4973
11
173.127
21
-31.4986
0
LINE
8
BLACK
6
CONTINUOUS
10
173.127
20
-31.4986
11
173.127
21
-31.4987
0
LINE
8
BLACK
6
CONTINUOUS
10
173.127
20
-31.4987
11
173.127
21
-31.4988
0
LINE
8
BLACK
6
CONTINUOUS
10
173.127
20
-31.4988
11
173.139
21
-31.5024
0
LINE
8
BLACK
6
CONTINUOUS
10
173.139
20
-31.5024
11
173.15
21
-31.5059
0
LINE
8
BLACK
6
CONTINUOUS
10
173.15
20
-31.5059
11
173.151
21
-31.5061
0
LINE
8
BLACK
6
CONTINUOUS
10
173.151
20
-31.5061
11
173.151
21
-31.5063
0
LINE
8
BLACK
6
CONTINUOUS
10
173.151
20
-31.5063
11
173.161
21
-31.512
0
LINE
8
BLACK
6
CONTINUOUS
10
173.161
20
-31.512
11
173.172
21
-31.5177
0
LINE
8
BLACK
6
CONTINUOUS
10
173.172
20
-31.5177
11
173.172
21
-31.518
0
LINE
8
BLACK
6
CONTINUOUS
10
173.172
20
-31.518
11
173.173
21
-31.5182
0
LINE
8
BLACK
6
CONTINUOUS
10
173.173
20
-31.5182
11
173.182
21
-31.5259
0
LINE
8
BLACK
6
CONTINUOUS
10
173.182
20
-31.5259
11
173.191
21
-31.5335
0
LINE
8
BLACK
6
CONTINUOUS
10
173.191
20
-31.5335
11
173.191
21
-31.5339
0
LINE
8
BLACK
6
CONTINUOUS
10
173.191
20
-31.5339
11
173.192
21
-31.5341
0
LINE
8
BLACK
6
CONTINUOUS
10
173.192
20
-31.5341
11
173.199
21
-31.5435
0
LINE
8
BLACK
6
CONTINUOUS
10
173.199
20
-31.5435
11
173.207
21
-31.5527
0
LINE
8
BLACK
6
CONTINUOUS
10
173.207
20
-31.5527
11
173.207
21
-31.5531
0
LINE
8
BLACK
6
CONTINUOUS
10
173.207
20
-31.5531
11
173.207
21
-31.5535
0
LINE
8
BLACK
6
CONTINUOUS
10
173.207
20
-31.5535
11
173.213
21
-31.5641
0
LINE
8
BLACK
6
CONTINUOUS
10
173.213
20
-31.5641
11
173.218
21
-31.5746
0
LINE
8
BLACK
6
CONTINUOUS
10
173.218
20
-31.5746
11
173.219
21
-31.575
0
LINE
8
BLACK
6
CONTINUOUS
10
173.219
20
-31.575
11
173.219
21
-31.5754
0
LINE
8
BLACK
6
CONTINUOUS
10
173.219
20
-31.5754
11
173.222
21
-31.5869
0
LINE
8
BLACK
6
CONTINUOUS
10
173.222
20
-31.5869
11
173.226
21
-31.5983
0
LINE
8
BLACK
6
CONTINUOUS
10
173.226
20
-31.5983
11
173.226
21
-31.5988
0
LINE
8
BLACK
6
CONTINUOUS
10
173.226
20
-31.5988
11
173.226
21
-31.5992
0
LINE
8
BLACK
6
CONTINUOUS
10
173.226
20
-31.5992
11
173.227
21
-31.6111
0
LINE
8
BLACK
6
CONTINUOUS
10
173.227
20
-31.6111
11
173.228
21
-31.623
0
LINE
8
BLACK
6
CONTINUOUS
10
173.228
20
-31.623
11
173.228
21
-120.777
0
LINE
8
BLACK
6
CONTINUOUS
10
173.228
20
-120.777
11
173.228
21
-120.778
0
LINE
8
BLACK
6
CONTINUOUS
10
173.228
20
-120.778
11
173.228
21
-120.778
0
LINE
8
BLACK
6
CONTINUOUS
10
173.228
20
-120.778
11
173.228
21
-120.778
0
LINE
8
BLACK
6
CONTINUOUS
10
173.228
20
-120.778
11
173.228
21
-120.779
0
LINE
8
BLACK
6
CONTINUOUS
10
173.228
20
-120.779
11
173.227
21
-120.791
0
LINE
8
BLACK
6
CONTINUOUS
10
173.227
20
-120.791
11
173.225
21
-120.803
0
LINE
8
BLACK
6
CONTINUOUS
10
173.225
20
-120.803
11
173.225
21
-120.803
0
LINE
8
BLACK
6
CONTINUOUS
10
173.225
20
-120.803
11
173.225
21
-120.803
0
LINE
8
BLACK
6
CONTINUOUS
10
173.225
20
-120.803
11
173.222
21
-120.815
0
LINE
8
BLACK
6
CONTINUOUS
10
173.222
20
-120.815
11
173.218
21
-120.826
0
LINE
8
BLACK
6
CONTINUOUS
10
173.218
20
-120.826
11
173.218
21
-120.827
0
LINE
8
BLACK
6
CONTINUOUS
10
173.218
20
-120.827
11
173.218
21
-120.827
0
LINE
8
BLACK
6
CONTINUOUS
10
173.218
20
-120.827
11
173.212
21
-120.837
0
LINE
8
BLACK
6
CONTINUOUS
10
173.212
20
-120.837
11
173.206
21
-120.848
0
LINE
8
BLACK
6
CONTINUOUS
10
173.206
20
-120.848
11
173.206
21
-120.848
0
LINE
8
BLACK
6
CONTINUOUS
10
173.206
20
-120.848
11
173.206
21
-120.849
0
LINE
8
BLACK
6
CONTINUOUS
10
173.206
20
-120.849
11
173.198
21
-120.858
0
LINE
8
BLACK
6
CONTINUOUS
10
173.198
20
-120.858
11
173.19
21
-120.867
0
LINE
8
BLACK
6
CONTINUOUS
10
173.19
20
-120.867
11
173.19
21
-120.867
0
LINE
8
BLACK
6
CONTINUOUS
10
173.19
20
-120.867
11
173.19
21
-120.868
0
LINE
8
BLACK
6
CONTINUOUS
10
173.19
20
-120.868
11
173.181
21
-120.875
0
LINE
8
BLACK
6
CONTINUOUS
10
173.181
20
-120.875
11
173.171
21
-120.883
0
LINE
8
BLACK
6
CONTINUOUS
10
173.171
20
-120.883
11
173.171
21
-120.883
0
LINE
8
BLACK
6
CONTINUOUS
10
173.171
20
-120.883
11
173.171
21
-120.883
0
LINE
8
BLACK
6
CONTINUOUS
10
173.171
20
-120.883
11
173.16
21
-120.889
0
LINE
8
BLACK
6
CONTINUOUS
10
173.16
20
-120.889
11
173.149
21
-120.894
0
LINE
8
BLACK
6
CONTINUOUS
10
173.149
20
-120.894
11
173.149
21
-120.895
0
LINE
8
BLACK
6
CONTINUOUS
10
173.149
20
-120.895
11
173.149
21
-120.895
0
LINE
8
BLACK
6
CONTINUOUS
10
173.149
20
-120.895
11
173.137
21
-120.898
0
LINE
8
BLACK
6
CONTINUOUS
10
173.137
20
-120.898
11
173.126
21
-120.902
0
LINE
8
BLACK
6
CONTINUOUS
10
173.126
20
-120.902
11
173.125
21
-120.902
0
LINE
8
BLACK
6
CONTINUOUS
10
173.125
20
-120.902
11
173.125
21
-120.902
0
LINE
8
BLACK
6
CONTINUOUS
10
173.125
20
-120.902
11
173.113
21
-120.903
0
LINE
8
BLACK
6
CONTINUOUS
10
173.113
20
-120.903
11
173.101
21
-120.904
0
LINE
8
BLACK
6
CONTINUOUS
10
173.101
20
-120.904
11
159.639
21
-120.904
0
LINE
8
BLACK
6
CONTINUOUS
10
159.639
20
-120.904
11
159.638
21
-120.904
0
LINE
8
BLACK
6
CONTINUOUS
10
159.638
20
-120.904
11
159.638
21
-120.904
0
LINE
8
BLACK
6
CONTINUOUS
10
159.638
20
-120.904
11
159.638
21
-120.904
0
LINE
8
BLACK
6
CONTINUOUS
10
159.638
20
-120.904
11
159.637
21
-120.904
0
LINE
8
BLACK
6
CONTINUOUS
10
159.637
20
-120.904
11
159.625
21
-120.903
0
LINE
8
BLACK
6
CONTINUOUS
10
159.625
20
-120.903
11
159.613
21
-120.901
0
LINE
8
BLACK
6
CONTINUOUS
10
159.613
20
-120.901
11
159.613
21
-120.901
0
LINE
8
BLACK
6
CONTINUOUS
10
159.613
20
-120.901
11
159.613
21
-120.901
0
LINE
8
BLACK
6
CONTINUOUS
10
159.613
20
-120.901
11
159.601
21
-120.898
0
LINE
8
BLACK
6
CONTINUOUS
10
159.601
20
-120.898
11
159.59
21
-120.894
0
LINE
8
BLACK
6
CONTINUOUS
10
159.59
20
-120.894
11
159.589
21
-120.894
0
LINE
8
BLACK
6
CONTINUOUS
10
159.589
20
-120.894
11
159.589
21
-120.894
0
LINE
8
BLACK
6
CONTINUOUS
10
159.589
20
-120.894
11
159.579
21
-120.888
0
LINE
8
BLACK
6
CONTINUOUS
10
159.579
20
-120.888
11
159.568
21
-120.882
0
LINE
8
BLACK
6
CONTINUOUS
10
159.568
20
-120.882
11
159.568
21
-120.882
0
LINE
8
BLACK
6
CONTINUOUS
10
159.568
20
-120.882
11
159.567
21
-120.882
0
LINE
8
BLACK
6
CONTINUOUS
10
159.567
20
-120.882
11
159.558
21
-120.874
0
LINE
8
BLACK
6
CONTINUOUS
10
159.558
20
-120.874
11
159.549
21
-120.866
0
LINE
8
BLACK
6
CONTINUOUS
10
159.549
20
-120.866
11
159.549
21
-120.866
0
LINE
8
BLACK
6
CONTINUOUS
10
159.549
20
-120.866
11
159.548
21
-120.866
0
LINE
8
BLACK
6
CONTINUOUS
10
159.548
20
-120.866
11
159.541
21
-120.857
0
LINE
8
BLACK
6
CONTINUOUS
10
159.541
20
-120.857
11
159.533
21
-120.847
0
LINE
8
BLACK
6
CONTINUOUS
10
159.533
20
-120.847
11
159.533
21
-120.847
0
LINE
8
BLACK
6
CONTINUOUS
10
159.533
20
-120.847
11
159.533
21
-120.847
0
LINE
8
BLACK
6
CONTINUOUS
10
159.533
20
-120.847
11
159.527
21
-120.836
0
LINE
8
BLACK
6
CONTINUOUS
10
159.527
20
-120.836
11
159.522
21
-120.825
0
LINE
8
BLACK
6
CONTINUOUS
10
159.522
20
-120.825
11
159.521
21
-120.825
0
LINE
8
BLACK
6
CONTINUOUS
10
159.521
20
-120.825
11
159.521
21
-120.825
0
LINE
8
BLACK
6
CONTINUOUS
10
159.521
20
-120.825
11
159.518
21
-120.813
0
LINE
8
BLACK
6
CONTINUOUS
10
159.518
20
-120.813
11
159.514
21
-120.802
0
LINE
8
BLACK
6
CONTINUOUS
10
159.514
20
-120.802
11
159.514
21
-120.801
0
LINE
8
BLACK
6
CONTINUOUS
10
159.514
20
-120.801
11
159.514
21
-120.801
0
LINE
8
BLACK
6
CONTINUOUS
10
159.514
20
-120.801
11
159.513
21
-120.789
0
LINE
8
BLACK
6
CONTINUOUS
10
159.513
20
-120.789
11
159.512
21
-120.777
0
LINE
8
BLACK
6
CONTINUOUS
10
159.512
20
-120.777
11
159.512
21
-31.623
0
LINE
8
BLACK
6
CONTINUOUS
10
159.512
20
-31.623
11
159.512
21
-31.6221
0
LINE
8
BLACK
6
CONTINUOUS
10
159.512
20
-31.6221
11
159.512
21
-31.6221
0
LINE
8
BLACK
6
CONTINUOUS
10
159.512
20
-31.6221
11
159.512
21
-31.6221
0
LINE
8
BLACK
6
CONTINUOUS
10
159.512
20
-31.6221
11
159.512
21
-31.6212
0
LINE
8
BLACK
6
CONTINUOUS
10
159.512
20
-31.6212
11
159.513
21
-31.6093
0
LINE
8
BLACK
6
CONTINUOUS
10
159.513
20
-31.6093
11
159.515
21
-31.5975
0
LINE
8
BLACK
6
CONTINUOUS
10
159.515
20
-31.5975
11
159.515
21
-31.597
0
LINE
8
BLACK
6
CONTINUOUS
10
159.515
20
-31.597
11
159.515
21
-31.5966
0
LINE
8
BLACK
6
CONTINUOUS
10
159.515
20
-31.5966
11
159.518
21
-31.5852
0
LINE
8
BLACK
6
CONTINUOUS
10
159.518
20
-31.5852
11
159.522
21
-31.5738
0
LINE
8
BLACK
6
CONTINUOUS
10
159.522
20
-31.5738
11
159.522
21
-31.5734
0
LINE
8
BLACK
6
CONTINUOUS
10
159.522
20
-31.5734
11
159.522
21
-31.573
0
LINE
8
BLACK
6
CONTINUOUS
10
159.522
20
-31.573
11
159.528
21
-31.5625
0
LINE
8
BLACK
6
CONTINUOUS
10
159.528
20
-31.5625
11
159.534
21
-31.552
0
LINE
8
BLACK
6
CONTINUOUS
10
159.534
20
-31.552
11
159.534
21
-31.5516
0
LINE
8
BLACK
6
CONTINUOUS
10
159.534
20
-31.5516
11
159.534
21
-31.5512
0
LINE
8
BLACK
6
CONTINUOUS
10
159.534
20
-31.5512
11
159.542
21
-31.5421
0
LINE
8
BLACK
6
CONTINUOUS
10
159.542
20
-31.5421
11
159.55
21
-31.5329
0
LINE
8
BLACK
6
CONTINUOUS
10
159.55
20
-31.5329
11
159.55
21
-31.5326
0
LINE
8
BLACK
6
CONTINUOUS
10
159.55
20
-31.5326
11
159.55
21
-31.5323
0
LINE
8
BLACK
6
CONTINUOUS
10
159.55
20
-31.5323
11
159.559
21
-31.5248
0
LINE
8
BLACK
6
CONTINUOUS
10
159.559
20
-31.5248
11
159.569
21
-31.5172
0
LINE
8
BLACK
6
CONTINUOUS
10
159.569
20
-31.5172
11
159.569
21
-31.517
0
LINE
8
BLACK
6
CONTINUOUS
10
159.569
20
-31.517
11
159.569
21
-31.5167
0
LINE
8
BLACK
6
CONTINUOUS
10
159.569
20
-31.5167
11
159.58
21
-31.5112
0
LINE
8
BLACK
6
CONTINUOUS
10
159.58
20
-31.5112
11
159.591
21
-31.5056
0
LINE
8
BLACK
6
CONTINUOUS
10
159.591
20
-31.5056
11
159.591
21
-31.5055
0
LINE
8
BLACK
6
CONTINUOUS
10
159.591
20
-31.5055
11
159.591
21
-31.5052
0
LINE
8
BLACK
6
CONTINUOUS
10
159.591
20
-31.5052
11
159.603
21
-31.5019
0
LINE
8
BLACK
6
CONTINUOUS
10
159.603
20
-31.5019
11
159.614
21
-31.4984
0
LINE
8
BLACK
6
CONTINUOUS
10
159.614
20
-31.4984
11
159.615
21
-31.4984
0
LINE
8
BLACK
6
CONTINUOUS
10
159.615
20
-31.4984
11
159.615
21
-31.4982
0
LINE
8
BLACK
6
CONTINUOUS
10
159.615
20
-31.4982
11
159.627
21
-31.4972
0
LINE
8
BLACK
6
CONTINUOUS
10
159.627
20
-31.4972
11
159.639
21
-31.496
0
LINE
8
BLACK
6
CONTINUOUS
10
159.639
20
-31.496
11
173.101
21
-31.496
0
LINE
8
BLACK
6
CONTINUOUS
10
173.101
20
-31.496
11
173.102
21
-31.496
0
LINE
8
BLACK
6
CONTINUOUS
10
156.846
20
-69.088
11
156.846
21
-69.088
0
LINE
8
BLACK
6
CONTINUOUS
10
156.846
20
-69.088
11
156.846
21
-69.088
0
LINE
8
BLACK
6
CONTINUOUS
10
156.846
20
-69.088
11
156.847
21
-69.088
0
LINE
8
BLACK
6
CONTINUOUS
10
156.847
20
-69.088
11
156.859
21
-69.0893
0
LINE
8
BLACK
6
CONTINUOUS
10
156.859
20
-69.0893
11
156.871
21
-69.0906
0
LINE
8
BLACK
6
CONTINUOUS
10
156.871
20
-69.0906
11
156.871
21
-69.0907
0
LINE
8
BLACK
6
CONTINUOUS
10
156.871
20
-69.0907
11
156.871
21
-69.0908
0
LINE
8
BLACK
6
CONTINUOUS
10
156.871
20
-69.0908
11
156.883
21
-69.0944
0
LINE
8
BLACK
6
CONTINUOUS
10
156.883
20
-69.0944
11
156.894
21
-69.0979
0
LINE
8
BLACK
6
CONTINUOUS
10
156.894
20
-69.0979
11
156.895
21
-69.0981
0
LINE
8
BLACK
6
CONTINUOUS
10
156.895
20
-69.0981
11
156.895
21
-69.0983
0
LINE
8
BLACK
6
CONTINUOUS
10
156.895
20
-69.0983
11
156.905
21
-69.104
0
LINE
8
BLACK
6
CONTINUOUS
10
156.905
20
-69.104
11
156.916
21
-69.1097
0
LINE
8
BLACK
6
CONTINUOUS
10
156.916
20
-69.1097
11
156.916
21
-69.11
0
LINE
8
BLACK
6
CONTINUOUS
10
156.916
20
-69.11
11
156.917
21
-69.1102
0
LINE
8
BLACK
6
CONTINUOUS
10
156.917
20
-69.1102
11
156.926
21
-69.1179
0
LINE
8
BLACK
6
CONTINUOUS
10
156.926
20
-69.1179
11
156.935
21
-69.1255
0
LINE
8
BLACK
6
CONTINUOUS
10
156.935
20
-69.1255
11
156.935
21
-69.1259
0
LINE
8
BLACK
6
CONTINUOUS
10
156.935
20
-69.1259
11
156.936
21
-69.1261
0
LINE
8
BLACK
6
CONTINUOUS
10
156.936
20
-69.1261
11
156.943
21
-69.1355
0
LINE
8
BLACK
6
CONTINUOUS
10
156.943
20
-69.1355
11
156.951
21
-69.1447
0
LINE
8
BLACK
6
CONTINUOUS
10
156.951
20
-69.1447
11
156.951
21
-69.1451
0
LINE
8
BLACK
6
CONTINUOUS
10
156.951
20
-69.1451
11
156.951
21
-69.1455
0
LINE
8
BLACK
6
CONTINUOUS
10
156.951
20
-69.1455
11
156.957
21
-69.1561
0
LINE
8
BLACK
6
CONTINUOUS
10
156.957
20
-69.1561
11
156.962
21
-69.1666
0
LINE
8
BLACK
6
CONTINUOUS
10
156.962
20
-69.1666
11
156.963
21
-69.167
0
LINE
8
BLACK
6
CONTINUOUS
10
156.963
20
-69.167
11
156.963
21
-69.1674
0
LINE
8
BLACK
6
CONTINUOUS
10
156.963
20
-69.1674
11
156.966
21
-69.1789
0
LINE
8
BLACK
6
CONTINUOUS
10
156.966
20
-69.1789
11
156.97
21
-69.1903
0
LINE
8
BLACK
6
CONTINUOUS
10
156.97
20
-69.1903
11
156.97
21
-69.1908
0
LINE
8
BLACK
6
CONTINUOUS
10
156.97
20
-69.1908
11
156.97
21
-69.1912
0
LINE
8
BLACK
6
CONTINUOUS
10
156.97
20
-69.1912
11
156.971
21
-69.2031
0
LINE
8
BLACK
6
CONTINUOUS
10
156.971
20
-69.2031
11
156.972
21
-69.215
0
LINE
8
BLACK
6
CONTINUOUS
10
156.972
20
-69.215
11
156.972
21
-75.565
0
LINE
8
BLACK
6
CONTINUOUS
10
156.972
20
-75.565
11
156.972
21
-75.5659
0
LINE
8
BLACK
6
CONTINUOUS
10
156.972
20
-75.5659
11
156.972
21
-75.5659
0
LINE
8
BLACK
6
CONTINUOUS
10
156.972
20
-75.5659
11
156.972
21
-75.5659
0
LINE
8
BLACK
6
CONTINUOUS
10
156.972
20
-75.5659
11
156.972
21
-75.5668
0
LINE
8
BLACK
6
CONTINUOUS
10
156.972
20
-75.5668
11
156.971
21
-75.5787
0
LINE
8
BLACK
6
CONTINUOUS
10
156.971
20
-75.5787
11
156.969
21
-75.5905
0
LINE
8
BLACK
6
CONTINUOUS
10
156.969
20
-75.5905
11
156.969
21
-75.591
0
LINE
8
BLACK
6
CONTINUOUS
10
156.969
20
-75.591
11
156.969
21
-75.5914
0
LINE
8
BLACK
6
CONTINUOUS
10
156.969
20
-75.5914
11
156.966
21
-75.6028
0
LINE
8
BLACK
6
CONTINUOUS
10
156.966
20
-75.6028
11
156.962
21
-75.6142
0
LINE
8
BLACK
6
CONTINUOUS
10
156.962
20
-75.6142
11
156.962
21
-75.6146
0
LINE
8
BLACK
6
CONTINUOUS
10
156.962
20
-75.6146
11
156.962
21
-75.615
0
LINE
8
BLACK
6
CONTINUOUS
10
156.962
20
-75.615
11
156.956
21
-75.6255
0
LINE
8
BLACK
6
CONTINUOUS
10
156.956
20
-75.6255
11
156.95
21
-75.636
0
LINE
8
BLACK
6
CONTINUOUS
10
156.95
20
-75.636
11
156.95
21
-75.6364
0
LINE
8
BLACK
6
CONTINUOUS
10
156.95
20
-75.6364
11
156.95
21
-75.6368
0
LINE
8
BLACK
6
CONTINUOUS
10
156.95
20
-75.6368
11
156.942
21
-75.6459
0
LINE
8
BLACK
6
CONTINUOUS
10
156.942
20
-75.6459
11
156.934
21
-75.6551
0
LINE
8
BLACK
6
CONTINUOUS
10
156.934
20
-75.6551
11
156.934
21
-75.6554
0
LINE
8
BLACK
6
CONTINUOUS
10
156.934
20
-75.6554
11
156.934
21
-75.6557
0
LINE
8
BLACK
6
CONTINUOUS
10
156.934
20
-75.6557
11
156.925
21
-75.6632
0
LINE
8
BLACK
6
CONTINUOUS
10
156.925
20
-75.6632
11
156.915
21
-75.6708
0
LINE
8
BLACK
6
CONTINUOUS
10
156.915
20
-75.6708
11
156.915
21
-75.671
0
LINE
8
BLACK
6
CONTINUOUS
10
156.915
20
-75.671
11
156.915
21
-75.6713
0
LINE
8
BLACK
6
CONTINUOUS
10
156.915
20
-75.6713
11
156.904
21
-75.6768
0
LINE
8
BLACK
6
CONTINUOUS
10
156.904
20
-75.6768
11
156.893
21
-75.6824
0
LINE
8
BLACK
6
CONTINUOUS
10
156.893
20
-75.6824
11
156.893
21
-75.6825
0
LINE
8
BLACK
6
CONTINUOUS
10
156.893
20
-75.6825
11
156.893
21
-75.6828
0
LINE
8
BLACK
6
CONTINUOUS
10
156.893
20
-75.6828
11
156.881
21
-75.6861
0
LINE
8
BLACK
6
CONTINUOUS
10
156.881
20
-75.6861
11
156.87
21
-75.6896
0
LINE
8
BLACK
6
CONTINUOUS
10
156.87
20
-75.6896
11
156.869
21
-75.6896
0
LINE
8
BLACK
6
CONTINUOUS
10
156.869
20
-75.6896
11
156.869
21
-75.6898
0
LINE
8
BLACK
6
CONTINUOUS
10
156.869
20
-75.6898
11
156.857
21
-75.6908
0
LINE
8
BLACK
6
CONTINUOUS
10
156.857
20
-75.6908
11
156.845
21
-75.692
0
LINE
8
BLACK
6
CONTINUOUS
10
156.845
20
-75.692
11
149.987
21
-75.692
0
LINE
8
BLACK
6
CONTINUOUS
10
149.987
20
-75.692
11
149.986
21
-75.692
0
LINE
8
BLACK
6
CONTINUOUS
10
149.986
20
-75.692
11
149.986
21
-75.692
0
LINE
8
BLACK
6
CONTINUOUS
10
149.986
20
-75.692
11
149.986
21
-75.692
0
LINE
8
BLACK
6
CONTINUOUS
10
149.986
20
-75.692
11
149.985
21
-75.692
0
LINE
8
BLACK
6
CONTINUOUS
10
149.985
20
-75.692
11
149.973
21
-75.6907
0
LINE
8
BLACK
6
CONTINUOUS
10
149.973
20
-75.6907
11
149.961
21
-75.6894
0
LINE
8
BLACK
6
CONTINUOUS
10
149.961
20
-75.6894
11
149.961
21
-75.6893
0
LINE
8
BLACK
6
CONTINUOUS
10
149.961
20
-75.6893
11
149.961
21
-75.6892
0
LINE
8
BLACK
6
CONTINUOUS
10
149.961
20
-75.6892
11
149.949
21
-75.6856
0
LINE
8
BLACK
6
CONTINUOUS
10
149.949
20
-75.6856
11
149.938
21
-75.6821
0
LINE
8
BLACK
6
CONTINUOUS
10
149.938
20
-75.6821
11
149.937
21
-75.6819
0
LINE
8
BLACK
6
CONTINUOUS
10
149.937
20
-75.6819
11
149.937
21
-75.6817
0
LINE
8
BLACK
6
CONTINUOUS
10
149.937
20
-75.6817
11
149.927
21
-75.676
0
LINE
8
BLACK
6
CONTINUOUS
10
149.927
20
-75.676
11
149.916
21
-75.6703
0
LINE
8
BLACK
6
CONTINUOUS
10
149.916
20
-75.6703
11
149.916
21
-75.67
0
LINE
8
BLACK
6
CONTINUOUS
10
149.916
20
-75.67
11
149.915
21
-75.6698
0
LINE
8
BLACK
6
CONTINUOUS
10
149.915
20
-75.6698
11
149.906
21
-75.6621
0
LINE
8
BLACK
6
CONTINUOUS
10
149.906
20
-75.6621
11
149.897
21
-75.6545
0
LINE
8
BLACK
6
CONTINUOUS
10
149.897
20
-75.6545
11
149.897
21
-75.6541
0
LINE
8
BLACK
6
CONTINUOUS
10
149.897
20
-75.6541
11
149.896
21
-75.6539
0
LINE
8
BLACK
6
CONTINUOUS
10
149.896
20
-75.6539
11
149.889
21
-75.6445
0
LINE
8
BLACK
6
CONTINUOUS
10
149.889
20
-75.6445
11
149.881
21
-75.6353
0
LINE
8
BLACK
6
CONTINUOUS
10
149.881
20
-75.6353
11
149.881
21
-75.6349
0
LINE
8
BLACK
6
CONTINUOUS
10
149.881
20
-75.6349
11
149.881
21
-75.6345
0
LINE
8
BLACK
6
CONTINUOUS
10
149.881
20
-75.6345
11
149.875
21
-75.6239
0
LINE
8
BLACK
6
CONTINUOUS
10
149.875
20
-75.6239
11
149.87
21
-75.6134
0
LINE
8
BLACK
6
CONTINUOUS
10
149.87
20
-75.6134
11
149.869
21
-75.613
0
LINE
8
BLACK
6
CONTINUOUS
10
149.869
20
-75.613
11
149.869
21
-75.6126
0
LINE
8
BLACK
6
CONTINUOUS
10
149.869
20
-75.6126
11
149.866
21
-75.6011
0
LINE
8
BLACK
6
CONTINUOUS
10
149.866
20
-75.6011
11
149.862
21
-75.5897
0
LINE
8
BLACK
6
CONTINUOUS
10
149.862
20
-75.5897
11
149.862
21
-75.5892
0
LINE
8
BLACK
6
CONTINUOUS
10
149.862
20
-75.5892
11
149.862
21
-75.5888
0
LINE
8
BLACK
6
CONTINUOUS
10
149.862
20
-75.5888
11
149.861
21
-75.5769
0
LINE
8
BLACK
6
CONTINUOUS
10
149.861
20
-75.5769
11
149.86
21
-75.565
0
LINE
8
BLACK
6
CONTINUOUS
10
149.86
20
-75.565
11
149.86
21
-69.215
0
LINE
8
BLACK
6
CONTINUOUS
10
149.86
20
-69.215
11
149.86
21
-69.2141
0
LINE
8
BLACK
6
CONTINUOUS
10
149.86
20
-69.2141
11
149.86
21
-69.2141
0
LINE
8
BLACK
6
CONTINUOUS
10
149.86
20
-69.2141
11
149.86
21
-69.2141
0
LINE
8
BLACK
6
CONTINUOUS
10
149.86
20
-69.2141
11
149.86
21
-69.2132
0
LINE
8
BLACK
6
CONTINUOUS
10
149.86
20
-69.2132
11
149.861
21
-69.2013
0
LINE
8
BLACK
6
CONTINUOUS
10
149.861
20
-69.2013
11
149.863
21
-69.1895
0
LINE
8
BLACK
6
CONTINUOUS
10
149.863
20
-69.1895
11
149.863
21
-69.189
0
LINE
8
BLACK
6
CONTINUOUS
10
149.863
20
-69.189
11
149.863
21
-69.1886
0
LINE
8
BLACK
6
CONTINUOUS
10
149.863
20
-69.1886
11
149.866
21
-69.1772
0
LINE
8
BLACK
6
CONTINUOUS
10
149.866
20
-69.1772
11
149.87
21
-69.1658
0
LINE
8
BLACK
6
CONTINUOUS
10
149.87
20
-69.1658
11
149.87
21
-69.1654
0
LINE
8
BLACK
6
CONTINUOUS
10
149.87
20
-69.1654
11
149.87
21
-69.165
0
LINE
8
BLACK
6
CONTINUOUS
10
149.87
20
-69.165
11
149.876
21
-69.1545
0
LINE
8
BLACK
6
CONTINUOUS
10
149.876
20
-69.1545
11
149.882
21
-69.144
0
LINE
8
BLACK
6
CONTINUOUS
10
149.882
20
-69.144
11
149.882
21
-69.1436
0
LINE
8
BLACK
6
CONTINUOUS
10
149.882
20
-69.1436
11
149.882
21
-69.1432
0
LINE
8
BLACK
6
CONTINUOUS
10
149.882
20
-69.1432
11
149.89
21
-69.1341
0
LINE
8
BLACK
6
CONTINUOUS
10
149.89
20
-69.1341
11
149.898
21
-69.1249
0
LINE
8
BLACK
6
CONTINUOUS
10
149.898
20
-69.1249
11
149.898
21
-69.1246
0
LINE
8
BLACK
6
CONTINUOUS
10
149.898
20
-69.1246
11
149.898
21
-69.1243
0
LINE
8
BLACK
6
CONTINUOUS
10
149.898
20
-69.1243
11
149.907
21
-69.1168
0
LINE
8
BLACK
6
CONTINUOUS
10
149.907
20
-69.1168
11
149.917
21
-69.1092
0
LINE
8
BLACK
6
CONTINUOUS
10
149.917
20
-69.1092
11
149.917
21
-69.109
0
LINE
8
BLACK
6
CONTINUOUS
10
149.917
20
-69.109
11
149.917
21
-69.1087
0
LINE
8
BLACK
6
CONTINUOUS
10
149.917
20
-69.1087
11
149.928
21
-69.1032
0
LINE
8
BLACK
6
CONTINUOUS
10
149.928
20
-69.1032
11
149.939
21
-69.0976
0
LINE
8
BLACK
6
CONTINUOUS
10
149.939
20
-69.0976
11
149.939
21
-69.0975
0
LINE
8
BLACK
6
CONTINUOUS
10
149.939
20
-69.0975
11
149.939
21
-69.0972
0
LINE
8
BLACK
6
CONTINUOUS
10
149.939
20
-69.0972
11
149.951
21
-69.0939
0
LINE
8
BLACK
6
CONTINUOUS
10
149.951
20
-69.0939
11
149.962
21
-69.0904
0
LINE
8
BLACK
6
CONTINUOUS
10
149.962
20
-69.0904
11
149.963
21
-69.0904
0
LINE
8
BLACK
6
CONTINUOUS
10
149.963
20
-69.0904
11
149.963
21
-69.0902
0
LINE
8
BLACK
6
CONTINUOUS
10
149.963
20
-69.0902
11
149.975
21
-69.0892
0
LINE
8
BLACK
6
CONTINUOUS
10
149.975
20
-69.0892
11
149.987
21
-69.088
0
LINE
8
BLACK
6
CONTINUOUS
10
149.987
20
-69.088
11
156.845
21
-69.088
0
LINE
8
BLACK
6
CONTINUOUS
10
156.845
20
-69.088
11
156.846
21
-69.088
0
LINE
8
BLACK
6
CONTINUOUS
10
144.654
20
-68.834
11
144.654
21
-68.834
0
LINE
8
BLACK
6
CONTINUOUS
10
144.654
20
-68.834
11
144.654
21
-68.834
0
LINE
8
BLACK
6
CONTINUOUS
10
144.654
20
-68.834
11
144.655
21
-68.834
0
LINE
8
BLACK
6
CONTINUOUS
10
144.655
20
-68.834
11
144.667
21
-68.8353
0
LINE
8
BLACK
6
CONTINUOUS
10
144.667
20
-68.8353
11
144.679
21
-68.8366
0
LINE
8
BLACK
6
CONTINUOUS
10
144.679
20
-68.8366
11
144.679
21
-68.8367
0
LINE
8
BLACK
6
CONTINUOUS
10
144.679
20
-68.8367
11
144.679
21
-68.8368
0
LINE
8
BLACK
6
CONTINUOUS
10
144.679
20
-68.8368
11
144.691
21
-68.8404
0
LINE
8
BLACK
6
CONTINUOUS
10
144.691
20
-68.8404
11
144.702
21
-68.8439
0
LINE
8
BLACK
6
CONTINUOUS
10
144.702
20
-68.8439
11
144.703
21
-68.8441
0
LINE
8
BLACK
6
CONTINUOUS
10
144.703
20
-68.8441
11
144.703
21
-68.8443
0
LINE
8
BLACK
6
CONTINUOUS
10
144.703
20
-68.8443
11
144.713
21
-68.85
0
LINE
8
BLACK
6
CONTINUOUS
10
144.713
20
-68.85
11
144.724
21
-68.8557
0
LINE
8
BLACK
6
CONTINUOUS
10
144.724
20
-68.8557
11
144.724
21
-68.856
0
LINE
8
BLACK
6
CONTINUOUS
10
144.724
20
-68.856
11
144.725
21
-68.8562
0
LINE
8
BLACK
6
CONTINUOUS
10
144.725
20
-68.8562
11
144.734
21
-68.8639
0
LINE
8
BLACK
6
CONTINUOUS
10
144.734
20
-68.8639
11
144.743
21
-68.8715
0
LINE
8
BLACK
6
CONTINUOUS
10
144.743
20
-68.8715
11
144.743
21
-68.8719
0
LINE
8
BLACK
6
CONTINUOUS
10
144.743
20
-68.8719
11
144.744
21
-68.8721
0
LINE
8
BLACK
6
CONTINUOUS
10
144.744
20
-68.8721
11
144.751
21
-68.8815
0
LINE
8
BLACK
6
CONTINUOUS
10
144.751
20
-68.8815
11
144.759
21
-68.8907
0
LINE
8
BLACK
6
CONTINUOUS
10
144.759
20
-68.8907
11
144.759
21
-68.8911
0
LINE
8
BLACK
6
CONTINUOUS
10
144.759
20
-68.8911
11
144.759
21
-68.8915
0
LINE
8
BLACK
6
CONTINUOUS
10
144.759
20
-68.8915
11
144.765
21
-68.9021
0
LINE
8
BLACK
6
CONTINUOUS
10
144.765
20
-68.9021
11
144.77
21
-68.9126
0
LINE
8
BLACK
6
CONTINUOUS
10
144.77
20
-68.9126
11
144.771
21
-68.913
0
LINE
8
BLACK
6
CONTINUOUS
10
144.771
20
-68.913
11
144.771
21
-68.9134
0
LINE
8
BLACK
6
CONTINUOUS
10
144.771
20
-68.9134
11
144.774
21
-68.9249
0
LINE
8
BLACK
6
CONTINUOUS
10
144.774
20
-68.9249
11
144.778
21
-68.9363
0
LINE
8
BLACK
6
CONTINUOUS
10
144.778
20
-68.9363
11
144.778
21
-68.9368
0
LINE
8
BLACK
6
CONTINUOUS
10
144.778
20
-68.9368
11
144.778
21
-68.9372
0
LINE
8
BLACK
6
CONTINUOUS
10
144.778
20
-68.9372
11
144.779
21
-68.9491
0
LINE
8
BLACK
6
CONTINUOUS
10
144.779
20
-68.9491
11
144.78
21
-68.961
0
LINE
8
BLACK
6
CONTINUOUS
10
144.78
20
-68.961
11
144.78
21
-74.295
0
LINE
8
BLACK
6
CONTINUOUS
10
144.78
20
-74.295
11
144.78
21
-74.2959
0
LINE
8
BLACK
6
CONTINUOUS
10
144.78
20
-74.2959
11
144.78
21
-74.2959
0
LINE
8
BLACK
6
CONTINUOUS
10
144.78
20
-74.2959
11
144.78
21
-74.2959
0
LINE
8
BLACK
6
CONTINUOUS
10
144.78
20
-74.2959
11
144.78
21
-74.2968
0
LINE
8
BLACK
6
CONTINUOUS
10
144.78
20
-74.2968
11
144.779
21
-74.3087
0
LINE
8
BLACK
6
CONTINUOUS
10
144.779
20
-74.3087
11
144.777
21
-74.3205
0
LINE
8
BLACK
6
CONTINUOUS
10
144.777
20
-74.3205
11
144.777
21
-74.321
0
LINE
8
BLACK
6
CONTINUOUS
10
144.777
20
-74.321
11
144.777
21
-74.3214
0
LINE
8
BLACK
6
CONTINUOUS
10
144.777
20
-74.3214
11
144.774
21
-74.3328
0
LINE
8
BLACK
6
CONTINUOUS
10
144.774
20
-74.3328
11
144.77
21
-74.3442
0
LINE
8
BLACK
6
CONTINUOUS
10
144.77
20
-74.3442
11
144.77
21
-74.3446
0
LINE
8
BLACK
6
CONTINUOUS
10
144.77
20
-74.3446
11
144.77
21
-74.345
0
LINE
8
BLACK
6
CONTINUOUS
10
144.77
20
-74.345
11
144.764
21
-74.3555
0
LINE
8
BLACK
6
CONTINUOUS
10
144.764
20
-74.3555
11
144.758
21
-74.366
0
LINE
8
BLACK
6
CONTINUOUS
10
144.758
20
-74.366
11
144.758
21
-74.3664
0
LINE
8
BLACK
6
CONTINUOUS
10
144.758
20
-74.3664
11
144.758
21
-74.3668
0
LINE
8
BLACK
6
CONTINUOUS
10
144.758
20
-74.3668
11
144.75
21
-74.3759
0
LINE
8
BLACK
6
CONTINUOUS
10
144.75
20
-74.3759
11
144.742
21
-74.3851
0
LINE
8
BLACK
6
CONTINUOUS
10
144.742
20
-74.3851
11
144.742
21
-74.3854
0
LINE
8
BLACK
6
CONTINUOUS
10
144.742
20
-74.3854
11
144.742
21
-74.3857
0
LINE
8
BLACK
6
CONTINUOUS
10
144.742
20
-74.3857
11
144.733
21
-74.3932
0
LINE
8
BLACK
6
CONTINUOUS
10
144.733
20
-74.3932
11
144.723
21
-74.4008
0
LINE
8
BLACK
6
CONTINUOUS
10
144.723
20
-74.4008
11
144.723
21
-74.401
0
LINE
8
BLACK
6
CONTINUOUS
10
144.723
20
-74.401
11
144.723
21
-74.4013
0
LINE
8
BLACK
6
CONTINUOUS
10
144.723
20
-74.4013
11
144.712
21
-74.4068
0
LINE
8
BLACK
6
CONTINUOUS
10
144.712
20
-74.4068
11
144.701
21
-74.4124
0
LINE
8
BLACK
6
CONTINUOUS
10
144.701
20
-74.4124
11
144.701
21
-74.4125
0
LINE
8
BLACK
6
CONTINUOUS
10
144.701
20
-74.4125
11
144.701
21
-74.4128
0
LINE
8
BLACK
6
CONTINUOUS
10
144.701
20
-74.4128
11
144.689
21
-74.4161
0
LINE
8
BLACK
6
CONTINUOUS
10
144.689
20
-74.4161
11
144.678
21
-74.4196
0
LINE
8
BLACK
6
CONTINUOUS
10
144.678
20
-74.4196
11
144.677
21
-74.4196
0
LINE
8
BLACK
6
CONTINUOUS
10
144.677
20
-74.4196
11
144.677
21
-74.4197
0
LINE
8
BLACK
6
CONTINUOUS
10
144.677
20
-74.4197
11
144.665
21
-74.4208
0
LINE
8
BLACK
6
CONTINUOUS
10
144.665
20
-74.4208
11
144.653
21
-74.422
0
LINE
8
BLACK
6
CONTINUOUS
10
144.653
20
-74.422
11
135.763
21
-74.422
0
LINE
8
BLACK
6
CONTINUOUS
10
135.763
20
-74.422
11
135.762
21
-74.422
0
LINE
8
BLACK
6
CONTINUOUS
10
135.762
20
-74.422
11
135.762
21
-74.422
0
LINE
8
BLACK
6
CONTINUOUS
10
135.762
20
-74.422
11
135.762
21
-74.422
0
LINE
8
BLACK
6
CONTINUOUS
10
135.762
20
-74.422
11
135.761
21
-74.422
0
LINE
8
BLACK
6
CONTINUOUS
10
135.761
20
-74.422
11
135.749
21
-74.4207
0
LINE
8
BLACK
6
CONTINUOUS
10
135.749
20
-74.4207
11
135.737
21
-74.4194
0
LINE
8
BLACK
6
CONTINUOUS
10
135.737
20
-74.4194
11
135.737
21
-74.4193
0
LINE
8
BLACK
6
CONTINUOUS
10
135.737
20
-74.4193
11
135.737
21
-74.4192
0
LINE
8
BLACK
6
CONTINUOUS
10
135.737
20
-74.4192
11
135.725
21
-74.4156
0
LINE
8
BLACK
6
CONTINUOUS
10
135.725
20
-74.4156
11
135.714
21
-74.4121
0
LINE
8
BLACK
6
CONTINUOUS
10
135.714
20
-74.4121
11
135.713
21
-74.4119
0
LINE
8
BLACK
6
CONTINUOUS
10
135.713
20
-74.4119
11
135.713
21
-74.4117
0
LINE
8
BLACK
6
CONTINUOUS
10
135.713
20
-74.4117
11
135.703
21
-74.406
0
LINE
8
BLACK
6
CONTINUOUS
10
135.703
20
-74.406
11
135.692
21
-74.4003
0
LINE
8
BLACK
6
CONTINUOUS
10
135.692
20
-74.4003
11
135.692
21
-74.4
0
LINE
8
BLACK
6
CONTINUOUS
10
135.692
20
-74.4
11
135.691
21
-74.3998
0
LINE
8
BLACK
6
CONTINUOUS
10
135.691
20
-74.3998
11
135.682
21
-74.3921
0
LINE
8
BLACK
6
CONTINUOUS
10
135.682
20
-74.3921
11
135.673
21
-74.3845
0
LINE
8
BLACK
6
CONTINUOUS
10
135.673
20
-74.3845
11
135.673
21
-74.3841
0
LINE
8
BLACK
6
CONTINUOUS
10
135.673
20
-74.3841
11
135.672
21
-74.3839
0
LINE
8
BLACK
6
CONTINUOUS
10
135.672
20
-74.3839
11
135.665
21
-74.3745
0
LINE
8
BLACK
6
CONTINUOUS
10
135.665
20
-74.3745
11
135.657
21
-74.3653
0
LINE
8
BLACK
6
CONTINUOUS
10
135.657
20
-74.3653
11
135.657
21
-74.3649
0
LINE
8
BLACK
6
CONTINUOUS
10
135.657
20
-74.3649
11
135.657
21
-74.3645
0
LINE
8
BLACK
6
CONTINUOUS
10
135.657
20
-74.3645
11
135.651
21
-74.3539
0
LINE
8
BLACK
6
CONTINUOUS
10
135.651
20
-74.3539
11
135.646
21
-74.3434
0
LINE
8
BLACK
6
CONTINUOUS
10
135.646
20
-74.3434
11
135.645
21
-74.343
0
LINE
8
BLACK
6
CONTINUOUS
10
135.645
20
-74.343
11
135.645
21
-74.3426
0
LINE
8
BLACK
6
CONTINUOUS
10
135.645
20
-74.3426
11
135.642
21
-74.3311
0
LINE
8
BLACK
6
CONTINUOUS
10
135.642
20
-74.3311
11
135.638
21
-74.3197
0
LINE
8
BLACK
6
CONTINUOUS
10
135.638
20
-74.3197
11
135.638
21
-74.3192
0
LINE
8
BLACK
6
CONTINUOUS
10
135.638
20
-74.3192
11
135.638
21
-74.3188
0
LINE
8
BLACK
6
CONTINUOUS
10
135.638
20
-74.3188
11
135.637
21
-74.3069
0
LINE
8
BLACK
6
CONTINUOUS
10
135.637
20
-74.3069
11
135.636
21
-74.295
0
LINE
8
BLACK
6
CONTINUOUS
10
135.636
20
-74.295
11
135.636
21
-68.961
0
LINE
8
BLACK
6
CONTINUOUS
10
135.636
20
-68.961
11
135.636
21
-68.9601
0
LINE
8
BLACK
6
CONTINUOUS
10
135.636
20
-68.9601
11
135.636
21
-68.9601
0
LINE
8
BLACK
6
CONTINUOUS
10
135.636
20
-68.9601
11
135.636
21
-68.9601
0
LINE
8
BLACK
6
CONTINUOUS
10
135.636
20
-68.9601
11
135.636
21
-68.9592
0
LINE
8
BLACK
6
CONTINUOUS
10
135.636
20
-68.9592
11
135.637
21
-68.9473
0
LINE
8
BLACK
6
CONTINUOUS
10
135.637
20
-68.9473
11
135.639
21
-68.9355
0
LINE
8
BLACK
6
CONTINUOUS
10
135.639
20
-68.9355
11
135.639
21
-68.935
0
LINE
8
BLACK
6
CONTINUOUS
10
135.639
20
-68.935
11
135.639
21
-68.9346
0
LINE
8
BLACK
6
CONTINUOUS
10
135.639
20
-68.9346
11
135.642
21
-68.9232
0
LINE
8
BLACK
6
CONTINUOUS
10
135.642
20
-68.9232
11
135.646
21
-68.9118
0
LINE
8
BLACK
6
CONTINUOUS
10
135.646
20
-68.9118
11
135.646
21
-68.9114
0
LINE
8
BLACK
6
CONTINUOUS
10
135.646
20
-68.9114
11
135.646
21
-68.911
0
LINE
8
BLACK
6
CONTINUOUS
10
135.646
20
-68.911
11
135.652
21
-68.9005
0
LINE
8
BLACK
6
CONTINUOUS
10
135.652
20
-68.9005
11
135.658
21
-68.89
0
LINE
8
BLACK
6
CONTINUOUS
10
135.658
20
-68.89
11
135.658
21
-68.8896
0
LINE
8
BLACK
6
CONTINUOUS
10
135.658
20
-68.8896
11
135.658
21
-68.8892
0
LINE
8
BLACK
6
CONTINUOUS
10
135.658
20
-68.8892
11
135.666
21
-68.8801
0
LINE
8
BLACK
6
CONTINUOUS
10
135.666
20
-68.8801
11
135.674
21
-68.8709
0
LINE
8
BLACK
6
CONTINUOUS
10
135.674
20
-68.8709
11
135.674
21
-68.8706
0
LINE
8
BLACK
6
CONTINUOUS
10
135.674
20
-68.8706
11
135.674
21
-68.8703
0
LINE
8
BLACK
6
CONTINUOUS
10
135.674
20
-68.8703
11
135.683
21
-68.8628
0
LINE
8
BLACK
6
CONTINUOUS
10
135.683
20
-68.8628
11
135.693
21
-68.8552
0
LINE
8
BLACK
6
CONTINUOUS
10
135.693
20
-68.8552
11
135.693
21
-68.855
0
LINE
8
BLACK
6
CONTINUOUS
10
135.693
20
-68.855
11
135.693
21
-68.8547
0
LINE
8
BLACK
6
CONTINUOUS
10
135.693
20
-68.8547
11
135.704
21
-68.8492
0
LINE
8
BLACK
6
CONTINUOUS
10
135.704
20
-68.8492
11
135.715
21
-68.8436
0
LINE
8
BLACK
6
CONTINUOUS
10
135.715
20
-68.8436
11
135.715
21
-68.8435
0
LINE
8
BLACK
6
CONTINUOUS
10
135.715
20
-68.8435
11
135.715
21
-68.8432
0
LINE
8
BLACK
6
CONTINUOUS
10
135.715
20
-68.8432
11
135.727
21
-68.8399
0
LINE
8
BLACK
6
CONTINUOUS
10
135.727
20
-68.8399
11
135.738
21
-68.8364
0
LINE
8
BLACK
6
CONTINUOUS
10
135.738
20
-68.8364
11
135.739
21
-68.8364
0
LINE
8
BLACK
6
CONTINUOUS
10
135.739
20
-68.8364
11
135.739
21
-68.8362
0
LINE
8
BLACK
6
CONTINUOUS
10
135.739
20
-68.8362
11
135.751
21
-68.8352
0
LINE
8
BLACK
6
CONTINUOUS
10
135.751
20
-68.8352
11
135.763
21
-68.834
0
LINE
8
BLACK
6
CONTINUOUS
10
135.763
20
-68.834
11
144.653
21
-68.834
0
LINE
8
BLACK
6
CONTINUOUS
10
144.653
20
-68.834
11
144.654
21
-68.834
0
LINE
8
BLACK
6
CONTINUOUS
10
156.338
20
-28.448
11
156.338
21
-28.448
0
LINE
8
BLACK
6
CONTINUOUS
10
156.338
20
-28.448
11
156.338
21
-28.448
0
LINE
8
BLACK
6
CONTINUOUS
10
156.338
20
-28.448
11
156.339
21
-28.448
0
LINE
8
BLACK
6
CONTINUOUS
10
156.339
20
-28.448
11
156.351
21
-28.4493
0
LINE
8
BLACK
6
CONTINUOUS
10
156.351
20
-28.4493
11
156.363
21
-28.4506
0
LINE
8
BLACK
6
CONTINUOUS
10
156.363
20
-28.4506
11
156.363
21
-28.4507
0
LINE
8
BLACK
6
CONTINUOUS
10
156.363
20
-28.4507
11
156.363
21
-28.4508
0
LINE
8
BLACK
6
CONTINUOUS
10
156.363
20
-28.4508
11
156.375
21
-28.4544
0
LINE
8
BLACK
6
CONTINUOUS
10
156.375
20
-28.4544
11
156.386
21
-28.4579
0
LINE
8
BLACK
6
CONTINUOUS
10
156.386
20
-28.4579
11
156.387
21
-28.4581
0
LINE
8
BLACK
6
CONTINUOUS
10
156.387
20
-28.4581
11
156.387
21
-28.4583
0
LINE
8
BLACK
6
CONTINUOUS
10
156.387
20
-28.4583
11
156.397
21
-28.464
0
LINE
8
BLACK
6
CONTINUOUS
10
156.397
20
-28.464
11
156.408
21
-28.4697
0
LINE
8
BLACK
6
CONTINUOUS
10
156.408
20
-28.4697
11
156.408
21
-28.47
0
LINE
8
BLACK
6
CONTINUOUS
10
156.408
20
-28.47
11
156.409
21
-28.4702
0
LINE
8
BLACK
6
CONTINUOUS
10
156.409
20
-28.4702
11
156.418
21
-28.4779
0
LINE
8
BLACK
6
CONTINUOUS
10
156.418
20
-28.4779
11
156.427
21
-28.4855
0
LINE
8
BLACK
6
CONTINUOUS
10
156.427
20
-28.4855
11
156.427
21
-28.4859
0
LINE
8
BLACK
6
CONTINUOUS
10
156.427
20
-28.4859
11
156.428
21
-28.4861
0
LINE
8
BLACK
6
CONTINUOUS
10
156.428
20
-28.4861
11
156.435
21
-28.4955
0
LINE
8
BLACK
6
CONTINUOUS
10
156.435
20
-28.4955
11
156.443
21
-28.5047
0
LINE
8
BLACK
6
CONTINUOUS
10
156.443
20
-28.5047
11
156.443
21
-28.5051
0
LINE
8
BLACK
6
CONTINUOUS
10
156.443
20
-28.5051
11
156.443
21
-28.5055
0
LINE
8
BLACK
6
CONTINUOUS
10
156.443
20
-28.5055
11
156.449
21
-28.5161
0
LINE
8
BLACK
6
CONTINUOUS
10
156.449
20
-28.5161
11
156.454
21
-28.5266
0
LINE
8
BLACK
6
CONTINUOUS
10
156.454
20
-28.5266
11
156.455
21
-28.527
0
LINE
8
BLACK
6
CONTINUOUS
10
156.455
20
-28.527
11
156.455
21
-28.5274
0
LINE
8
BLACK
6
CONTINUOUS
10
156.455
20
-28.5274
11
156.458
21
-28.5389
0
LINE
8
BLACK
6
CONTINUOUS
10
156.458
20
-28.5389
11
156.462
21
-28.5503
0
LINE
8
BLACK
6
CONTINUOUS
10
156.462
20
-28.5503
11
156.462
21
-28.5508
0
LINE
8
BLACK
6
CONTINUOUS
10
156.462
20
-28.5508
11
156.462
21
-28.5512
0
LINE
8
BLACK
6
CONTINUOUS
10
156.462
20
-28.5512
11
156.463
21
-28.5631
0
LINE
8
BLACK
6
CONTINUOUS
10
156.463
20
-28.5631
11
156.464
21
-28.575
0
LINE
8
BLACK
6
CONTINUOUS
10
156.464
20
-28.575
11
156.464
21
-50.165
0
LINE
8
BLACK
6
CONTINUOUS
10
156.464
20
-50.165
11
156.464
21
-50.1659
0
LINE
8
BLACK
6
CONTINUOUS
10
156.464
20
-50.1659
11
156.464
21
-50.1659
0
LINE
8
BLACK
6
CONTINUOUS
10
156.464
20
-50.1659
11
156.464
21
-50.1659
0
LINE
8
BLACK
6
CONTINUOUS
10
156.464
20
-50.1659
11
156.464
21
-50.1668
0
LINE
8
BLACK
6
CONTINUOUS
10
156.464
20
-50.1668
11
156.463
21
-50.1787
0
LINE
8
BLACK
6
CONTINUOUS
10
156.463
20
-50.1787
11
156.461
21
-50.1905
0
LINE
8
BLACK
6
CONTINUOUS
10
156.461
20
-50.1905
11
156.461
21
-50.191
0
LINE
8
BLACK
6
CONTINUOUS
10
156.461
20
-50.191
11
156.461
21
-50.1914
0
LINE
8
BLACK
6
CONTINUOUS
10
156.461
20
-50.1914
11
156.458
21
-50.2028
0
LINE
8
BLACK
6
CONTINUOUS
10
156.458
20
-50.2028
11
156.454
21
-50.2142
0
LINE
8
BLACK
6
CONTINUOUS
10
156.454
20
-50.2142
11
156.454
21
-50.2146
0
LINE
8
BLACK
6
CONTINUOUS
10
156.454
20
-50.2146
11
156.454
21
-50.215
0
LINE
8
BLACK
6
CONTINUOUS
10
156.454
20
-50.215
11
156.448
21
-50.2255
0
LINE
8
BLACK
6
CONTINUOUS
10
156.448
20
-50.2255
11
156.442
21
-50.236
0
LINE
8
BLACK
6
CONTINUOUS
10
156.442
20
-50.236
11
156.442
21
-50.2364
0
LINE
8
BLACK
6
CONTINUOUS
10
156.442
20
-50.2364
11
156.442
21
-50.2368
0
LINE
8
BLACK
6
CONTINUOUS
10
156.442
20
-50.2368
11
156.434
21
-50.2459
0
LINE
8
BLACK
6
CONTINUOUS
10
156.434
20
-50.2459
11
156.426
21
-50.2551
0
LINE
8
BLACK
6
CONTINUOUS
10
156.426
20
-50.2551
11
156.426
21
-50.2554
0
LINE
8
BLACK
6
CONTINUOUS
10
156.426
20
-50.2554
11
156.426
21
-50.2557
0
LINE
8
BLACK
6
CONTINUOUS
10
156.426
20
-50.2557
11
156.417
21
-50.2632
0
LINE
8
BLACK
6
CONTINUOUS
10
156.417
20
-50.2632
11
156.407
21
-50.2708
0
LINE
8
BLACK
6
CONTINUOUS
10
156.407
20
-50.2708
11
156.407
21
-50.271
0
LINE
8
BLACK
6
CONTINUOUS
10
156.407
20
-50.271
11
156.407
21
-50.2713
0
LINE
8
BLACK
6
CONTINUOUS
10
156.407
20
-50.2713
11
156.396
21
-50.2768
0
LINE
8
BLACK
6
CONTINUOUS
10
156.396
20
-50.2768
11
156.385
21
-50.2824
0
LINE
8
BLACK
6
CONTINUOUS
10
156.385
20
-50.2824
11
156.385
21
-50.2825
0
LINE
8
BLACK
6
CONTINUOUS
10
156.385
20
-50.2825
11
156.385
21
-50.2828
0
LINE
8
BLACK
6
CONTINUOUS
10
156.385
20
-50.2828
11
156.373
21
-50.2861
0
LINE
8
BLACK
6
CONTINUOUS
10
156.373
20
-50.2861
11
156.362
21
-50.2896
0
LINE
8
BLACK
6
CONTINUOUS
10
156.362
20
-50.2896
11
156.361
21
-50.2896
0
LINE
8
BLACK
6
CONTINUOUS
10
156.361
20
-50.2896
11
156.361
21
-50.2897
0
LINE
8
BLACK
6
CONTINUOUS
10
156.361
20
-50.2897
11
156.349
21
-50.2908
0
LINE
8
BLACK
6
CONTINUOUS
10
156.349
20
-50.2908
11
156.337
21
-50.292
0
LINE
8
BLACK
6
CONTINUOUS
10
156.337
20
-50.292
11
132.969
21
-50.292
0
LINE
8
BLACK
6
CONTINUOUS
10
132.969
20
-50.292
11
132.968
21
-50.292
0
LINE
8
BLACK
6
CONTINUOUS
10
132.968
20
-50.292
11
132.968
21
-50.292
0
LINE
8
BLACK
6
CONTINUOUS
10
132.968
20
-50.292
11
132.968
21
-50.292
0
LINE
8
BLACK
6
CONTINUOUS
10
132.968
20
-50.292
11
132.967
21
-50.292
0
LINE
8
BLACK
6
CONTINUOUS
10
132.967
20
-50.292
11
132.955
21
-50.2907
0
LINE
8
BLACK
6
CONTINUOUS
10
132.955
20
-50.2907
11
132.943
21
-50.2894
0
LINE
8
BLACK
6
CONTINUOUS
10
132.943
20
-50.2894
11
132.943
21
-50.2893
0
LINE
8
BLACK
6
CONTINUOUS
10
132.943
20
-50.2893
11
132.943
21
-50.2892
0
LINE
8
BLACK
6
CONTINUOUS
10
132.943
20
-50.2892
11
132.931
21
-50.2856
0
LINE
8
BLACK
6
CONTINUOUS
10
132.931
20
-50.2856
11
132.92
21
-50.2821
0
LINE
8
BLACK
6
CONTINUOUS
10
132.92
20
-50.2821
11
132.919
21
-50.2819
0
LINE
8
BLACK
6
CONTINUOUS
10
132.919
20
-50.2819
11
132.919
21
-50.2817
0
LINE
8
BLACK
6
CONTINUOUS
10
132.919
20
-50.2817
11
132.909
21
-50.276
0
LINE
8
BLACK
6
CONTINUOUS
10
132.909
20
-50.276
11
132.898
21
-50.2703
0
LINE
8
BLACK
6
CONTINUOUS
10
132.898
20
-50.2703
11
132.898
21
-50.27
0
LINE
8
BLACK
6
CONTINUOUS
10
132.898
20
-50.27
11
132.897
21
-50.2698
0
LINE
8
BLACK
6
CONTINUOUS
10
132.897
20
-50.2698
11
132.888
21
-50.2621
0
LINE
8
BLACK
6
CONTINUOUS
10
132.888
20
-50.2621
11
132.879
21
-50.2545
0
LINE
8
BLACK
6
CONTINUOUS
10
132.879
20
-50.2545
11
132.879
21
-50.2541
0
LINE
8
BLACK
6
CONTINUOUS
10
132.879
20
-50.2541
11
132.878
21
-50.2539
0
LINE
8
BLACK
6
CONTINUOUS
10
132.878
20
-50.2539
11
132.871
21
-50.2445
0
LINE
8
BLACK
6
CONTINUOUS
10
132.871
20
-50.2445
11
132.863
21
-50.2353
0
LINE
8
BLACK
6
CONTINUOUS
10
132.863
20
-50.2353
11
132.863
21
-50.2349
0
LINE
8
BLACK
6
CONTINUOUS
10
132.863
20
-50.2349
11
132.863
21
-50.2345
0
LINE
8
BLACK
6
CONTINUOUS
10
132.863
20
-50.2345
11
132.857
21
-50.2239
0
LINE
8
BLACK
6
CONTINUOUS
10
132.857
20
-50.2239
11
132.852
21
-50.2134
0
LINE
8
BLACK
6
CONTINUOUS
10
132.852
20
-50.2134
11
132.851
21
-50.213
0
LINE
8
BLACK
6
CONTINUOUS
10
132.851
20
-50.213
11
132.851
21
-50.2126
0
LINE
8
BLACK
6
CONTINUOUS
10
132.851
20
-50.2126
11
132.848
21
-50.2011
0
LINE
8
BLACK
6
CONTINUOUS
10
132.848
20
-50.2011
11
132.844
21
-50.1897
0
LINE
8
BLACK
6
CONTINUOUS
10
132.844
20
-50.1897
11
132.844
21
-50.1892
0
LINE
8
BLACK
6
CONTINUOUS
10
132.844
20
-50.1892
11
132.844
21
-50.1888
0
LINE
8
BLACK
6
CONTINUOUS
10
132.844
20
-50.1888
11
132.843
21
-50.1769
0
LINE
8
BLACK
6
CONTINUOUS
10
132.843
20
-50.1769
11
132.842
21
-50.165
0
LINE
8
BLACK
6
CONTINUOUS
10
132.842
20
-50.165
11
132.842
21
-28.575
0
LINE
8
BLACK
6
CONTINUOUS
10
132.842
20
-28.575
11
132.842
21
-28.5741
0
LINE
8
BLACK
6
CONTINUOUS
10
132.842
20
-28.5741
11
132.842
21
-28.5741
0
LINE
8
BLACK
6
CONTINUOUS
10
132.842
20
-28.5741
11
132.842
21
-28.5741
0
LINE
8
BLACK
6
CONTINUOUS
10
132.842
20
-28.5741
11
132.842
21
-28.5732
0
LINE
8
BLACK
6
CONTINUOUS
10
132.842
20
-28.5732
11
132.843
21
-28.5613
0
LINE
8
BLACK
6
CONTINUOUS
10
132.843
20
-28.5613
11
132.845
21
-28.5495
0
LINE
8
BLACK
6
CONTINUOUS
10
132.845
20
-28.5495
11
132.845
21
-28.549
0
LINE
8
BLACK
6
CONTINUOUS
10
132.845
20
-28.549
11
132.845
21
-28.5486
0
LINE
8
BLACK
6
CONTINUOUS
10
132.845
20
-28.5486
11
132.848
21
-28.5372
0
LINE
8
BLACK
6
CONTINUOUS
10
132.848
20
-28.5372
11
132.852
21
-28.5258
0
LINE
8
BLACK
6
CONTINUOUS
10
132.852
20
-28.5258
11
132.852
21
-28.5254
0
LINE
8
BLACK
6
CONTINUOUS
10
132.852
20
-28.5254
11
132.852
21
-28.525
0
LINE
8
BLACK
6
CONTINUOUS
10
132.852
20
-28.525
11
132.858
21
-28.5145
0
LINE
8
BLACK
6
CONTINUOUS
10
132.858
20
-28.5145
11
132.864
21
-28.504
0
LINE
8
BLACK
6
CONTINUOUS
10
132.864
20
-28.504
11
132.864
21
-28.5036
0
LINE
8
BLACK
6
CONTINUOUS
10
132.864
20
-28.5036
11
132.864
21
-28.5032
0
LINE
8
BLACK
6
CONTINUOUS
10
132.864
20
-28.5032
11
132.872
21
-28.4941
0
LINE
8
BLACK
6
CONTINUOUS
10
132.872
20
-28.4941
11
132.88
21
-28.4849
0
LINE
8
BLACK
6
CONTINUOUS
10
132.88
20
-28.4849
11
132.88
21
-28.4846
0
LINE
8
BLACK
6
CONTINUOUS
10
132.88
20
-28.4846
11
132.88
21
-28.4843
0
LINE
8
BLACK
6
CONTINUOUS
10
132.88
20
-28.4843
11
132.889
21
-28.4768
0
LINE
8
BLACK
6
CONTINUOUS
10
132.889
20
-28.4768
11
132.899
21
-28.4692
0
LINE
8
BLACK
6
CONTINUOUS
10
132.899
20
-28.4692
11
132.899
21
-28.469
0
LINE
8
BLACK
6
CONTINUOUS
10
132.899
20
-28.469
11
132.899
21
-28.4687
0
LINE
8
BLACK
6
CONTINUOUS
10
132.899
20
-28.4687
11
132.91
21
-28.4632
0
LINE
8
BLACK
6
CONTINUOUS
10
132.91
20
-28.4632
11
132.921
21
-28.4576
0
LINE
8
BLACK
6
CONTINUOUS
10
132.921
20
-28.4576
11
132.921
21
-28.4575
0
LINE
8
BLACK
6
CONTINUOUS
10
132.921
20
-28.4575
11
132.921
21
-28.4572
0
LINE
8
BLACK
6
CONTINUOUS
10
132.921
20
-28.4572
11
132.933
21
-28.4539
0
LINE
8
BLACK
6
CONTINUOUS
10
132.933
20
-28.4539
11
132.944
21
-28.4504
0
LINE
8
BLACK
6
CONTINUOUS
10
132.944
20
-28.4504
11
132.945
21
-28.4504
0
LINE
8
BLACK
6
CONTINUOUS
10
132.945
20
-28.4504
11
132.945
21
-28.4503
0
LINE
8
BLACK
6
CONTINUOUS
10
132.945
20
-28.4503
11
132.957
21
-28.4492
0
LINE
8
BLACK
6
CONTINUOUS
10
132.957
20
-28.4492
11
132.969
21
-28.448
0
LINE
8
BLACK
6
CONTINUOUS
10
132.969
20
-28.448
11
156.337
21
-28.448
0
LINE
8
BLACK
6
CONTINUOUS
10
156.337
20
-28.448
11
156.338
21
-28.448
  0
ENDSEC
  0
EOF
